<svg width="250" height="250" viewBox="0 0 250 250" fill="none" xmlns="http://www.w3.org/2000/svg">
<circle cx="125" cy="125" r="125" fill="#DEF4FC"/>
<mask id="mask0_5_619" style="mask-type:luminance" maskUnits="userSpaceOnUse" x="0" y="0" width="250" height="250">
<circle cx="125" cy="125" r="125" fill="white"/>
</mask>
<g mask="url(#mask0_5_619)">
<path fill-rule="evenodd" clip-rule="evenodd" d="M221.552 21.5516C221.552 15.8383 216.92 11.2068 211.207 11.2068H161.207C155.494 11.2068 150.862 15.8383 150.862 21.5516C150.862 27.2649 155.494 31.8964 161.207 31.8964H211.207C216.92 31.8964 221.552 27.2649 221.552 21.5516ZM62.9311 114.655C68.6444 114.655 73.2759 119.287 73.2759 125C73.2759 130.713 68.6444 135.345 62.9311 135.345H60.3449C54.6316 135.345 50.0001 139.976 50.0001 145.69C50.0001 151.403 54.6316 156.034 60.3449 156.034H167.241C172.955 156.034 177.586 151.403 177.586 145.69C177.586 139.976 172.955 135.345 167.241 135.345H122.414L122.413 135.336C116.9 135.109 112.5 130.569 112.5 125C112.5 119.431 116.9 114.891 122.413 114.664L122.414 114.655H124.138C129.851 114.655 134.483 110.024 134.483 104.31C134.483 98.5971 129.851 93.9655 124.138 93.9655H85.3449L85.3452 93.9567C79.8317 93.7309 75.4311 89.1897 75.4311 83.6207C75.4311 78.0517 79.8317 73.5105 85.3452 73.2847L85.3449 73.2759H102.586C108.3 73.2759 112.931 68.6443 112.931 62.931C112.931 57.2177 108.3 52.5862 102.586 52.5862H39.6553C33.942 52.5862 29.3104 57.2177 29.3104 62.931C29.3104 68.6443 33.942 73.2759 39.6553 73.2759H43.9656C49.6789 73.2759 54.3104 77.9074 54.3104 83.6207C54.3104 89.334 49.6789 93.9655 43.9656 93.9655H1.72422C-3.98907 93.9655 -8.62061 98.5971 -8.62061 104.31C-8.62061 110.024 -3.98907 114.655 1.72422 114.655H62.9311ZM112.069 176.724C117.782 176.724 122.414 181.356 122.414 187.069C122.414 192.782 117.782 197.414 112.069 197.414C106.356 197.414 101.724 192.782 101.724 187.069C101.724 181.356 106.356 176.724 112.069 176.724ZM217.241 187.069C217.241 181.356 212.61 176.724 206.897 176.724H153.448C147.735 176.724 143.104 181.356 143.104 187.069C143.104 192.782 147.735 197.414 153.448 197.414H206.897C212.61 197.414 217.241 192.782 217.241 187.069ZM143.103 228.448C143.103 222.735 138.472 218.103 132.759 218.103H115.517C109.804 218.103 105.172 222.735 105.172 228.448C105.172 234.162 109.804 238.793 115.517 238.793H132.759C138.472 238.793 143.103 234.162 143.103 228.448ZM211.207 135.345C216.92 135.345 221.552 139.976 221.552 145.69C221.552 151.403 216.92 156.034 211.207 156.034C205.494 156.034 200.862 151.403 200.862 145.69C200.862 139.976 205.494 135.345 211.207 135.345ZM29.3104 145.69C29.3104 139.976 24.6789 135.345 18.9656 135.345H1.72422C-3.98907 135.345 -8.62061 139.976 -8.62061 145.69C-8.62061 151.403 -3.98907 156.034 1.72422 156.034H18.9656C24.6789 156.034 29.3104 151.403 29.3104 145.69ZM190.517 52.5862C196.231 52.5862 200.862 57.2177 200.862 62.931C200.862 68.6443 196.231 73.2759 190.517 73.2759H173.276C167.563 73.2759 162.931 68.6443 162.931 62.931C162.931 57.2177 167.563 52.5862 173.276 52.5862H190.517Z" fill="#B1D5E2"/>
</g>
<mask id="mask1_5_619" style="mask-type:luminance" maskUnits="userSpaceOnUse" x="0" y="0" width="250" height="250">
<circle cx="125" cy="125" r="125" fill="white"/>
</mask>
<g mask="url(#mask1_5_619)">
<rect opacity="0.0775757" x="125.862" width="125" height="250" fill="black"/>
</g>
</svg>
