<svg width="250" height="250" viewBox="0 0 250 250" fill="none" xmlns="http://www.w3.org/2000/svg">
<circle cx="125" cy="125" r="125" fill="#F7CC7F"/>
<mask id="mask0_5_591" style="mask-type:luminance" maskUnits="userSpaceOnUse" x="0" y="0" width="250" height="250">
<circle cx="125" cy="125" r="125" fill="white"/>
</mask>
<g mask="url(#mask0_5_591)">
<path fill-rule="evenodd" clip-rule="evenodd" d="M193.125 21.875C193.125 17.7329 189.767 14.375 185.625 14.375H25C20.8579 14.375 17.5 17.7329 17.5 21.875C17.5 26.0171 20.8579 29.375 25 29.375H100C104.142 29.375 107.5 32.7329 107.5 36.875C107.5 41.0171 104.142 44.375 100 44.375H97.5C93.3579 44.375 90 47.7329 90 51.875C90 56.0171 93.3579 59.375 97.5 59.375H145C149.142 59.375 152.5 56.0171 152.5 51.875C152.5 47.7329 149.142 44.375 145 44.375H143.125L143.124 44.3686C139.128 44.2043 135.938 40.9122 135.938 36.875C135.938 32.8378 139.128 29.5457 143.124 29.3814L143.125 29.375H185.625C189.767 29.375 193.125 26.0171 193.125 21.875ZM181.25 81.875C181.25 77.7329 177.892 74.375 173.75 74.375H135C130.858 74.375 127.5 77.7329 127.5 81.875C127.5 86.0171 130.858 89.375 135 89.375H173.75C177.892 89.375 181.25 86.0171 181.25 81.875ZM-5.9375 104.375C-1.79536 104.375 1.5625 107.733 1.5625 111.875C1.5625 116.017 -1.79536 119.375 -5.9375 119.375H-33.4375C-37.5796 119.375 -40.9375 116.017 -40.9375 111.875C-40.9375 107.733 -37.5796 104.375 -33.4375 104.375H-5.9375ZM188.75 111.875C188.75 107.733 185.392 104.375 181.25 104.375H36.875C32.7329 104.375 29.375 107.733 29.375 111.875C29.375 116.017 32.7329 119.375 36.875 119.375H80.625C84.7671 119.375 88.125 122.733 88.125 126.875C88.125 131.017 84.7671 134.375 80.625 134.375H75C70.8579 134.375 67.5 137.733 67.5 141.875C67.5 146.017 70.8579 149.375 75 149.375H163.75C167.892 149.375 171.25 152.733 171.25 156.875C171.25 161.017 167.892 164.375 163.75 164.375H160C155.858 164.375 152.5 167.733 152.5 171.875C152.5 176.017 155.858 179.375 160 179.375H207.5C211.642 179.375 215 176.017 215 171.875C215 167.733 211.642 164.375 207.5 164.375H206.875L206.874 164.369C202.878 164.204 199.688 160.912 199.688 156.875C199.688 152.838 202.878 149.546 206.874 149.381L206.875 149.375H219.375C223.517 149.375 226.875 146.017 226.875 141.875C226.875 137.733 223.517 134.375 219.375 134.375H169.375L169.375 134.369C165.378 134.205 162.188 130.912 162.188 126.875C162.188 122.838 165.378 119.545 169.375 119.381L169.375 119.375H181.25C185.392 119.375 188.75 116.017 188.75 111.875ZM201.25 201.875C201.25 197.733 197.892 194.375 193.75 194.375H49.375C45.2329 194.375 41.875 197.733 41.875 201.875C41.875 206.017 45.2329 209.375 49.375 209.375H75C79.1421 209.375 82.5 212.733 82.5 216.875C82.5 221.017 79.1421 224.375 75 224.375H72.5C68.3579 224.375 65 227.733 65 231.875C65 236.017 68.3579 239.375 72.5 239.375H120C124.142 239.375 127.5 236.017 127.5 231.875C127.5 227.733 124.142 224.375 120 224.375H118.125L118.124 224.369C114.128 224.204 110.938 220.912 110.938 216.875C110.938 212.838 114.128 209.546 118.124 209.381L118.125 209.375H193.75C197.892 209.375 201.25 206.017 201.25 201.875ZM73.125 164.375C77.2671 164.375 80.625 167.733 80.625 171.875C80.625 176.017 77.2671 179.375 73.125 179.375H25.625C21.4829 179.375 18.125 176.017 18.125 171.875C18.125 167.733 21.4829 164.375 25.625 164.375H73.125ZM284.375 141.875C284.375 137.733 281.017 134.375 276.875 134.375H251.25C247.108 134.375 243.75 137.733 243.75 141.875C243.75 146.017 247.108 149.375 251.25 149.375H276.875C281.017 149.375 284.375 146.017 284.375 141.875ZM86.875 74.375C91.0171 74.375 94.375 77.7329 94.375 81.875C94.375 86.0171 91.0171 89.375 86.875 89.375H74.375C70.2329 89.375 66.875 86.0171 66.875 81.875C66.875 77.7329 70.2329 74.375 74.375 74.375H86.875ZM187.5 44.375C191.642 44.375 195 47.7329 195 51.875C195 56.0171 191.642 59.375 187.5 59.375H175C170.858 59.375 167.5 56.0171 167.5 51.875C167.5 47.7329 170.858 44.375 175 44.375H187.5ZM75 51.875C75 47.7329 71.6421 44.375 67.5 44.375H55C50.8579 44.375 47.5 47.7329 47.5 51.875C47.5 56.0171 50.8579 59.375 55 59.375H67.5C71.6421 59.375 75 56.0171 75 51.875Z" fill="#FFE6AE"/>
</g>
<mask id="mask1_5_591" style="mask-type:luminance" maskUnits="userSpaceOnUse" x="0" y="0" width="250" height="250">
<circle cx="125" cy="125" r="125" fill="white"/>
</mask>
<g mask="url(#mask1_5_591)">
<path fill-rule="evenodd" clip-rule="evenodd" d="M54.375 119.375C58.5171 119.375 61.875 122.733 61.875 126.875C61.875 131.017 58.5171 134.375 54.375 134.375H51.875C47.7329 134.375 44.375 137.733 44.375 141.875C44.375 146.017 47.7329 149.375 51.875 149.375H99.375C103.517 149.375 106.875 146.017 106.875 141.875C106.875 137.733 103.517 134.375 99.375 134.375H97.5L97.4994 134.369C93.5025 134.204 90.3127 130.912 90.3127 126.875C90.3127 122.838 93.5025 119.546 97.4994 119.381L97.5 119.375H140C144.142 119.375 147.5 116.017 147.5 111.875C147.5 107.733 144.142 104.375 140 104.375H40L40.0002 104.369C36.0029 104.205 32.8125 100.913 32.8125 96.875C32.8125 92.8375 36.0029 89.5451 40.0002 89.3814L40 89.375H88.75C92.8921 89.375 96.25 86.0171 96.25 81.875C96.25 77.7329 92.8921 74.375 88.75 74.375H-8.75C-12.8921 74.375 -16.25 77.7329 -16.25 81.875C-16.25 86.0171 -12.8921 89.375 -8.75 89.375H10C14.1421 89.375 17.5 92.7329 17.5 96.875C17.5 101.017 14.1421 104.375 10 104.375H1.25C-2.89214 104.375 -6.25 107.733 -6.25 111.875C-6.25 116.017 -2.89214 119.375 1.25 119.375H54.375ZM135.625 171.875C135.625 167.733 132.267 164.375 128.125 164.375H89.375C85.2329 164.375 81.875 167.733 81.875 171.875C81.875 176.017 85.2329 179.375 89.375 179.375H128.125C132.267 179.375 135.625 176.017 135.625 171.875ZM141.875 134.375C146.017 134.375 149.375 137.733 149.375 141.875C149.375 146.017 146.017 149.375 141.875 149.375H129.375C125.233 149.375 121.875 146.017 121.875 141.875C121.875 137.733 125.233 134.375 129.375 134.375H141.875ZM259.375 141.875C259.375 137.733 256.017 134.375 251.875 134.375H188.75C184.608 134.375 181.25 137.733 181.25 141.875C181.25 146.017 184.608 149.375 188.75 149.375H251.875C256.017 149.375 259.375 146.017 259.375 141.875ZM21.875 134.375C26.0171 134.375 29.375 137.733 29.375 141.875C29.375 146.017 26.0171 149.375 21.875 149.375H9.375C5.23286 149.375 1.875 146.017 1.875 141.875C1.875 137.733 5.23286 134.375 9.375 134.375H21.875ZM225 111.875C225 107.733 221.642 104.375 217.5 104.375H205C200.858 104.375 197.5 107.733 197.5 111.875C197.5 116.017 200.858 119.375 205 119.375H217.5C221.642 119.375 225 116.017 225 111.875Z" fill="#E29F58"/>
</g>
<mask id="mask2_5_591" style="mask-type:luminance" maskUnits="userSpaceOnUse" x="0" y="0" width="250" height="250">
<circle cx="125" cy="125" r="125" fill="white"/>
</mask>
<g mask="url(#mask2_5_591)">
<rect opacity="0.0775757" x="125.625" y="-15.625" width="140.625" height="281.25" fill="black"/>
</g>
</svg>
