<svg width="250" height="277" viewBox="0 0 250 277" fill="none" xmlns="http://www.w3.org/2000/svg">
<circle cx="125" cy="152" r="125" fill="#545BFE"/>
<mask id="mask0_5_550" style="mask-type:luminance" maskUnits="userSpaceOnUse" x="0" y="27" width="250" height="250">
<circle cx="125" cy="152" r="125" fill="white"/>
</mask>
<g mask="url(#mask0_5_550)">
<path fill-rule="evenodd" clip-rule="evenodd" d="M104.444 41.9999C104.444 38.318 101.46 35.3333 97.7777 35.3333H-16.1112C-19.7931 35.3333 -22.7778 38.318 -22.7778 41.9999C-22.7778 45.6818 -19.7931 48.6666 -16.1112 48.6666H10.5555C14.2374 48.6666 17.2222 51.6514 17.2222 55.3333C17.2222 59.0151 14.2374 61.9999 10.5555 61.9999H7.22217C3.54027 61.9999 0.555502 64.9847 0.555502 68.6666C0.555502 72.3485 3.54027 75.3332 7.22217 75.3332H4.99995C8.68184 75.3332 11.6666 78.318 11.6666 81.9999C11.6666 85.6818 8.68184 88.6666 4.99995 88.6666H-0.555609C-4.23751 88.6666 -7.22228 91.6514 -7.22228 95.3332C-7.22228 99.0151 -4.23751 102 -0.555609 102H65.5555C69.2374 102 72.2222 99.0151 72.2222 95.3332C72.2222 91.6514 69.2374 88.6666 65.5555 88.6666H62.7777L62.7777 88.6609C59.2247 88.5152 56.389 85.5887 56.389 81.9999C56.389 78.4111 59.2247 75.4846 62.7777 75.3389L62.7777 75.3332H101.111C104.793 75.3332 107.778 72.3485 107.778 68.6666C107.778 64.9847 104.793 61.9999 101.111 61.9999H97.2222L97.2222 61.9942C93.6692 61.8485 90.8334 58.9221 90.8334 55.3333C90.8334 51.7445 93.6692 48.818 97.2222 48.6723L97.2222 48.6666H97.7777C101.46 48.6666 104.444 45.6818 104.444 41.9999ZM54.4445 115.333C58.1264 115.333 61.1112 118.318 61.1112 122C61.1112 125.682 58.1264 128.667 54.4445 128.667C50.7626 128.667 47.7778 125.682 47.7778 122C47.7778 118.318 50.7626 115.333 54.4445 115.333ZM33.8889 135.333C33.8889 131.651 30.9041 128.667 27.2222 128.667H7.77775C4.09585 128.667 1.11108 131.651 1.11108 135.333C1.11108 139.015 4.09585 142 7.77775 142H27.2222C30.9041 142 33.8889 139.015 33.8889 135.333ZM81.1112 215.333C81.1112 219.015 78.1264 222 74.4446 222H77.2223C73.5404 222 70.5557 224.985 70.5557 228.667C70.5557 232.349 73.5404 235.333 77.2223 235.333H93.3334C97.0153 235.333 100 232.349 100 228.667C100 224.985 97.0153 222 93.3334 222H95.5557V221.994C92.0027 221.849 89.1669 218.922 89.1669 215.333C89.1669 211.745 92.0027 208.818 95.5557 208.672V208.667H110.556C114.238 208.667 117.222 205.682 117.222 202C117.222 198.318 114.238 195.333 110.556 195.333L110.556 195.328C107.003 195.182 104.167 192.255 104.167 188.667C104.167 185.078 107.003 182.151 110.556 182.006L110.556 182H113.889C117.571 182 120.556 179.015 120.556 175.333C120.556 171.651 117.571 168.667 113.889 168.667H85.5557V168.661C82.0027 168.515 79.1669 165.589 79.1669 162C79.1669 158.411 82.0027 155.485 85.5557 155.339V155.333H84.4446C88.1264 155.333 91.1112 152.349 91.1112 148.667C91.1112 144.985 88.1264 142 84.4446 142H57.2223C53.5404 142 50.5557 144.985 50.5557 148.667C50.5557 152.349 53.5404 155.333 57.2223 155.333C60.9042 155.333 63.889 158.318 63.889 162C63.889 165.682 60.9042 168.667 57.2223 168.667C53.5404 168.667 50.5557 171.651 50.5557 175.333C50.5557 179.015 53.5404 182 57.2223 182H62.7779C66.4598 182 69.4446 184.985 69.4446 188.667C69.4446 192.349 66.4598 195.333 62.7779 195.333H63.889C60.2071 195.333 57.2223 198.318 57.2223 202C57.2223 205.682 60.2071 208.667 63.889 208.667H74.4446C78.1264 208.667 81.1112 211.651 81.1112 215.333Z" fill="#4FCDF9"/>
</g>
<mask id="mask1_5_550" style="mask-type:luminance" maskUnits="userSpaceOnUse" x="0" y="27" width="250" height="250">
<circle cx="125" cy="152" r="125" fill="white"/>
</mask>
<g mask="url(#mask1_5_550)">
<path fill-rule="evenodd" clip-rule="evenodd" d="M234.444 55.3334C234.444 51.6515 231.46 48.6667 227.778 48.6667H214.444C210.763 48.6667 207.778 51.6515 207.778 55.3334C207.778 59.0153 210.763 62.0001 214.444 62.0001H227.778C231.46 62.0001 234.444 59.0153 234.444 55.3334ZM366.667 62C370.349 62 373.333 64.9848 373.333 68.6667C373.333 72.3486 370.349 75.3333 366.667 75.3333H362.778L362.778 75.339C359.225 75.4847 356.389 78.4112 356.389 82C356.389 85.5888 359.225 88.5153 362.778 88.661L362.778 88.6667H371.667C375.349 88.6667 378.333 91.6514 378.333 95.3333C378.333 99.0152 375.349 102 371.667 102H275C271.318 102 268.333 99.0152 268.333 95.3333C268.333 91.6514 271.318 88.6667 275 88.6667H272.222C275.904 88.6667 278.889 85.6819 278.889 82C278.889 78.3181 275.904 75.3333 272.222 75.3333H249.444C245.763 75.3333 242.778 72.3486 242.778 68.6667C242.778 64.9848 245.763 62 249.444 62H366.667ZM216.667 208.667C220.348 208.667 223.333 205.682 223.333 202C223.333 198.318 220.348 195.333 216.667 195.333C212.985 195.333 210 192.349 210 188.667C210 184.985 212.985 182 216.667 182H215C218.682 182 221.667 179.015 221.667 175.333C221.667 171.651 218.682 168.667 215 168.667H190C186.318 168.667 183.333 165.682 183.333 162C183.333 158.318 186.318 155.333 190 155.333C193.682 155.333 196.667 152.349 196.667 148.667C196.667 144.985 193.682 142 190 142H171.111C167.429 142 164.444 139.015 164.444 135.333C164.444 131.651 167.429 128.667 171.111 128.667H185.555C189.237 128.667 192.222 125.682 192.222 122C192.222 118.318 189.237 115.333 185.555 115.333C181.874 115.333 178.889 112.349 178.889 108.667C178.889 104.985 181.874 102 185.555 102H216.667C220.348 102 223.333 104.985 223.333 108.667C223.333 112.349 220.348 115.333 216.667 115.333L216.666 115.339C213.113 115.485 210.278 118.411 210.278 122C210.278 125.589 213.113 128.515 216.666 128.661L216.667 128.667H267.222C270.904 128.667 273.889 131.651 273.889 135.333C273.889 139.015 270.904 142 267.222 142H256.111L256.111 142.006C252.558 142.151 249.722 145.078 249.722 148.667C249.722 152.255 252.558 155.182 256.111 155.328L256.111 155.333H261.667C265.348 155.333 268.333 158.318 268.333 162C268.333 165.682 265.348 168.667 261.667 168.667H253.333L253.333 168.672C249.78 168.818 246.944 171.745 246.944 175.333C246.944 178.922 249.78 181.848 253.333 181.994L253.333 182H252.222C255.904 182 258.889 184.985 258.889 188.667C258.889 192.349 255.904 195.333 252.222 195.333H241.111L241.111 195.339C237.558 195.485 234.722 198.411 234.722 202C234.722 205.589 237.558 208.515 241.111 208.661L241.111 208.667H238.889C242.571 208.667 245.555 211.651 245.555 215.333C245.555 219.015 242.571 222 238.889 222H218.889C215.207 222 212.222 219.015 212.222 215.333C212.222 211.651 215.207 208.667 218.889 208.667H216.667ZM266.667 195.333C270.349 195.333 273.333 198.318 273.333 202C273.333 205.682 270.349 208.667 266.667 208.667C262.985 208.667 260 205.682 260 202C260 198.318 262.985 195.333 266.667 195.333ZM263.333 108.667C263.333 104.985 260.349 102 256.667 102H248.889C245.207 102 242.222 104.985 242.222 108.667C242.222 112.349 245.207 115.333 248.889 115.333H256.667C260.349 115.333 263.333 112.349 263.333 108.667ZM206.111 82C206.111 78.3181 203.126 75.3333 199.444 75.3333H186.111C182.429 75.3333 179.444 78.3181 179.444 82C179.444 85.6819 182.429 88.6667 186.111 88.6667H199.444C203.126 88.6667 206.111 85.6819 206.111 82ZM220.556 75.3333C224.237 75.3333 227.222 78.3181 227.222 82C227.222 85.6819 224.237 88.6667 220.556 88.6667H218.889C215.207 88.6667 212.222 85.6819 212.222 82C212.222 78.3181 215.207 75.3333 218.889 75.3333H220.556Z" fill="#4FCDF9"/>
</g>
<mask id="mask2_5_550" style="mask-type:luminance" maskUnits="userSpaceOnUse" x="0" y="27" width="250" height="250">
<circle cx="125" cy="152" r="125" fill="white"/>
</mask>
<g mask="url(#mask2_5_550)">
<path fill-rule="evenodd" clip-rule="evenodd" d="M170.556 55.3334C170.556 51.6515 167.571 48.6667 163.889 48.6667H97.2223C93.5404 48.6667 90.5557 45.682 90.5557 42.0001C90.5557 38.3182 93.5404 35.3334 97.2223 35.3334H124.445C128.126 35.3334 131.111 32.3486 131.111 28.6667C131.111 24.9848 128.126 22.0001 124.445 22.0001H115.556C111.874 22.0001 108.889 19.0153 108.889 15.3334C108.889 11.6515 111.874 8.66675 115.556 8.66675H150C153.682 8.66675 156.667 11.6515 156.667 15.3334C156.667 19.0153 153.682 22.0001 150 22.0001H151.111L151.111 22.0058C147.558 22.1513 144.722 25.0778 144.722 28.6667C144.722 32.2557 147.558 35.1822 151.111 35.3277L151.111 35.3334H240C243.682 35.3334 246.667 38.3182 246.667 42.0001C246.667 45.682 243.682 48.6667 240 48.6667H202.222L202.222 48.6725C198.669 48.8184 195.834 51.7448 195.834 55.3334C195.834 58.922 198.669 61.8484 202.222 61.9944L202.222 62.0001H203.889C207.571 62.0001 210.556 64.9848 210.556 68.6667C210.556 72.3486 207.571 75.3334 203.889 75.3334H161.667C157.985 75.3334 155 72.3486 155 68.6667C155 64.9848 157.985 62.0001 161.667 62.0001H163.889C167.571 62.0001 170.556 59.0153 170.556 55.3334ZM229.444 88.6667C233.126 88.6667 236.111 91.6514 236.111 95.3333C236.111 99.0152 233.126 102 229.444 102H195C191.318 102 188.333 99.0152 188.333 95.3333C188.333 91.6514 191.318 88.6667 195 88.6667H229.444ZM248.333 68.6667C248.333 64.9848 245.349 62 241.667 62H230.556C226.874 62 223.889 64.9848 223.889 68.6667C223.889 72.3486 226.874 75.3333 230.556 75.3333H241.667C245.349 75.3333 248.333 72.3486 248.333 68.6667ZM135 62C138.682 62 141.667 64.9848 141.667 68.6667C141.667 72.3486 138.682 75.3333 135 75.3333H123.889C120.207 75.3333 117.222 72.3486 117.222 68.6667C117.222 64.9848 120.207 62 123.889 62H135ZM270 15.3334C270 11.6515 267.015 8.66675 263.333 8.66675H176.667C172.985 8.66675 170 11.6515 170 15.3334C170 19.0153 172.985 22.0001 176.667 22.0001H263.333C267.015 22.0001 270 19.0153 270 15.3334Z" fill="white"/>
</g>
<mask id="mask3_5_550" style="mask-type:luminance" maskUnits="userSpaceOnUse" x="0" y="27" width="250" height="250">
<circle cx="125" cy="152" r="125" fill="white"/>
</mask>
<g mask="url(#mask3_5_550)">
<path fill-rule="evenodd" clip-rule="evenodd" d="M47.2223 222C50.9042 222 53.8889 224.985 53.8889 228.667C53.8889 232.349 50.9042 235.333 47.2223 235.333H45.0001C41.3182 235.333 38.3334 238.318 38.3334 242C38.3334 245.682 41.3182 248.667 45.0001 248.667H87.2223C90.9042 248.667 93.8889 245.682 93.8889 242C93.8889 238.318 90.9042 235.333 87.2223 235.333H85.5556L85.5551 235.328C82.0023 235.182 79.1669 232.255 79.1669 228.667C79.1669 225.078 82.0023 222.152 85.5551 222.006L85.5556 222H100C103.682 222 106.667 219.015 106.667 215.333C106.667 211.651 103.682 208.667 100 208.667H92.2223L92.2225 208.661C88.6693 208.515 85.8334 205.589 85.8334 202C85.8334 198.411 88.6693 195.485 92.2225 195.339L92.2223 195.333H118.333C122.015 195.333 125 192.349 125 188.667C125 184.985 122.015 182 118.333 182H52.7778C49.0959 182 46.1112 184.985 46.1112 188.667C46.1112 192.349 49.0959 195.333 52.7778 195.333H65.5556C69.2375 195.333 72.2223 198.318 72.2223 202C72.2223 205.682 69.2375 208.667 65.5556 208.667H9.4445C5.7626 208.667 2.77783 211.651 2.77783 215.333C2.77783 219.015 5.7626 222 9.4445 222H47.2223ZM144.444 215.333C144.444 211.651 141.46 208.667 137.778 208.667H126.667C122.985 208.667 120 211.651 120 215.333C120 219.015 122.985 222 126.667 222H137.778C141.46 222 144.444 219.015 144.444 215.333Z" fill="white"/>
</g>
<mask id="mask4_5_550" style="mask-type:luminance" maskUnits="userSpaceOnUse" x="0" y="27" width="250" height="250">
<circle cx="125" cy="152" r="125" fill="white"/>
</mask>
<g mask="url(#mask4_5_550)">
<path fill-rule="evenodd" clip-rule="evenodd" d="M187.222 275.333C190.904 275.333 193.889 278.318 193.889 282C193.889 285.682 190.904 288.667 187.222 288.667H185C181.318 288.667 178.333 291.651 178.333 295.333C178.333 299.015 181.318 302 185 302H227.222C230.904 302 233.889 299.015 233.889 295.333C233.889 291.651 230.904 288.667 227.222 288.667H225.556L225.555 288.661C222.002 288.515 219.167 285.589 219.167 282C219.167 278.411 222.002 275.485 225.555 275.339L225.556 275.333H240C243.682 275.333 246.667 272.348 246.667 268.667C246.667 264.985 243.682 262 240 262H232.222L232.222 261.994C228.669 261.849 225.833 258.922 225.833 255.333C225.833 251.744 228.669 248.818 232.222 248.672L232.222 248.667H258.333C262.015 248.667 265 245.682 265 242C265 238.318 262.015 235.333 258.333 235.333H192.778C189.096 235.333 186.111 238.318 186.111 242C186.111 245.682 189.096 248.667 192.778 248.667H205.556C209.238 248.667 212.222 251.651 212.222 255.333C212.222 259.015 209.238 262 205.556 262H149.444C145.763 262 142.778 264.985 142.778 268.667C142.778 272.348 145.763 275.333 149.444 275.333H187.222ZM284.444 268.667C284.444 264.985 281.46 262 277.778 262H266.667C262.985 262 260 264.985 260 268.667C260 272.349 262.985 275.333 266.667 275.333H277.778C281.46 275.333 284.444 272.349 284.444 268.667Z" fill="white"/>
</g>
<mask id="mask5_5_550" style="mask-type:luminance" maskUnits="userSpaceOnUse" x="0" y="0" width="250" height="250">
<circle cx="125" cy="125" r="125" fill="white"/>
</mask>
<g mask="url(#mask5_5_550)">
<rect opacity="0.0775757" x="125.269" y="-13.8889" width="139.158" height="277.778" fill="black"/>
</g>
</svg>
