<svg width="250" height="250" viewBox="0 0 250 250" fill="none" xmlns="http://www.w3.org/2000/svg">
<circle cx="125" cy="125" r="125" fill="#FF6A45"/>
<mask id="mask0_5_525" style="mask-type:luminance" maskUnits="userSpaceOnUse" x="0" y="0" width="250" height="250">
<circle cx="125" cy="125" r="125" fill="white"/>
</mask>
<g mask="url(#mask0_5_525)">
<path fill-rule="evenodd" clip-rule="evenodd" d="M66.9641 17.8571C71.8952 17.8571 75.8926 21.8546 75.8926 26.7857C75.8926 31.7168 71.8952 35.7143 66.9641 35.7143H30.5057C25.5746 35.7143 21.5771 39.7117 21.5771 44.6429C21.5771 49.574 25.5746 53.5714 30.5057 53.5714H125C129.931 53.5714 133.928 49.574 133.928 44.6429C133.928 39.7117 129.931 35.7143 125 35.7143H115.327L115.326 35.7066C110.568 35.5111 106.771 31.5919 106.771 26.7857C106.771 21.9795 110.568 18.0603 115.326 17.8648L115.327 17.8571H156.994C161.925 17.8571 165.922 13.8597 165.922 8.92857C165.922 3.99746 161.925 0 156.994 0H40.9224C35.9913 0 31.9938 3.99746 31.9938 8.92857C31.9938 13.8597 35.9913 17.8571 40.9224 17.8571H66.9641ZM212.797 44.6429C212.797 39.7117 208.8 35.7143 203.869 35.7143H200.149C195.217 35.7143 191.22 39.7117 191.22 44.6429C191.22 49.574 195.217 53.5714 200.149 53.5714H203.869C208.8 53.5714 212.797 49.574 212.797 44.6429Z" fill="#FF9B6B"/>
</g>
<mask id="mask1_5_525" style="mask-type:luminance" maskUnits="userSpaceOnUse" x="0" y="0" width="250" height="250">
<circle cx="125" cy="125" r="125" fill="white"/>
</mask>
<g mask="url(#mask1_5_525)">
<path fill-rule="evenodd" clip-rule="evenodd" d="M146.577 232.143C151.508 232.143 155.506 236.14 155.506 241.071C155.506 246.002 151.508 250 146.577 250H110.119C105.188 250 101.19 253.997 101.19 258.929C101.19 263.86 105.188 267.857 110.119 267.857H204.613C209.544 267.857 213.542 263.86 213.542 258.929C213.542 253.997 209.544 250 204.613 250H194.94L194.94 249.992C190.182 249.797 186.384 245.878 186.384 241.071C186.384 236.265 190.182 232.346 194.94 232.15L194.94 232.143H236.607C241.538 232.143 245.536 228.145 245.536 223.214C245.536 218.283 241.538 214.286 236.607 214.286H120.536C115.605 214.286 111.607 218.283 111.607 223.214C111.607 228.145 115.605 232.143 120.536 232.143H146.577ZM292.411 258.929C292.411 253.997 288.413 250 283.482 250H279.762C274.831 250 270.833 253.997 270.833 258.929C270.833 263.86 274.831 267.857 279.762 267.857H283.482C288.413 267.857 292.411 263.86 292.411 258.929Z" fill="#FF9B6B"/>
</g>
<mask id="mask2_5_525" style="mask-type:luminance" maskUnits="userSpaceOnUse" x="0" y="0" width="250" height="250">
<circle cx="125" cy="125" r="125" fill="white"/>
</mask>
<g mask="url(#mask2_5_525)">
<path fill-rule="evenodd" clip-rule="evenodd" d="M103.422 53.5715C108.354 53.5715 112.351 57.569 112.351 62.5001C112.351 67.4312 108.354 71.4287 103.422 71.4287H73.6606C68.7295 71.4287 64.732 67.4312 64.732 62.5001C64.732 57.569 68.7295 53.5715 73.6606 53.5715H103.422ZM195.684 125C200.616 125 204.613 128.997 204.613 133.929C204.613 138.86 200.616 142.857 195.684 142.857H83.3332L83.3325 142.865C78.5743 143.06 74.7768 146.98 74.7768 151.786C74.7768 156.592 78.5743 160.511 83.3325 160.707L83.3332 160.714H97.4701C102.401 160.714 106.399 164.712 106.399 169.643C106.399 174.574 102.401 178.571 97.4701 178.571H8.18439C3.25327 178.571 -0.744186 174.574 -0.744186 169.643C-0.744186 164.712 3.25327 160.714 8.18439 160.714H31.9939C36.925 160.714 40.9225 156.717 40.9225 151.786C40.9225 146.855 36.925 142.857 31.9939 142.857H-15.6251C-20.5563 142.857 -24.5537 138.86 -24.5537 133.929C-24.5537 128.997 -20.5563 125 -15.6251 125H195.684ZM83.3332 205.357C83.3332 200.426 79.3357 196.429 74.4046 196.429H59.5237C54.5926 196.429 50.5951 200.426 50.5951 205.357C50.5951 210.288 54.5926 214.286 59.5237 214.286H74.4046C79.3357 214.286 83.3332 210.288 83.3332 205.357ZM170.387 205.357C170.387 200.426 166.389 196.429 161.458 196.429H115.327C110.396 196.429 106.399 200.426 106.399 205.357C106.399 210.288 110.396 214.286 115.327 214.286H161.458C166.389 214.286 170.387 210.288 170.387 205.357ZM165.923 169.643C165.923 164.712 161.925 160.714 156.994 160.714H142.113C137.182 160.714 133.184 164.712 133.184 169.643C133.184 174.574 137.182 178.571 142.113 178.571H156.994C161.925 178.571 165.923 174.574 165.923 169.643ZM267.857 62.5001C267.857 57.569 263.86 53.5715 258.928 53.5715H229.167C224.235 53.5715 220.238 57.569 220.238 62.5001C220.238 67.4312 224.235 71.4287 229.167 71.4287H258.928C263.86 71.4287 267.857 67.4312 267.857 62.5001Z" fill="#D04237"/>
</g>
<mask id="mask3_5_525" style="mask-type:luminance" maskUnits="userSpaceOnUse" x="0" y="0" width="250" height="250">
<circle cx="125" cy="125" r="125" fill="white"/>
</mask>
<g mask="url(#mask3_5_525)">
<rect opacity="0.0775757" x="125.744" y="-11.9048" width="136.905" height="273.81" fill="black"/>
</g>
</svg>
