<svg width="250" height="250" viewBox="0 0 250 250" fill="none" xmlns="http://www.w3.org/2000/svg">
<circle cx="125" cy="125" r="125" fill="#ECAD7A"/>
<mask id="mask0_5_475" style="mask-type:luminance" maskUnits="userSpaceOnUse" x="0" y="0" width="250" height="250">
<circle cx="125" cy="125" r="125" fill="white"/>
</mask>
<g mask="url(#mask0_5_475)">
<path fill-rule="evenodd" clip-rule="evenodd" d="M16.3232 126.289C19.17 126.289 21.4778 128.596 21.4778 131.443C21.4778 134.29 19.17 136.598 16.3232 136.598H-50.6872C-53.534 136.598 -55.8418 134.29 -55.8418 131.443C-55.8418 128.596 -53.534 126.289 -50.6872 126.289H16.3232ZM110.825 126.289C113.672 126.289 115.98 128.596 115.98 131.443C115.98 134.29 113.672 136.598 110.825 136.598H77.3197L77.3199 136.602C74.5726 136.715 72.3799 138.978 72.3799 141.752C72.3799 144.527 74.5726 146.79 77.3199 146.903L77.3197 146.907H146.048C148.895 146.907 151.203 149.215 151.203 152.062C151.203 154.909 148.895 157.216 146.048 157.216H35.653C32.8062 157.216 30.4984 154.909 30.4984 152.062C30.4984 149.215 32.8062 146.907 35.653 146.907H56.7012C59.548 146.907 61.8558 144.599 61.8558 141.752C61.8558 138.906 59.548 136.598 56.7012 136.598H43.8146C40.9677 136.598 38.6599 134.29 38.6599 131.443C38.6599 128.596 40.9677 126.289 43.8146 126.289H110.825ZM22.7665 167.526C25.6133 167.526 27.9211 169.834 27.9211 172.68C27.9211 175.527 25.6133 177.835 22.7665 177.835H-8.59093C-11.4378 177.835 -13.7456 175.527 -13.7456 172.68C-13.7456 169.834 -11.4378 167.526 -8.59093 167.526H22.7665ZM146.048 167.526C148.895 167.526 151.203 169.834 151.203 172.68C151.203 175.527 148.895 177.835 146.048 177.835H114.691C111.844 177.835 109.536 175.527 109.536 172.68C109.536 169.834 111.844 167.526 114.691 167.526H146.048ZM259.45 172.68C259.45 169.834 257.142 167.526 254.296 167.526H182.99C180.143 167.526 177.835 169.834 177.835 172.68C177.835 175.527 180.143 177.835 182.99 177.835H254.296C257.142 177.835 259.45 175.527 259.45 172.68ZM177.835 136.598C180.682 136.598 182.99 138.906 182.99 141.752C182.99 144.599 180.682 146.907 177.835 146.907H173.969C171.122 146.907 168.815 149.215 168.815 152.062C168.815 154.909 171.122 157.216 173.969 157.216H284.364C287.211 157.216 289.519 154.909 289.519 152.062C289.519 149.215 287.211 146.907 284.364 146.907H198.454L198.454 146.903C195.707 146.79 193.514 144.527 193.514 141.752C193.514 138.978 195.707 136.715 198.454 136.602L198.454 136.598H208.763C211.61 136.598 213.918 134.29 213.918 131.443C213.918 128.596 211.61 126.289 208.763 126.289H141.753C138.906 126.289 136.598 128.596 136.598 131.443C136.598 134.29 138.906 136.598 141.753 136.598H177.835ZM305.842 131.443C305.842 128.596 303.534 126.289 300.687 126.289H233.677C230.83 126.289 228.522 128.596 228.522 131.443C228.522 134.29 230.83 136.598 233.677 136.598H300.687C303.534 136.598 305.842 134.29 305.842 131.443Z" fill="#F0D29F"/>
</g>
<mask id="mask1_5_475" style="mask-type:luminance" maskUnits="userSpaceOnUse" x="0" y="0" width="250" height="250">
<circle cx="125" cy="125" r="125" fill="white"/>
</mask>
<g mask="url(#mask1_5_475)">
<path d="M68.299 172.68C68.299 169.834 65.9912 167.526 63.1444 167.526H50.6874C47.8405 167.526 45.5327 165.218 45.5327 162.371C45.5327 159.524 47.8405 157.217 50.6874 157.217H94.0722C96.9191 157.217 99.2269 159.524 99.2269 162.371C99.2269 165.218 96.9191 167.526 94.0722 167.526H92.7836L92.7831 167.53C90.0362 167.643 87.8438 169.906 87.8438 172.68C87.8438 175.455 90.0362 177.718 92.7831 177.831L92.7836 177.835H94.0722C96.9191 177.835 99.2269 180.143 99.2269 182.99C99.2269 185.837 96.9191 188.144 94.0722 188.144H61.4262C58.5794 188.144 56.2715 185.837 56.2715 182.99C56.2715 180.143 58.5794 177.835 61.4262 177.835H63.1444C65.9912 177.835 68.299 175.527 68.299 172.68Z" fill="#D86534"/>
</g>
<mask id="mask2_5_475" style="mask-type:luminance" maskUnits="userSpaceOnUse" x="0" y="0" width="250" height="250">
<circle cx="125" cy="125" r="125" fill="white"/>
</mask>
<g mask="url(#mask2_5_475)">
<path fill-rule="evenodd" clip-rule="evenodd" d="M200.172 23.1958C197.325 23.1958 195.017 25.5036 195.017 28.3504C195.017 31.1973 197.325 33.5051 200.172 33.5051H267.182C270.029 33.5051 272.337 31.1973 272.337 28.3504C272.337 25.5036 270.029 23.1958 267.182 23.1958H200.172ZM105.67 23.1958C102.823 23.1958 100.516 25.5036 100.516 28.3504C100.516 31.1973 102.823 33.5051 105.67 33.5051H139.175L139.175 33.5095C141.923 33.622 144.115 35.8848 144.115 38.6597C144.115 41.4347 141.923 43.6975 139.175 43.81L139.175 43.8144H70.4469C67.6001 43.8144 65.2923 46.1222 65.2923 48.969C65.2923 51.8158 67.6001 54.1236 70.4469 54.1236H180.842C183.689 54.1236 185.997 51.8158 185.997 48.969C185.997 46.1222 183.689 43.8144 180.842 43.8144H159.794C156.947 43.8144 154.639 41.5065 154.639 38.6597C154.639 35.8129 156.947 33.5051 159.794 33.5051H172.681C175.527 33.5051 177.835 31.1973 177.835 28.3504C177.835 25.5036 175.527 23.1958 172.681 23.1958H105.67ZM193.729 64.433C190.882 64.433 188.574 66.7408 188.574 69.5876C188.574 72.4345 190.882 74.7423 193.729 74.7423H225.086C227.933 74.7423 230.241 72.4345 230.241 69.5876C230.241 66.7408 227.933 64.433 225.086 64.433H193.729ZM70.4469 64.433C67.6 64.433 65.2922 66.7408 65.2922 69.5876C65.2922 72.4345 67.6 74.7423 70.4469 74.7423H101.804C104.651 74.7423 106.959 72.4345 106.959 69.5876C106.959 66.7408 104.651 64.433 101.804 64.433H70.4469ZM-42.9552 69.5876C-42.9552 66.7408 -40.6474 64.433 -37.8005 64.433H33.5053C36.3521 64.433 38.6599 66.7408 38.6599 69.5876C38.6599 72.4345 36.3521 74.7423 33.5053 74.7423H-37.8005C-40.6474 74.7423 -42.9552 72.4345 -42.9552 69.5876ZM38.6599 33.5051C35.8131 33.5051 33.5053 35.8129 33.5053 38.6597C33.5053 41.5065 35.8131 43.8144 38.6599 43.8144H42.5259C45.3728 43.8144 47.6806 46.1222 47.6806 48.969C47.6806 51.8158 45.3728 54.1236 42.5259 54.1236H-67.8693C-70.7161 54.1236 -73.0239 51.8158 -73.0239 48.969C-73.0239 46.1222 -70.7161 43.8144 -67.8693 43.8144H18.0414L18.0412 43.81C20.7885 43.6975 22.9813 41.4347 22.9813 38.6597C22.9813 35.8848 20.7885 33.622 18.0412 33.5095L18.0414 33.5051H7.73212C4.88528 33.5051 2.57748 31.1973 2.57748 28.3504C2.57748 25.5036 4.88528 23.1958 7.73212 23.1958H74.7424C77.5892 23.1958 79.8971 25.5036 79.8971 28.3504C79.8971 31.1973 77.5892 33.5051 74.7424 33.5051H38.6599ZM-89.3469 28.3504C-89.3469 25.5036 -87.0391 23.1958 -84.1923 23.1958H-17.182C-14.3351 23.1958 -12.0273 25.5036 -12.0273 28.3504C-12.0273 31.1973 -14.3351 33.5051 -17.182 33.5051H-84.1923C-87.0391 33.5051 -89.3469 31.1973 -89.3469 28.3504Z" fill="#DC8E61"/>
</g>
<mask id="mask3_5_475" style="mask-type:luminance" maskUnits="userSpaceOnUse" x="0" y="0" width="250" height="250">
<circle cx="125" cy="125" r="125" fill="white"/>
</mask>
<g mask="url(#mask3_5_475)">
<path fill-rule="evenodd" clip-rule="evenodd" d="M268.041 188.144C265.194 188.144 262.886 190.452 262.886 193.299C262.886 196.146 265.194 198.454 268.041 198.454H335.051C337.898 198.454 340.206 196.146 340.206 193.299C340.206 190.452 337.898 188.144 335.051 188.144H268.041ZM173.539 188.144C170.693 188.144 168.385 190.452 168.385 193.299C168.385 196.146 170.693 198.454 173.539 198.454H207.045L207.044 198.458C209.792 198.57 211.984 200.833 211.984 203.608C211.984 206.383 209.792 208.646 207.044 208.758L207.045 208.763H138.316C135.469 208.763 133.161 211.071 133.161 213.917C133.161 216.764 135.469 219.072 138.316 219.072H248.711C251.558 219.072 253.866 216.764 253.866 213.917C253.866 211.071 251.558 208.763 248.711 208.763H227.663C224.816 208.763 222.508 206.455 222.508 203.608C222.508 200.761 224.816 198.454 227.663 198.454H240.55C243.397 198.454 245.704 196.146 245.704 193.299C245.704 190.452 243.397 188.144 240.55 188.144H173.539ZM261.598 229.381C258.751 229.381 256.443 231.689 256.443 234.536C256.443 237.383 258.751 239.691 261.598 239.691H292.955C295.802 239.691 298.11 237.383 298.11 234.536C298.11 231.689 295.802 229.381 292.955 229.381H261.598ZM138.316 229.381C135.469 229.381 133.161 231.689 133.161 234.536C133.161 237.383 135.469 239.691 138.316 239.691H169.673C172.52 239.691 174.828 237.383 174.828 234.536C174.828 231.689 172.52 229.381 169.673 229.381H138.316ZM24.914 234.536C24.914 231.689 27.2218 229.381 30.0686 229.381H101.374C104.221 229.381 106.529 231.689 106.529 234.536C106.529 237.383 104.221 239.691 101.374 239.691H30.0686C27.2218 239.691 24.914 237.383 24.914 234.536ZM106.529 198.454C103.682 198.454 101.374 200.761 101.374 203.608C101.374 206.455 103.682 208.763 106.529 208.763H110.395C113.242 208.763 115.55 211.071 115.55 213.917C115.55 216.764 113.242 219.072 110.395 219.072H-0.00012207C-2.84695 219.072 -5.15475 216.764 -5.15475 213.917C-5.15475 211.071 -2.84695 208.763 -0.00012207 208.763H85.9105L85.9104 208.758C88.6577 208.646 90.8504 206.383 90.8504 203.608C90.8504 200.833 88.6577 198.57 85.9104 198.458L85.9105 198.454H75.6013C72.7544 198.454 70.4466 196.146 70.4466 193.299C70.4466 190.452 72.7544 188.144 75.6013 188.144H142.612C145.458 188.144 147.766 190.452 147.766 193.299C147.766 196.146 145.458 198.454 142.612 198.454H106.529ZM-21.4778 193.299C-21.4778 190.452 -19.17 188.144 -16.3232 188.144H50.6872C53.534 188.144 55.8418 190.452 55.8418 193.299C55.8418 196.146 53.534 198.454 50.6872 198.454H-16.3232C-19.17 198.454 -21.4778 196.146 -21.4778 193.299Z" fill="#D89D6D"/>
</g>
<mask id="mask4_5_475" style="mask-type:luminance" maskUnits="userSpaceOnUse" x="0" y="0" width="250" height="250">
<circle cx="125" cy="125" r="125" fill="white"/>
</mask>
<g mask="url(#mask4_5_475)">
<path fill-rule="evenodd" clip-rule="evenodd" d="M76.0312 95.3608C78.878 95.3608 81.1858 97.6686 81.1858 100.515C81.1858 103.362 78.878 105.67 76.0312 105.67H71.7356C68.8888 105.67 66.581 107.978 66.581 110.825C66.581 113.672 68.8888 115.979 71.7356 115.979H109.966C112.813 115.979 115.12 113.672 115.12 110.825C115.12 107.978 112.813 105.67 109.966 105.67H105.67L105.67 105.666C102.923 105.553 100.731 103.29 100.731 100.515C100.731 97.7407 102.923 95.4781 105.67 95.3652L105.67 95.3608H133.591C136.438 95.3608 138.746 93.053 138.746 90.2062C138.746 87.3593 136.438 85.0515 133.591 85.0515H48.1102C45.2634 85.0515 42.9556 87.3593 42.9556 90.2062C42.9556 93.053 45.2634 95.3608 48.1102 95.3608H76.0312ZM56.2717 110.825C56.2717 107.978 53.9639 105.67 51.1171 105.67H24.4848C21.6379 105.67 19.3301 107.978 19.3301 110.825C19.3301 113.672 21.6379 115.979 24.4848 115.979H51.1171C53.9639 115.979 56.2717 113.672 56.2717 110.825ZM3.86621 105.67C6.71304 105.67 9.02085 107.978 9.02085 110.825C9.02085 113.672 6.71304 115.979 3.86621 115.979H-8.16128C-11.0081 115.979 -13.3159 113.672 -13.3159 110.825C-13.3159 107.978 -11.0081 105.67 -8.16128 105.67H3.86621ZM207.904 110.825C207.904 107.978 205.596 105.67 202.749 105.67H130.584C127.738 105.67 125.43 107.978 125.43 110.825C125.43 113.672 127.738 115.979 130.584 115.979H202.749C205.596 115.979 207.904 113.672 207.904 110.825ZM235.395 105.67C238.242 105.67 240.55 107.978 240.55 110.825C240.55 113.672 238.242 115.979 235.395 115.979H223.368C220.521 115.979 218.213 113.672 218.213 110.825C218.213 107.978 220.521 105.67 223.368 105.67H235.395ZM220.361 90.2062C220.361 87.3593 218.053 85.0515 215.206 85.0515H154.21C151.363 85.0515 149.055 87.3593 149.055 90.2062C149.055 93.053 151.363 95.3608 154.21 95.3608H215.206C218.053 95.3608 220.361 93.053 220.361 90.2062ZM257.303 85.0515C260.149 85.0515 262.457 87.3593 262.457 90.2062C262.457 93.053 260.149 95.3608 257.303 95.3608H235.825C232.978 95.3608 230.67 93.053 230.67 90.2062C230.67 87.3593 232.978 85.0515 235.825 85.0515H257.303ZM22.337 90.2062C22.337 87.3593 20.0292 85.0515 17.1824 85.0515H5.15487C2.30804 85.0515 0.000228882 87.3593 0.000228882 90.2062C0.000228882 93.053 2.30804 95.3608 5.15487 95.3608H17.1824C20.0292 95.3608 22.337 93.053 22.337 90.2062Z" fill="#D89D6D"/>
</g>
<mask id="mask5_5_475" style="mask-type:luminance" maskUnits="userSpaceOnUse" x="0" y="0" width="250" height="250">
<circle cx="125" cy="125" r="125" fill="white"/>
</mask>
<g mask="url(#mask5_5_475)">
<rect opacity="0.0775757" x="125" width="125.43" height="250" fill="black"/>
</g>
</svg>
