<svg width="566" height="566" viewBox="0 0 566 566" fill="none" xmlns="http://www.w3.org/2000/svg">
<path fill-rule="evenodd" clip-rule="evenodd" d="M44.435 287.279C44.4296 287.18 44.426 287.081 44.4241 286.982C43.9652 262.608 150.312 240.841 281.956 238.362C413.6 235.884 520.69 253.633 521.149 278.006C521.151 278.106 521.151 278.205 521.149 278.304L482.495 279.032C482.497 278.933 482.498 278.833 482.496 278.734C482.111 258.313 392.387 243.442 282.091 245.519C171.794 247.595 82.6931 265.833 83.0775 286.254C83.0794 286.353 83.0834 286.452 83.0895 286.551L44.435 287.279ZM92.4623 286.375C92.0983 266.942 176.88 249.588 281.829 247.612C386.779 245.636 472.154 259.787 472.521 279.22L457.965 279.494C457.968 279.394 457.969 279.295 457.967 279.196C457.629 261.246 378.924 248.17 282.175 249.992C185.426 251.813 107.269 267.842 107.607 285.792C107.609 285.891 107.613 285.99 107.62 286.089L92.4623 286.375Z" fill="#B87D43"/>
<ellipse cx="275.873" cy="276.127" rx="124.907" ry="124.907" transform="rotate(-46.0785 275.873 276.127)" fill="#FCCB6B"/>
<mask id="mask0_5_440" style="mask-type:luminance" maskUnits="userSpaceOnUse" x="150" y="151" width="251" height="251">
<ellipse cx="275.873" cy="276.127" rx="124.907" ry="124.907" transform="rotate(-46.0785 275.873 276.127)" fill="white"/>
</mask>
<g mask="url(#mask0_5_440)">
<path fill-rule="evenodd" clip-rule="evenodd" d="M223.069 289.031C219.089 289.106 215.924 292.392 215.999 296.371C216.074 300.35 219.361 303.515 223.34 303.441L228.744 303.339C232.723 303.264 236.009 306.429 236.084 310.408C236.159 314.387 232.994 317.674 229.015 317.749L74.7096 320.654C70.7304 320.729 67.4439 317.564 67.369 313.584C67.2941 309.605 70.4591 306.319 74.4383 306.244L194.52 303.983L194.52 303.977C198.357 303.747 201.362 300.527 201.289 296.648C201.216 292.77 198.092 289.664 194.249 289.579L194.249 289.573L179.839 289.845C175.86 289.919 172.573 286.754 172.499 282.775C172.424 278.796 175.589 275.51 179.568 275.435L273.232 273.671C277.211 273.596 280.497 276.761 280.572 280.741C280.647 284.72 277.482 288.006 273.503 288.081L223.069 289.031ZM316.461 272.858C312.482 272.933 309.317 276.22 309.392 280.199C309.467 284.178 312.753 287.343 316.732 287.268L363.564 286.386L363.564 286.392C367.407 286.477 370.532 289.583 370.605 293.461C370.678 297.34 367.672 300.56 363.835 300.79L363.836 300.796L267.77 302.605C263.791 302.68 260.626 305.966 260.701 309.945C260.776 313.924 264.062 317.089 268.041 317.015L422.347 314.11C426.326 314.035 429.491 310.748 429.416 306.769C429.341 302.79 426.054 299.625 422.075 299.7L392.655 300.254C388.676 300.329 385.39 297.163 385.315 293.184C385.24 289.205 388.405 285.919 392.384 285.844L410.396 285.505C414.375 285.43 417.54 282.143 417.466 278.164C417.391 274.185 414.104 271.02 410.125 271.095L316.461 272.858ZM268.313 331.424C264.334 331.499 261.169 334.785 261.244 338.764C261.319 342.744 264.605 345.909 268.584 345.834L312.414 345.008C316.393 344.934 319.558 341.647 319.483 337.668C319.408 333.689 316.122 330.524 312.143 330.599L268.313 331.424ZM440.63 328.18C436.651 328.255 433.486 331.541 433.561 335.52C433.636 339.5 436.922 342.665 440.901 342.59L484.731 341.764C488.71 341.69 491.875 338.403 491.8 334.424C491.726 330.445 488.439 327.28 484.46 327.355L440.63 328.18ZM109.94 341.613C109.865 337.634 113.03 334.348 117.009 334.273L216.677 332.396C220.656 332.321 223.943 335.486 224.018 339.465C224.093 343.445 220.928 346.731 216.948 346.806L117.28 348.682C113.301 348.757 110.015 345.592 109.94 341.613ZM448.551 270.371C444.572 270.446 441.407 273.733 441.482 277.712C441.557 281.691 444.843 284.856 448.822 284.781L542.486 283.018C546.465 282.943 549.63 279.656 549.556 275.677C549.481 271.698 546.194 268.533 542.215 268.608L448.551 270.371ZM44.0113 285.195C43.9364 281.215 47.1014 277.929 51.0806 277.854L144.744 276.091C148.724 276.016 152.01 279.181 152.085 283.16C152.16 287.139 148.995 290.426 145.016 290.5L51.3519 292.264C47.3727 292.339 44.0862 289.174 44.0113 285.195Z" fill="#ECB55A"/>
</g>
<mask id="mask1_5_440" style="mask-type:luminance" maskUnits="userSpaceOnUse" x="150" y="151" width="251" height="251">
<ellipse cx="275.873" cy="276.127" rx="124.907" ry="124.907" transform="rotate(-46.0785 275.873 276.127)" fill="white"/>
</mask>
<g mask="url(#mask1_5_440)">
<rect opacity="0.0775757" x="185.903" y="189.482" width="125.561" height="249.814" transform="rotate(-46.0785 185.903 189.482)" fill="black"/>
</g>
<path fill-rule="evenodd" clip-rule="evenodd" d="M44.4355 287.279C44.4338 287.379 44.4339 287.478 44.4358 287.578C44.8946 311.951 151.985 329.701 283.629 327.222C415.273 324.744 521.62 302.976 521.161 278.603C521.159 278.503 521.155 278.404 521.15 278.304L482.495 279.032C482.501 279.131 482.505 279.231 482.507 279.331C482.892 299.752 393.791 317.989 283.494 320.066C173.198 322.142 83.4736 307.271 83.0891 286.85C83.0873 286.751 83.0875 286.651 83.0899 286.551L44.4355 287.279ZM92.4626 286.375C92.4626 286.375 92.4626 286.375 92.4626 286.375C92.8285 305.808 178.204 319.96 283.155 317.984C388.105 316.008 472.888 298.653 472.522 279.22C472.522 279.22 472.522 279.22 472.522 279.22L457.966 279.494C457.973 279.593 457.977 279.692 457.979 279.792C458.317 297.743 380.16 313.771 283.411 315.592C186.661 317.414 107.957 304.339 107.619 286.388C107.617 286.289 107.617 286.189 107.62 286.089L92.4626 286.375Z" fill="#B87D43"/>
</svg>
