<svg width="250" height="250" viewBox="0 0 250 250" fill="none" xmlns="http://www.w3.org/2000/svg">
<circle cx="125" cy="125" r="125" fill="#65F0D5"/>
<mask id="mask0_5_404" style="mask-type:luminance" maskUnits="userSpaceOnUse" x="0" y="0" width="250" height="250">
<circle cx="125" cy="125" r="125" fill="white"/>
</mask>
<g mask="url(#mask0_5_404)">
<path fill-rule="evenodd" clip-rule="evenodd" d="M242.969 -81.8778C242.969 -78.2602 240.037 -75.3275 236.419 -75.3275C232.802 -75.3275 229.869 -78.2602 229.869 -81.8778V-167.031C229.869 -170.648 232.802 -173.581 236.419 -173.581C240.037 -173.581 242.969 -170.648 242.969 -167.031V-81.8778ZM242.969 38.2095C242.969 41.8271 240.037 44.7597 236.419 44.7597C232.802 44.7597 229.869 41.8271 229.869 38.2095V-4.36694L229.863 -4.36673C229.72 -7.85785 226.845 -10.6442 223.319 -10.6442C219.793 -10.6442 216.917 -7.85785 216.774 -4.36673L216.769 -4.36694V82.9693C216.769 86.5869 213.836 89.5195 210.218 89.5195C206.601 89.5195 203.668 86.5869 203.668 82.9693V-57.3145C203.668 -60.9321 206.601 -63.8648 210.218 -63.8648C213.836 -63.8648 216.769 -60.9321 216.769 -57.3145V-30.5678C216.769 -26.9502 219.701 -24.0176 223.319 -24.0176C226.936 -24.0176 229.869 -26.9502 229.869 -30.5678V-46.9434C229.869 -50.561 232.802 -53.4936 236.419 -53.4936C240.037 -53.4936 242.969 -50.561 242.969 -46.9434V38.2095ZM190.568 -73.6901C190.568 -70.0725 187.635 -67.1399 184.018 -67.1399C180.4 -67.1399 177.467 -70.0725 177.467 -73.6901V-113.537C177.467 -117.155 180.4 -120.087 184.018 -120.087C187.635 -120.087 190.568 -117.155 190.568 -113.537V-73.6901ZM190.568 82.9693C190.568 86.5869 187.635 89.5195 184.018 89.5195C180.4 89.5195 177.467 86.5869 177.467 82.9693V43.1221C177.467 39.5045 180.4 36.5719 184.018 36.5719C187.635 36.5719 190.568 39.5045 190.568 43.1221V82.9693ZM184.018 227.074C187.635 227.074 190.568 224.141 190.568 220.524V129.913C190.568 126.295 187.635 123.362 184.018 123.362C180.4 123.362 177.467 126.295 177.467 129.913L177.467 220.524C177.467 224.141 180.4 227.074 184.018 227.074ZM229.869 123.362C229.869 126.98 226.936 129.913 223.319 129.913C219.701 129.913 216.769 126.98 216.769 123.362V118.45C216.769 114.832 213.836 111.899 210.218 111.899C206.601 111.899 203.668 114.832 203.668 118.45V258.733C203.668 262.351 206.601 265.284 210.218 265.284C213.836 265.284 216.769 262.351 216.769 258.733V149.563L216.774 149.563C216.917 146.072 219.793 143.286 223.319 143.286C226.845 143.286 229.72 146.072 229.863 149.563L229.869 149.563V162.664C229.869 166.281 232.802 169.214 236.419 169.214C240.037 169.214 242.969 166.281 242.969 162.664L242.969 77.5108C242.969 73.8932 240.037 70.9606 236.419 70.9606C232.802 70.9606 229.869 73.8932 229.869 77.5108L229.869 123.362ZM236.419 286.026C240.037 286.026 242.969 283.093 242.969 279.476V194.323C242.969 190.705 240.037 187.773 236.419 187.773C232.802 187.773 229.869 190.705 229.869 194.323V279.476C229.869 283.093 232.802 286.026 236.419 286.026Z" fill="#49CBC2"/>
</g>
<mask id="mask1_5_404" style="mask-type:luminance" maskUnits="userSpaceOnUse" x="0" y="0" width="250" height="250">
<circle cx="125" cy="125" r="125" fill="white"/>
</mask>
<g mask="url(#mask1_5_404)">
<path fill-rule="evenodd" clip-rule="evenodd" d="M98.8647 -120.087C98.8647 -116.47 101.797 -113.537 105.415 -113.537C109.033 -113.537 111.965 -116.47 111.965 -120.087V-205.24C111.965 -208.858 109.033 -211.791 105.415 -211.791C101.797 -211.791 98.8647 -208.858 98.8647 -205.24V-120.087ZM98.8647 -0.000137329C98.8647 3.61745 101.797 6.55008 105.415 6.55008C109.033 6.55008 111.965 3.61745 111.965 -0.000137329V-42.5766L111.971 -42.5763C112.114 -46.0675 114.989 -48.8539 118.515 -48.8539C122.042 -48.8539 124.917 -46.0675 125.06 -42.5763L125.066 -42.5766V44.7597C125.066 48.3773 127.998 51.3099 131.616 51.3099C135.233 51.3099 138.166 48.3773 138.166 44.7597V-95.5242C138.166 -99.1417 135.233 -102.074 131.616 -102.074C127.998 -102.074 125.066 -99.1417 125.066 -95.5242V-68.7774C125.066 -65.1598 122.133 -62.2272 118.515 -62.2272C114.898 -62.2272 111.965 -65.1598 111.965 -68.7774L111.965 -85.153C111.965 -88.7706 109.033 -91.7032 105.415 -91.7032C101.797 -91.7032 98.8647 -88.7706 98.8647 -85.153V-0.000137329ZM151.267 -111.9C151.267 -108.282 154.199 -105.349 157.817 -105.349C161.434 -105.349 164.367 -108.282 164.367 -111.9V-151.747C164.367 -155.364 161.434 -158.297 157.817 -158.297C154.199 -158.297 151.267 -155.364 151.267 -151.747V-111.9ZM151.267 44.7597C151.267 48.3773 154.199 51.3099 157.817 51.3099C161.434 51.3099 164.367 48.3773 164.367 44.7597V4.91252C164.367 1.29494 161.434 -1.6377 157.817 -1.6377C154.199 -1.6377 151.267 1.29494 151.267 4.91252V44.7597ZM157.817 188.865C154.199 188.865 151.267 185.932 151.267 182.314V91.7029C151.267 88.0854 154.199 85.1527 157.817 85.1527C161.434 85.1527 164.367 88.0854 164.367 91.7029L164.367 182.314C164.367 185.932 161.434 188.865 157.817 188.865ZM111.965 85.1527C111.965 88.7703 114.898 91.7029 118.515 91.7029C122.133 91.7029 125.066 88.7703 125.066 85.1527V80.2401C125.066 76.6225 127.998 73.6898 131.616 73.6898C135.233 73.6898 138.166 76.6225 138.166 80.2401L138.166 220.524C138.166 224.141 135.233 227.074 131.616 227.074C127.998 227.074 125.066 224.141 125.066 220.524V111.354L125.06 111.354C124.917 107.863 122.042 105.076 118.515 105.076C114.989 105.076 112.114 107.863 111.971 111.354L111.965 111.354L111.965 124.454C111.965 128.072 109.033 131.004 105.415 131.004C101.797 131.004 98.8647 128.072 98.8647 124.454L98.8647 39.3012C98.8647 35.6836 101.797 32.751 105.415 32.751C109.033 32.751 111.965 35.6836 111.965 39.3012V85.1527ZM105.415 247.816C101.797 247.816 98.8647 244.884 98.8647 241.266V156.113C98.8647 152.496 101.797 149.563 105.415 149.563C109.033 149.563 111.965 152.496 111.965 156.113V241.266C111.965 244.884 109.033 247.816 105.415 247.816Z" fill="#50DECD"/>
</g>
<mask id="mask2_5_404" style="mask-type:luminance" maskUnits="userSpaceOnUse" x="0" y="0" width="250" height="250">
<circle cx="125" cy="125" r="125" fill="white"/>
</mask>
<g mask="url(#mask2_5_404)">
<path fill-rule="evenodd" clip-rule="evenodd" d="M85.7646 -138.101C85.7646 -134.483 82.832 -131.55 79.2144 -131.55C75.5968 -131.55 72.6642 -134.483 72.6642 -138.101V-223.253C72.6642 -226.871 75.5968 -229.804 79.2144 -229.804C82.832 -229.804 85.7646 -226.871 85.7646 -223.253V-138.101ZM85.7646 -18.0132C85.7646 -14.3956 82.832 -11.463 79.2144 -11.463C75.5968 -11.463 72.6642 -14.3956 72.6642 -18.0132V-60.5897L72.6586 -60.5894C72.5157 -64.0806 69.6402 -66.8669 66.114 -66.8669C62.5878 -66.8669 59.7123 -64.0806 59.5693 -60.5894L59.5638 -60.5897V26.7466C59.5638 30.3642 56.6311 33.2968 53.0136 33.2968C49.396 33.2968 46.4633 30.3642 46.4633 26.7466L46.4633 -113.537C46.4633 -117.155 49.396 -120.087 53.0136 -120.087C56.6311 -120.087 59.5638 -117.155 59.5638 -113.537V-86.7905C59.5638 -83.1729 62.4964 -80.2403 66.114 -80.2403C69.7316 -80.2403 72.6642 -83.1729 72.6642 -86.7905L72.6642 -103.166C72.6642 -106.784 75.5968 -109.716 79.2144 -109.716C82.832 -109.716 85.7646 -106.784 85.7646 -103.166V-18.0132ZM33.3628 -129.913C33.3628 -126.295 30.4302 -123.363 26.8126 -123.363C23.195 -123.363 20.2624 -126.295 20.2624 -129.913V-169.76C20.2624 -173.378 23.195 -176.31 26.8126 -176.31C30.4302 -176.31 33.3628 -173.378 33.3628 -169.76V-129.913ZM33.3628 26.7466C33.3628 30.3642 30.4302 33.2968 26.8126 33.2968C23.195 33.2968 20.2624 30.3642 20.2624 26.7466V-13.1006C20.2624 -16.7182 23.195 -19.6508 26.8126 -19.6508C30.4302 -19.6508 33.3628 -16.7182 33.3628 -13.1006V26.7466ZM26.8126 170.851C30.4302 170.851 33.3628 167.919 33.3628 164.301L33.3628 73.6898C33.3628 70.0723 30.4302 67.1396 26.8126 67.1396C23.195 67.1396 20.2624 70.0723 20.2624 73.6898L20.2624 164.301C20.2624 167.919 23.195 170.851 26.8126 170.851ZM72.6642 67.1396C72.6642 70.7572 69.7316 73.6898 66.114 73.6898C62.4964 73.6898 59.5638 70.7572 59.5638 67.1396V62.2269C59.5638 58.6093 56.6311 55.6767 53.0136 55.6767C49.396 55.6767 46.4633 58.6093 46.4633 62.2269L46.4633 202.511C46.4633 206.128 49.396 209.061 53.0136 209.061C56.6311 209.061 59.5638 206.128 59.5638 202.511L59.5638 93.3405L59.5693 93.3407C59.7123 89.8496 62.5878 87.0632 66.114 87.0632C69.6402 87.0632 72.5157 89.8496 72.6586 93.3407L72.6642 93.3405L72.6642 106.441C72.6642 110.059 75.5968 112.991 79.2144 112.991C82.832 112.991 85.7646 110.059 85.7646 106.441L85.7646 21.2881C85.7646 17.6705 82.832 14.7379 79.2144 14.7379C75.5968 14.7379 72.6642 17.6705 72.6642 21.2881V67.1396ZM79.2144 229.803C82.832 229.803 85.7646 226.871 85.7646 223.253V138.1C85.7646 134.483 82.832 131.55 79.2144 131.55C75.5968 131.55 72.6642 134.483 72.6642 138.1V223.253C72.6642 226.871 75.5968 229.803 79.2144 229.803Z" fill="#77FFF5"/>
</g>
<mask id="mask3_5_404" style="mask-type:luminance" maskUnits="userSpaceOnUse" x="0" y="0" width="250" height="250">
<circle cx="125" cy="125" r="125" fill="white"/>
</mask>
<g mask="url(#mask3_5_404)">
<rect opacity="0.0775757" x="125" width="125" height="250" fill="black"/>
</g>
</svg>
