<svg width="250" height="250" viewBox="0 0 250 250" fill="none" xmlns="http://www.w3.org/2000/svg">
<circle cx="125" cy="125" r="125" fill="#497EFA"/>
<mask id="mask0_5_365" style="mask-type:luminance" maskUnits="userSpaceOnUse" x="0" y="0" width="250" height="250">
<circle cx="125" cy="125" r="125" fill="white"/>
</mask>
<g mask="url(#mask0_5_365)">
<path fill-rule="evenodd" clip-rule="evenodd" d="M8.43197 92.2222C12.1139 92.2222 15.0986 95.2069 15.0986 98.8888C15.0986 102.571 12.1139 105.556 8.43197 105.556H-78.2347C-81.9166 105.556 -84.9014 102.571 -84.9014 98.8888C-84.9014 95.2069 -81.9166 92.2222 -78.2347 92.2222H8.43197ZM130.654 92.2222C134.336 92.2222 137.321 95.2069 137.321 98.8888C137.321 102.571 134.336 105.556 130.654 105.556H87.3207L87.3209 105.561C83.7677 105.707 80.9318 108.633 80.9318 112.222C80.9318 115.811 83.7677 118.738 87.3209 118.883L87.3207 118.889H176.21C179.891 118.889 182.876 121.874 182.876 125.556C182.876 129.237 179.891 132.222 176.21 132.222H33.4318C29.7499 132.222 26.7651 129.237 26.7651 125.556C26.7651 121.874 29.7499 118.889 33.4318 118.889H60.654C64.3359 118.889 67.3207 115.904 67.3207 112.222C67.3207 108.54 64.3359 105.556 60.654 105.556H43.9874C40.3055 105.556 37.3207 102.571 37.3207 98.8888C37.3207 95.2069 40.3055 92.2222 43.9874 92.2222H130.654ZM16.7652 145.556C20.4471 145.556 23.4319 148.54 23.4319 152.222C23.4319 155.904 20.4471 158.889 16.7652 158.889H-23.7904C-27.4723 158.889 -30.457 155.904 -30.457 152.222C-30.457 148.54 -27.4723 145.556 -23.7904 145.556H16.7652ZM176.21 145.556C179.891 145.556 182.876 148.54 182.876 152.222C182.876 155.904 179.891 158.889 176.21 158.889H135.654C131.972 158.889 128.987 155.904 128.987 152.222C128.987 148.54 131.972 145.556 135.654 145.556H176.21ZM322.876 152.222C322.876 148.54 319.892 145.556 316.21 145.556H223.987C220.306 145.556 217.321 148.54 217.321 152.222C217.321 155.904 220.306 158.889 223.987 158.889H316.21C319.892 158.889 322.876 155.904 322.876 152.222ZM217.321 105.556C221.003 105.556 223.987 108.54 223.987 112.222C223.987 115.904 221.003 118.889 217.321 118.889H212.321C208.639 118.889 205.654 121.874 205.654 125.556C205.654 129.237 208.639 132.222 212.321 132.222H355.098C358.78 132.222 361.765 129.237 361.765 125.556C361.765 121.874 358.78 118.889 355.098 118.889H243.987L243.988 118.883C240.434 118.738 237.598 115.811 237.598 112.222C237.598 108.633 240.434 105.707 243.988 105.561L243.987 105.556H257.321C261.003 105.556 263.987 102.571 263.987 98.8888C263.987 95.2069 261.003 92.2222 257.321 92.2222H170.654C166.972 92.2222 163.987 95.2069 163.987 98.8888C163.987 102.571 166.972 105.556 170.654 105.556H217.321ZM382.876 98.8888C382.876 95.2069 379.891 92.2222 376.21 92.2222H289.543C285.861 92.2222 282.876 95.2069 282.876 98.8888C282.876 102.571 285.861 105.556 289.543 105.556H376.21C379.891 105.556 382.876 102.571 382.876 98.8888Z" fill="#356CEE"/>
</g>
<mask id="mask1_5_365" style="mask-type:luminance" maskUnits="userSpaceOnUse" x="0" y="0" width="250" height="250">
<circle cx="125" cy="125" r="125" fill="white"/>
</mask>
<g mask="url(#mask1_5_365)">
<path opacity="0.4" fill-rule="evenodd" clip-rule="evenodd" d="M8.43197 12.2222C12.1139 12.2222 15.0986 15.2069 15.0986 18.8888C15.0986 22.5707 12.1139 25.5555 8.43197 25.5555H-78.2347C-81.9166 25.5555 -84.9014 22.5707 -84.9014 18.8888C-84.9014 15.2069 -81.9166 12.2222 -78.2347 12.2222H8.43197ZM130.654 12.2222C134.336 12.2222 137.321 15.2069 137.321 18.8888C137.321 22.5707 134.336 25.5555 130.654 25.5555H87.3207L87.3209 25.5612C83.7677 25.7067 80.9318 28.6332 80.9318 32.2222C80.9318 35.8111 83.7677 38.7376 87.3209 38.8832L87.3207 38.8888H176.21C179.891 38.8888 182.876 41.8736 182.876 45.5555C182.876 49.2374 179.891 52.2222 176.21 52.2222H33.4318C29.7499 52.2222 26.7651 49.2374 26.7651 45.5555C26.7651 41.8736 29.7499 38.8888 33.4318 38.8888H60.654C64.3359 38.8888 67.3207 35.9041 67.3207 32.2222C67.3207 28.5403 64.3359 25.5555 60.654 25.5555H43.9874C40.3055 25.5555 37.3207 22.5707 37.3207 18.8888C37.3207 15.2069 40.3055 12.2222 43.9874 12.2222H130.654ZM16.7652 65.5556C20.4471 65.5556 23.4319 68.5403 23.4319 72.2222C23.4319 75.9041 20.4471 78.8889 16.7652 78.8889H-23.7904C-27.4723 78.8889 -30.457 75.9041 -30.457 72.2222C-30.457 68.5403 -27.4723 65.5556 -23.7904 65.5556H16.7652ZM176.21 65.5556C179.891 65.5556 182.876 68.5403 182.876 72.2222C182.876 75.9041 179.891 78.8889 176.21 78.8889H135.654C131.972 78.8889 128.987 75.9041 128.987 72.2222C128.987 68.5403 131.972 65.5556 135.654 65.5556H176.21ZM322.876 72.2222C322.876 68.5403 319.892 65.5556 316.21 65.5556H223.987C220.306 65.5556 217.321 68.5403 217.321 72.2222C217.321 75.9041 220.306 78.8889 223.987 78.8889H316.21C319.892 78.8889 322.876 75.9041 322.876 72.2222ZM217.321 25.5555C221.003 25.5555 223.987 28.5403 223.987 32.2222C223.987 35.9041 221.003 38.8888 217.321 38.8888H212.321C208.639 38.8888 205.654 41.8736 205.654 45.5555C205.654 49.2374 208.639 52.2222 212.321 52.2222H355.098C358.78 52.2222 361.765 49.2374 361.765 45.5555C361.765 41.8736 358.78 38.8888 355.098 38.8888H243.987L243.988 38.8832C240.434 38.7376 237.598 35.8111 237.598 32.2222C237.598 28.6332 240.434 25.7067 243.988 25.5612L243.987 25.5555H257.321C261.003 25.5555 263.987 22.5707 263.987 18.8888C263.987 15.2069 261.003 12.2222 257.321 12.2222H170.654C166.972 12.2222 163.987 15.2069 163.987 18.8888C163.987 22.5707 166.972 25.5555 170.654 25.5555H217.321ZM382.876 18.8888C382.876 15.2069 379.891 12.2222 376.21 12.2222H289.543C285.861 12.2222 282.876 15.2069 282.876 18.8888C282.876 22.5707 285.861 25.5555 289.543 25.5555H376.21C379.891 25.5555 382.876 22.5707 382.876 18.8888Z" fill="#356CEE"/>
</g>
<mask id="mask2_5_365" style="mask-type:luminance" maskUnits="userSpaceOnUse" x="0" y="0" width="250" height="250">
<circle cx="125" cy="125" r="125" fill="white"/>
</mask>
<g mask="url(#mask2_5_365)">
<path opacity="0.4" fill-rule="evenodd" clip-rule="evenodd" d="M8.43197 185.556C12.1139 185.556 15.0986 188.54 15.0986 192.222C15.0986 195.904 12.1139 198.889 8.43197 198.889H-78.2347C-81.9166 198.889 -84.9014 195.904 -84.9014 192.222C-84.9014 188.54 -81.9166 185.556 -78.2347 185.556H8.43197ZM130.654 185.556C134.336 185.556 137.321 188.54 137.321 192.222C137.321 195.904 134.336 198.889 130.654 198.889H87.3207L87.3209 198.895C83.7677 199.04 80.9318 201.967 80.9318 205.556C80.9318 209.145 83.7677 212.071 87.3209 212.217L87.3207 212.222H176.21C179.891 212.222 182.876 215.207 182.876 218.889C182.876 222.571 179.891 225.556 176.21 225.556H33.4318C29.7499 225.556 26.7651 222.571 26.7651 218.889C26.7651 215.207 29.7499 212.222 33.4318 212.222H60.654C64.3359 212.222 67.3207 209.238 67.3207 205.556C67.3207 201.874 64.3359 198.889 60.654 198.889H43.9874C40.3055 198.889 37.3207 195.904 37.3207 192.222C37.3207 188.54 40.3055 185.556 43.9874 185.556H130.654ZM16.7652 238.889C20.4471 238.889 23.4319 241.874 23.4319 245.556C23.4319 249.237 20.4471 252.222 16.7652 252.222H-23.7904C-27.4723 252.222 -30.457 249.237 -30.457 245.556C-30.457 241.874 -27.4723 238.889 -23.7904 238.889H16.7652ZM176.21 238.889C179.891 238.889 182.876 241.874 182.876 245.556C182.876 249.237 179.891 252.222 176.21 252.222H135.654C131.972 252.222 128.987 249.237 128.987 245.556C128.987 241.874 131.972 238.889 135.654 238.889H176.21ZM322.876 245.556C322.876 241.874 319.892 238.889 316.21 238.889H223.987C220.306 238.889 217.321 241.874 217.321 245.556C217.321 249.237 220.306 252.222 223.987 252.222H316.21C319.892 252.222 322.876 249.237 322.876 245.556ZM217.321 198.889C221.003 198.889 223.987 201.874 223.987 205.556C223.987 209.238 221.003 212.222 217.321 212.222H212.321C208.639 212.222 205.654 215.207 205.654 218.889C205.654 222.571 208.639 225.556 212.321 225.556H355.098C358.78 225.556 361.765 222.571 361.765 218.889C361.765 215.207 358.78 212.222 355.098 212.222H243.987L243.988 212.217C240.434 212.071 237.598 209.145 237.598 205.556C237.598 201.967 240.434 199.04 243.988 198.895L243.987 198.889H257.321C261.003 198.889 263.987 195.904 263.987 192.222C263.987 188.54 261.003 185.556 257.321 185.556H170.654C166.972 185.556 163.987 188.54 163.987 192.222C163.987 195.904 166.972 198.889 170.654 198.889H217.321ZM382.876 192.222C382.876 188.54 379.891 185.556 376.21 185.556H289.543C285.861 185.556 282.876 188.54 282.876 192.222C282.876 195.904 285.861 198.889 289.543 198.889H376.21C379.891 198.889 382.876 195.904 382.876 192.222Z" fill="#356CEE"/>
</g>
<mask id="mask3_5_365" style="mask-type:luminance" maskUnits="userSpaceOnUse" x="0" y="0" width="250" height="250">
<circle cx="125" cy="125" r="125" fill="white"/>
</mask>
<g mask="url(#mask3_5_365)">
<path d="M82.3205 152.222C82.3205 148.54 79.3358 145.556 75.6539 145.556H65.0983C61.4164 145.556 58.4316 142.571 58.4316 138.889C58.4316 135.207 61.4164 132.222 65.0983 132.222H108.987C112.669 132.222 115.654 135.207 115.654 138.889C115.654 142.571 112.669 145.556 108.987 145.556H107.321L107.321 145.561C103.768 145.707 100.932 148.633 100.932 152.222C100.932 155.811 103.768 158.737 107.321 158.883L107.321 158.889H108.987C112.669 158.889 115.654 161.874 115.654 165.556C115.654 169.237 112.669 172.222 108.987 172.222H75.0983C71.4164 172.222 68.4316 169.237 68.4316 165.556C68.4316 161.874 71.4164 158.889 75.0983 158.889H75.6539C79.3358 158.889 82.3205 155.904 82.3205 152.222Z" fill="#2255CA"/>
</g>
<mask id="mask4_5_365" style="mask-type:luminance" maskUnits="userSpaceOnUse" x="0" y="0" width="250" height="250">
<circle cx="125" cy="125" r="125" fill="white"/>
</mask>
<g mask="url(#mask4_5_365)">
<rect opacity="0.0775757" x="125" y="6.11108" width="119.641" height="237.778" fill="black"/>
</g>
</svg>
