<svg width="1150" height="729" viewBox="0 0 1150 729" fill="none" xmlns="http://www.w3.org/2000/svg">
<rect width="1150" height="729" fill="#000040" fill-opacity="0.02"/>
<circle cx="35" cy="40" r="2" fill="#D9D9D9"/>
<circle cx="35" cy="40" r="3" fill="#D9D9D9" fill-opacity="0.67"/>
<circle cx="150" cy="148" r="2" fill="#D9D9D9"/>
<circle cx="150" cy="148" r="3" fill="#D9D9D9" fill-opacity="0.67"/>
<circle cx="207" cy="113" r="2" fill="#D9D9D9"/>
<circle cx="207" cy="113" r="3" fill="#D9D9D9" fill-opacity="0.67"/>
<circle cx="279" cy="234" r="2" fill="#D9D9D9"/>
<circle cx="279" cy="234" r="3" fill="#D9D9D9" fill-opacity="0.67"/>
<circle cx="335" cy="148" r="2" fill="#D9D9D9"/>
<circle cx="335" cy="148" r="3" fill="#D9D9D9" fill-opacity="0.67"/>
<circle cx="314" cy="102" r="2" fill="#D9D9D9"/>
<circle cx="314" cy="102" r="3" fill="#D9D9D9" fill-opacity="0.67"/>
<circle cx="106" cy="274" r="2" fill="#D9D9D9"/>
<circle cx="106" cy="274" r="3" fill="#D9D9D9" fill-opacity="0.67"/>
<circle cx="335" cy="318" r="2" fill="#D9D9D9"/>
<circle cx="335" cy="318" r="3" fill="#D9D9D9" fill-opacity="0.67"/>
<circle cx="317" cy="486" r="2" fill="#D9D9D9"/>
<circle cx="317" cy="486" r="3" fill="#D9D9D9" fill-opacity="0.67"/>
<circle cx="628" cy="548" r="2" fill="#D9D9D9"/>
<circle cx="628" cy="548" r="3" fill="#D9D9D9" fill-opacity="0.67"/>
<circle cx="174" cy="667" r="2" fill="#D9D9D9"/>
<circle cx="174" cy="667" r="3" fill="#D9D9D9" fill-opacity="0.67"/>
<circle cx="71" cy="571" r="2" fill="#D9D9D9"/>
<circle cx="71" cy="571" r="3" fill="#D9D9D9" fill-opacity="0.67"/>
<circle cx="71" cy="571" r="2" fill="#D9D9D9"/>
<circle cx="71" cy="571" r="3" fill="#D9D9D9" fill-opacity="0.67"/>
<circle cx="896" cy="673" r="2" fill="#D9D9D9"/>
<circle cx="896" cy="673" r="3" fill="#D9D9D9" fill-opacity="0.67"/>
<circle cx="443" cy="211" r="2" fill="#D9D9D9"/>
<circle cx="443" cy="211" r="3" fill="#D9D9D9" fill-opacity="0.67"/>
<circle cx="985" cy="77" r="2" fill="#D9D9D9"/>
<circle cx="985" cy="77" r="3" fill="#D9D9D9" fill-opacity="0.67"/>
<circle cx="821" cy="56" r="2" fill="#D9D9D9"/>
<circle cx="821" cy="56" r="3" fill="#D9D9D9" fill-opacity="0.67"/>
<circle cx="1077" cy="331" r="2" fill="#D9D9D9"/>
<circle cx="1077" cy="331" r="3" fill="#D9D9D9" fill-opacity="0.67"/>
<circle cx="1072" cy="547" r="2" fill="#D9D9D9"/>
<circle cx="1072" cy="547" r="3" fill="#D9D9D9" fill-opacity="0.67"/>
<circle cx="1003" cy="668" r="2" fill="#D9D9D9"/>
<circle cx="1003" cy="668" r="3" fill="#D9D9D9" fill-opacity="0.67"/>
<circle cx="805" cy="480" r="2" fill="#D9D9D9"/>
<circle cx="805" cy="480" r="3" fill="#D9D9D9" fill-opacity="0.67"/>
<circle cx="650" cy="661" r="2" fill="#D9D9D9"/>
<circle cx="650" cy="661" r="3" fill="#D9D9D9" fill-opacity="0.67"/>
<circle cx="545" cy="609" r="2" fill="#D9D9D9"/>
<circle cx="545" cy="609" r="3" fill="#D9D9D9" fill-opacity="0.67"/>
<circle cx="545" cy="609" r="2" fill="#D9D9D9"/>
<circle cx="545" cy="609" r="3" fill="#D9D9D9" fill-opacity="0.67"/>
<circle cx="213" cy="668" r="2" fill="#D9D9D9"/>
<circle cx="213" cy="668" r="3" fill="#D9D9D9" fill-opacity="0.67"/>
<circle cx="569" cy="417" r="2" fill="#D9D9D9"/>
<circle cx="569" cy="417" r="3" fill="#D9D9D9" fill-opacity="0.67"/>
<circle cx="136" cy="437" r="2" fill="#D9D9D9"/>
<circle cx="136" cy="437" r="3" fill="#D9D9D9" fill-opacity="0.67"/>
<circle cx="197" cy="333" r="2" fill="#D9D9D9"/>
<circle cx="197" cy="333" r="3" fill="#D9D9D9" fill-opacity="0.67"/>
<circle cx="465" cy="524" r="2" fill="#D9D9D9"/>
<circle cx="465" cy="524" r="3" fill="#D9D9D9" fill-opacity="0.67"/>
<circle cx="704" cy="211" r="2" fill="#D9D9D9"/>
<circle cx="704" cy="211" r="3" fill="#D9D9D9" fill-opacity="0.67"/>
<circle cx="760" cy="411" r="2" fill="#D9D9D9"/>
<circle cx="760" cy="411" r="3" fill="#D9D9D9" fill-opacity="0.67"/>
<circle cx="568" cy="80" r="2" fill="#D9D9D9"/>
<circle cx="568" cy="80" r="3" fill="#D9D9D9" fill-opacity="0.67"/>
<circle cx="991" cy="389" r="2" fill="#D9D9D9"/>
<circle cx="991" cy="389" r="3" fill="#D9D9D9" fill-opacity="0.67"/>
<circle cx="854" cy="604" r="2" fill="#D9D9D9"/>
<circle cx="854" cy="604" r="3" fill="#D9D9D9" fill-opacity="0.67"/>
<circle cx="997" cy="553" r="2" fill="#D9D9D9"/>
<circle cx="997" cy="553" r="3" fill="#D9D9D9" fill-opacity="0.67"/>
<circle cx="1071" cy="119" r="2" fill="#D9D9D9"/>
<circle cx="1071" cy="119" r="3" fill="#D9D9D9" fill-opacity="0.67"/>
<circle cx="1071" cy="119" r="2" fill="#D9D9D9"/>
<circle cx="1071" cy="119" r="3" fill="#D9D9D9" fill-opacity="0.67"/>
</svg>
