<svg width="300" height="300" viewBox="0 0 300 300" fill="none" xmlns="http://www.w3.org/2000/svg">
<circle cx="150" cy="150" r="150" fill="#545BFE"/>
<mask id="mask0_308_49" style="mask-type:luminance" maskUnits="userSpaceOnUse" x="0" y="0" width="300" height="300">
<circle cx="150" cy="150" r="150" fill="white"/>
</mask>
<g mask="url(#mask0_308_49)">
<path fill-rule="evenodd" clip-rule="evenodd" d="M125.333 18C125.333 13.5817 121.751 10 117.333 10H-19.3335C-23.7518 10 -27.3335 13.5817 -27.3335 18C-27.3335 22.4183 -23.7518 26 -19.3335 26H12.6665C17.0848 26 20.6665 29.5817 20.6665 34C20.6665 38.4183 17.0848 42 12.6665 42H8.6665C4.24823 42 0.666504 45.5817 0.666504 50C0.666504 54.4183 4.24823 58 8.6665 58H5.99984C10.4181 58 13.9998 61.5817 13.9998 66C13.9998 70.4183 10.4181 74 5.99984 74H-0.666828C-5.08511 74 -8.66683 77.5817 -8.66683 82C-8.66683 86.4183 -5.08511 90 -0.666828 90H78.6665C83.0848 90 86.6665 86.4183 86.6665 82C86.6665 77.5817 83.0848 74 78.6665 74H75.3332L75.3332 73.9932C71.0696 73.8183 67.6667 70.3066 67.6667 66C67.6667 61.6934 71.0696 58.1817 75.3332 58.0068L75.3332 58H121.333C125.751 58 129.333 54.4183 129.333 50C129.333 45.5817 125.751 42 121.333 42H116.667L116.667 41.9932C112.403 41.8183 109 38.3066 109 34C109 29.6934 112.403 26.1817 116.667 26.0068L116.667 26H117.333C121.751 26 125.333 22.4183 125.333 18ZM65.3335 106C69.7518 106 73.3335 109.582 73.3335 114C73.3335 118.418 69.7518 122 65.3335 122C60.9152 122 57.3335 118.418 57.3335 114C57.3335 109.582 60.9152 106 65.3335 106ZM40.6668 130C40.6668 125.582 37.0851 122 32.6668 122H9.3335C4.91522 122 1.3335 125.582 1.3335 130C1.3335 134.418 4.91522 138 9.3335 138H32.6668C37.0851 138 40.6668 134.418 40.6668 130ZM97.3332 226C97.3332 230.418 93.7514 234 89.3332 234H92.6665C88.2482 234 84.6665 237.582 84.6665 242C84.6665 246.418 88.2482 250 92.6665 250H112C116.418 250 120 246.418 120 242C120 237.582 116.418 234 112 234H114.667V233.993C110.403 233.818 107 230.307 107 226C107 221.693 110.403 218.182 114.667 218.007V218H132.667C137.085 218 140.667 214.418 140.667 210C140.667 205.582 137.085 202 132.667 202L132.667 201.993C128.403 201.818 125 198.307 125 194C125 189.693 128.403 186.182 132.667 186.007L132.667 186H136.667C141.085 186 144.667 182.418 144.667 178C144.667 173.582 141.085 170 136.667 170H102.667V169.993C98.4029 169.818 95 166.307 95 162C95 157.693 98.4029 154.182 102.667 154.007V154H101.333C105.751 154 109.333 150.418 109.333 146C109.333 141.582 105.751 138 101.333 138H68.6665C64.2482 138 60.6665 141.582 60.6665 146C60.6665 150.418 64.2482 154 68.6665 154C73.0848 154 76.6665 157.582 76.6665 162C76.6665 166.418 73.0848 170 68.6665 170C64.2482 170 60.6665 173.582 60.6665 178C60.6665 182.418 64.2482 186 68.6665 186H75.3332C79.7514 186 83.3332 189.582 83.3332 194C83.3332 198.418 79.7514 202 75.3332 202H76.6665C72.2482 202 68.6665 205.582 68.6665 210C68.6665 214.418 72.2482 218 76.6665 218H89.3332C93.7514 218 97.3332 221.582 97.3332 226Z" fill="#4FCDF9"/>
</g>
<mask id="mask1_308_49" style="mask-type:luminance" maskUnits="userSpaceOnUse" x="0" y="0" width="300" height="300">
<circle cx="150" cy="150" r="150" fill="white"/>
</mask>
<g mask="url(#mask1_308_49)">
<path fill-rule="evenodd" clip-rule="evenodd" d="M281.333 34C281.333 29.5817 277.752 26 273.333 26H257.333C252.915 26 249.333 29.5817 249.333 34C249.333 38.4183 252.915 42 257.333 42H273.333C277.752 42 281.333 38.4183 281.333 34ZM440 42C444.418 42 448 45.5817 448 50C448 54.4183 444.418 58 440 58H435.333L435.334 58.0068C431.07 58.1817 427.667 61.6934 427.667 66C427.667 70.3066 431.07 73.8183 435.334 73.9932L435.333 74H446C450.418 74 454 77.5817 454 82C454 86.4183 450.418 90 446 90H330C325.582 90 322 86.4183 322 82C322 77.5817 325.582 74 330 74H326.667C331.085 74 334.667 70.4183 334.667 66C334.667 61.5817 331.085 58 326.667 58H299.333C294.915 58 291.333 54.4183 291.333 50C291.333 45.5817 294.915 42 299.333 42H440ZM260 218C264.418 218 268 214.418 268 210C268 205.582 264.418 202 260 202C255.582 202 252 198.418 252 194C252 189.582 255.582 186 260 186H258C262.418 186 266 182.418 266 178C266 173.582 262.418 170 258 170H228C223.582 170 220 166.418 220 162C220 157.582 223.582 154 228 154C232.418 154 236 150.418 236 146C236 141.582 232.418 138 228 138H205.333C200.915 138 197.333 134.418 197.333 130C197.333 125.582 200.915 122 205.333 122H222.667C227.085 122 230.667 118.418 230.667 114C230.667 109.582 227.085 106 222.667 106C218.249 106 214.667 102.418 214.667 98C214.667 93.5817 218.249 90 222.667 90H260C264.418 90 268 93.5817 268 98C268 102.418 264.418 106 260 106L259.999 106.007C255.736 106.182 252.334 109.694 252.334 114C252.334 118.306 255.736 121.818 259.999 121.993L260 122H320.667C325.085 122 328.667 125.582 328.667 130C328.667 134.418 325.085 138 320.667 138H307.333L307.334 138.007C303.07 138.182 299.667 141.693 299.667 146C299.667 150.307 303.07 153.818 307.334 153.993L307.333 154H314C318.418 154 322 157.582 322 162C322 166.418 318.418 170 314 170H304L303.999 170.007C299.736 170.182 296.334 173.694 296.334 178C296.334 182.306 299.736 185.818 303.999 185.993L304 186H302.667C307.085 186 310.667 189.582 310.667 194C310.667 198.418 307.085 202 302.667 202H289.333L289.334 202.007C285.07 202.182 281.667 205.693 281.667 210C281.667 214.307 285.07 217.818 289.334 217.993L289.333 218H286.667C291.085 218 294.667 221.582 294.667 226C294.667 230.418 291.085 234 286.667 234H262.667C258.249 234 254.667 230.418 254.667 226C254.667 221.582 258.249 218 262.667 218H260ZM320 202C324.418 202 328 205.582 328 210C328 214.418 324.418 218 320 218C315.582 218 312 214.418 312 210C312 205.582 315.582 202 320 202ZM316 98C316 93.5817 312.418 90 308 90H298.667C294.248 90 290.667 93.5817 290.667 98C290.667 102.418 294.248 106 298.667 106H308C312.418 106 316 102.418 316 98ZM247.333 66C247.333 61.5817 243.752 58 239.333 58H223.333C218.915 58 215.333 61.5817 215.333 66C215.333 70.4183 218.915 74 223.333 74H239.333C243.752 74 247.333 70.4183 247.333 66ZM264.667 58C269.085 58 272.667 61.5817 272.667 66C272.667 70.4183 269.085 74 264.667 74H262.667C258.248 74 254.667 70.4183 254.667 66C254.667 61.5817 258.248 58 262.667 58H264.667Z" fill="#4FCDF9"/>
</g>
<mask id="mask2_308_49" style="mask-type:luminance" maskUnits="userSpaceOnUse" x="0" y="0" width="300" height="300">
<circle cx="150" cy="150" r="150" fill="white"/>
</mask>
<g mask="url(#mask2_308_49)">
<path fill-rule="evenodd" clip-rule="evenodd" d="M204.666 34C204.666 29.5817 201.085 26 196.666 26H116.667C112.248 26 108.667 22.4183 108.667 18C108.667 13.5817 112.248 10 116.667 10H149.333C153.751 10 157.333 6.41828 157.333 2C157.333 -2.41828 153.751 -6 149.333 -6H138.667C134.248 -6 130.667 -9.58172 130.667 -14C130.667 -18.4183 134.248 -22 138.667 -22H180C184.418 -22 188 -18.4183 188 -14C188 -9.58172 184.418 -6 180 -6H181.333L181.333 -5.99319C177.07 -5.81857 173.666 -2.3067 173.666 2C173.666 6.3067 177.07 9.81857 181.333 9.99319L181.333 10H288C292.418 10 296 13.5817 296 18C296 22.4183 292.418 26 288 26H242.666L242.666 26.0069C238.403 26.182 235 29.6937 235 34C235 38.3063 238.403 41.818 242.666 41.9931L242.666 42H244.666C249.085 42 252.666 45.5817 252.666 50C252.666 54.4183 249.085 58 244.666 58H194C189.582 58 186 54.4183 186 50C186 45.5817 189.582 42 194 42H196.666C201.085 42 204.666 38.4183 204.666 34ZM275.333 74C279.752 74 283.333 77.5817 283.333 82C283.333 86.4183 279.752 90 275.333 90H234C229.582 90 226 86.4183 226 82C226 77.5817 229.582 74 234 74H275.333ZM298 50C298 45.5817 294.418 42 290 42H276.667C272.248 42 268.667 45.5817 268.667 50C268.667 54.4183 272.248 58 276.667 58H290C294.418 58 298 54.4183 298 50ZM162 42C166.418 42 170 45.5817 170 50C170 54.4183 166.418 58 162 58H148.667C144.248 58 140.667 54.4183 140.667 50C140.667 45.5817 144.248 42 148.667 42H162ZM324 -14C324 -18.4183 320.418 -22 316 -22H212C207.582 -22 204 -18.4183 204 -14C204 -9.58172 207.582 -6 212 -6H316C320.418 -6 324 -9.58172 324 -14Z" fill="white"/>
</g>
<mask id="mask3_308_49" style="mask-type:luminance" maskUnits="userSpaceOnUse" x="0" y="0" width="300" height="300">
<circle cx="150" cy="150" r="150" fill="white"/>
</mask>
<g mask="url(#mask3_308_49)">
<path fill-rule="evenodd" clip-rule="evenodd" d="M56.6668 234C61.0851 234 64.6668 237.582 64.6668 242C64.6668 246.418 61.0851 250 56.6668 250H54.0002C49.5819 250 46.0002 253.582 46.0002 258C46.0002 262.418 49.5819 266 54.0002 266H104.667C109.085 266 112.667 262.418 112.667 258C112.667 253.582 109.085 250 104.667 250H102.667L102.666 249.993C98.4029 249.818 95.0003 246.306 95.0003 242C95.0003 237.694 98.4029 234.182 102.666 234.007L102.667 234H120C124.418 234 128 230.418 128 226C128 221.582 124.418 218 120 218H110.667L110.667 217.993C106.403 217.819 103 214.307 103 210C103 205.693 106.403 202.181 110.667 202.007L110.667 202H142C146.418 202 150 198.418 150 194C150 189.582 146.418 186 142 186H63.3335C58.9152 186 55.3335 189.582 55.3335 194C55.3335 198.418 58.9152 202 63.3335 202H78.6668C83.0851 202 86.6668 205.582 86.6668 210C86.6668 214.418 83.0851 218 78.6668 218H11.3335C6.91522 218 3.3335 221.582 3.3335 226C3.3335 230.418 6.91522 234 11.3335 234H56.6668ZM173.333 226C173.333 221.582 169.752 218 165.333 218H152C147.582 218 144 221.582 144 226C144 230.418 147.582 234 152 234H165.333C169.752 234 173.333 230.418 173.333 226Z" fill="white"/>
</g>
<mask id="mask4_308_49" style="mask-type:luminance" maskUnits="userSpaceOnUse" x="0" y="0" width="300" height="300">
<circle cx="150" cy="150" r="150" fill="white"/>
</mask>
<g mask="url(#mask4_308_49)">
<path fill-rule="evenodd" clip-rule="evenodd" d="M224.667 298C229.085 298 232.667 301.582 232.667 306C232.667 310.418 229.085 314 224.667 314H222C217.582 314 214 317.582 214 322C214 326.418 217.582 330 222 330H272.667C277.085 330 280.667 326.418 280.667 322C280.667 317.582 277.085 314 272.667 314H270.667L270.666 313.993C266.403 313.818 263 310.306 263 306C263 301.694 266.403 298.182 270.666 298.007L270.667 298H288C292.418 298 296 294.418 296 290C296 285.582 292.418 282 288 282H278.667L278.667 281.993C274.403 281.819 271 278.307 271 274C271 269.693 274.403 266.181 278.667 266.007L278.667 266H310C314.418 266 318 262.418 318 258C318 253.582 314.418 250 310 250H231.333C226.915 250 223.333 253.582 223.333 258C223.333 262.418 226.915 266 231.333 266H246.667C251.085 266 254.667 269.582 254.667 274C254.667 278.418 251.085 282 246.667 282H179.333C174.915 282 171.333 285.582 171.333 290C171.333 294.418 174.915 298 179.333 298H224.667ZM341.333 290C341.333 285.582 337.752 282 333.333 282H320C315.582 282 312 285.582 312 290C312 294.418 315.582 298 320 298H333.333C337.752 298 341.333 294.418 341.333 290Z" fill="white"/>
</g>
<mask id="mask5_308_49" style="mask-type:luminance" maskUnits="userSpaceOnUse" x="0" y="0" width="300" height="300">
<circle cx="150" cy="150" r="150" fill="white"/>
</mask>
<g mask="url(#mask5_308_49)">
<rect opacity="0.0775757" x="150.322" y="-16.6666" width="166.989" height="333.333" fill="black"/>
</g>
</svg>
