<svg width="300" height="300" viewBox="0 0 300 300" fill="none" xmlns="http://www.w3.org/2000/svg">
<circle cx="150" cy="150" r="150" fill="#ECAD7A"/>
<mask id="mask0_308_117" style="mask-type:luminance" maskUnits="userSpaceOnUse" x="0" y="0" width="300" height="300">
<circle cx="150" cy="150" r="150" fill="white"/>
</mask>
<g mask="url(#mask0_308_117)">
<path fill-rule="evenodd" clip-rule="evenodd" d="M19.5877 151.546C23.0039 151.546 25.7733 154.316 25.7733 157.732C25.7733 161.148 23.0039 163.918 19.5877 163.918H-60.8247C-64.2409 163.918 -67.0103 161.148 -67.0103 157.732C-67.0103 154.316 -64.2409 151.546 -60.8247 151.546H19.5877ZM132.99 151.546C136.406 151.546 139.175 154.316 139.175 157.732C139.175 161.148 136.406 163.918 132.99 163.918H92.7835L92.7837 163.923C89.4869 164.058 86.8557 166.773 86.8557 170.103C86.8557 173.433 89.4869 176.148 92.7837 176.283L92.7835 176.289H175.258C178.674 176.289 181.443 179.058 181.443 182.474C181.443 185.89 178.674 188.66 175.258 188.66H42.7835C39.3673 188.66 36.5979 185.89 36.5979 182.474C36.5979 179.058 39.3673 176.289 42.7835 176.289H68.0412C71.4574 176.289 74.2268 173.519 74.2268 170.103C74.2268 166.687 71.4574 163.918 68.0412 163.918H52.5773C49.1611 163.918 46.3918 161.148 46.3918 157.732C46.3918 154.316 49.1611 151.546 52.5773 151.546H132.99ZM27.3198 201.031C30.736 201.031 33.5054 203.8 33.5054 207.216C33.5054 210.633 30.736 213.402 27.3198 213.402H-10.3091C-13.7253 213.402 -16.4946 210.633 -16.4946 207.216C-16.4946 203.8 -13.7253 201.031 -10.3091 201.031H27.3198ZM175.258 201.031C178.674 201.031 181.443 203.8 181.443 207.216C181.443 210.633 178.674 213.402 175.258 213.402H137.629C134.213 213.402 131.443 210.633 131.443 207.216C131.443 203.8 134.213 201.031 137.629 201.031H175.258ZM311.34 207.216C311.34 203.8 308.571 201.031 305.154 201.031H219.587C216.171 201.031 213.402 203.8 213.402 207.216C213.402 210.633 216.171 213.402 219.587 213.402H305.154C308.571 213.402 311.34 210.633 311.34 207.216ZM213.402 163.918C216.818 163.918 219.588 166.687 219.588 170.103C219.588 173.519 216.818 176.289 213.402 176.289H208.763C205.347 176.289 202.577 179.058 202.577 182.474C202.577 185.89 205.347 188.66 208.763 188.66H341.237C344.653 188.66 347.423 185.89 347.423 182.474C347.423 179.058 344.653 176.289 341.237 176.289H238.144L238.145 176.283C234.848 176.148 232.216 173.433 232.216 170.103C232.216 166.773 234.848 164.058 238.145 163.923L238.144 163.918H250.515C253.932 163.918 256.701 161.148 256.701 157.732C256.701 154.316 253.932 151.546 250.515 151.546H170.103C166.687 151.546 163.918 154.316 163.918 157.732C163.918 161.148 166.687 163.918 170.103 163.918H213.402ZM367.01 157.732C367.01 154.316 364.241 151.546 360.824 151.546H280.412C276.996 151.546 274.227 154.316 274.227 157.732C274.227 161.148 276.996 163.918 280.412 163.918H360.824C364.241 163.918 367.01 161.148 367.01 157.732Z" fill="#F0D29F"/>
</g>
<mask id="mask1_308_117" style="mask-type:luminance" maskUnits="userSpaceOnUse" x="0" y="0" width="300" height="300">
<circle cx="150" cy="150" r="150" fill="white"/>
</mask>
<g mask="url(#mask1_308_117)">
<path d="M81.9587 207.216C81.9587 203.8 79.1894 201.031 75.7732 201.031H60.8247C57.4085 201.031 54.6392 198.262 54.6392 194.845C54.6392 191.429 57.4085 188.66 60.8247 188.66H112.887C116.303 188.66 119.072 191.429 119.072 194.845C119.072 198.262 116.303 201.031 112.887 201.031H111.34L111.34 201.036C108.043 201.172 105.412 203.887 105.412 207.216C105.412 210.546 108.043 213.261 111.34 213.397L111.34 213.402H112.887C116.303 213.402 119.072 216.171 119.072 219.588C119.072 223.004 116.303 225.773 112.887 225.773H73.7113C70.2951 225.773 67.5258 223.004 67.5258 219.588C67.5258 216.171 70.2951 213.402 73.7113 213.402H75.7732C79.1894 213.402 81.9587 210.633 81.9587 207.216Z" fill="#D86534"/>
</g>
<mask id="mask2_308_117" style="mask-type:luminance" maskUnits="userSpaceOnUse" x="0" y="0" width="300" height="300">
<circle cx="150" cy="150" r="150" fill="white"/>
</mask>
<g mask="url(#mask2_308_117)">
<path fill-rule="evenodd" clip-rule="evenodd" d="M240.206 27.8351C236.79 27.8351 234.021 30.6045 234.021 34.0206C234.021 37.4368 236.79 40.2062 240.206 40.2062H320.619C324.035 40.2062 326.804 37.4368 326.804 34.0206C326.804 30.6045 324.035 27.8351 320.619 27.8351H240.206ZM126.804 27.8351C123.388 27.8351 120.619 30.6045 120.619 34.0207C120.619 37.4368 123.388 40.2062 126.804 40.2062H167.01L167.01 40.2115C170.307 40.3465 172.938 43.0619 172.938 46.3918C172.938 49.7217 170.307 52.4371 167.01 52.5721L167.01 52.5774H84.5361C81.1199 52.5774 78.3505 55.3467 78.3505 58.7629C78.3505 62.1791 81.1199 64.9485 84.5361 64.9485H217.01C220.427 64.9485 223.196 62.1791 223.196 58.7629C223.196 55.3467 220.427 52.5774 217.01 52.5774H191.753C188.336 52.5774 185.567 49.808 185.567 46.3918C185.567 42.9756 188.336 40.2062 191.753 40.2062H207.216C210.633 40.2062 213.402 37.4368 213.402 34.0207C213.402 30.6045 210.633 27.8351 207.216 27.8351H126.804ZM232.474 77.3196C229.058 77.3196 226.289 80.089 226.289 83.5052C226.289 86.9213 229.058 89.6907 232.474 89.6907H270.103C273.519 89.6907 276.289 86.9213 276.289 83.5052C276.289 80.089 273.519 77.3196 270.103 77.3196H232.474ZM84.5361 77.3196C81.12 77.3196 78.3506 80.089 78.3506 83.5052C78.3506 86.9213 81.12 89.6907 84.5361 89.6907H122.165C125.581 89.6907 128.351 86.9213 128.351 83.5052C128.351 80.089 125.581 77.3196 122.165 77.3196H84.5361ZM-51.5465 83.5052C-51.5465 80.089 -48.7772 77.3196 -45.361 77.3196H40.206C43.6222 77.3196 46.3916 80.089 46.3916 83.5052C46.3916 86.9213 43.6222 89.6907 40.206 89.6907H-45.361C-48.7772 89.6907 -51.5465 86.9213 -51.5465 83.5052ZM46.3918 40.2062C42.9756 40.2062 40.2062 42.9756 40.2062 46.3918C40.2062 49.808 42.9756 52.5774 46.3918 52.5774H51.0309C54.4471 52.5774 57.2165 55.3467 57.2165 58.7629C57.2165 62.1791 54.4471 64.9485 51.0309 64.9485H-81.4433C-84.8595 64.9485 -87.6289 62.1791 -87.6289 58.7629C-87.6289 55.3467 -84.8595 52.5774 -81.4433 52.5774H21.6495L21.6493 52.5721C24.946 52.4371 27.5773 49.7217 27.5773 46.3918C27.5773 43.0619 24.946 40.3465 21.6493 40.2115L21.6495 40.2062H9.27835C5.86215 40.2062 3.09277 37.4368 3.09277 34.0207C3.09277 30.6045 5.86215 27.8351 9.27835 27.8351H89.6907C93.1069 27.8351 95.8763 30.6045 95.8763 34.0207C95.8763 37.4368 93.1069 40.2062 89.6907 40.2062H46.3918ZM-107.216 34.0206C-107.216 30.6045 -104.447 27.8351 -101.031 27.8351H-20.6186C-17.2024 27.8351 -14.433 30.6045 -14.433 34.0206C-14.433 37.4368 -17.2024 40.2062 -20.6186 40.2062H-101.031C-104.447 40.2062 -107.216 37.4368 -107.216 34.0206Z" fill="#DC8E61"/>
</g>
<mask id="mask3_308_117" style="mask-type:luminance" maskUnits="userSpaceOnUse" x="0" y="0" width="300" height="300">
<circle cx="150" cy="150" r="150" fill="white"/>
</mask>
<g mask="url(#mask3_308_117)">
<path fill-rule="evenodd" clip-rule="evenodd" d="M321.65 225.773C318.233 225.773 315.464 228.543 315.464 231.959C315.464 235.375 318.233 238.144 321.65 238.144H402.062C405.478 238.144 408.248 235.375 408.248 231.959C408.248 228.543 405.478 225.773 402.062 225.773H321.65ZM208.247 225.773C204.831 225.773 202.062 228.543 202.062 231.959C202.062 235.375 204.831 238.144 208.247 238.144H248.454L248.453 238.15C251.75 238.285 254.381 241 254.381 244.33C254.381 247.66 251.75 250.375 248.453 250.51L248.454 250.515H165.979C162.563 250.515 159.794 253.285 159.794 256.701C159.794 260.117 162.563 262.887 165.979 262.887H298.454C301.87 262.887 304.639 260.117 304.639 256.701C304.639 253.285 301.87 250.515 298.454 250.515H273.196C269.78 250.515 267.01 247.746 267.01 244.33C267.01 240.914 269.78 238.144 273.196 238.144H288.66C292.076 238.144 294.845 235.375 294.845 231.959C294.845 228.543 292.076 225.773 288.66 225.773H208.247ZM313.918 275.258C310.501 275.258 307.732 278.027 307.732 281.443C307.732 284.859 310.501 287.629 313.918 287.629H351.546C354.963 287.629 357.732 284.859 357.732 281.443C357.732 278.027 354.963 275.258 351.546 275.258H313.918ZM165.98 275.258C162.563 275.258 159.794 278.027 159.794 281.443C159.794 284.859 162.563 287.629 165.98 287.629H203.608C207.025 287.629 209.794 284.859 209.794 281.443C209.794 278.027 207.025 275.258 203.608 275.258H165.98ZM29.8968 281.443C29.8968 278.027 32.6662 275.258 36.0824 275.258H121.649C125.066 275.258 127.835 278.027 127.835 281.443C127.835 284.859 125.066 287.629 121.649 287.629H36.0824C32.6662 287.629 29.8968 284.859 29.8968 281.443ZM127.835 238.144C124.419 238.144 121.649 240.914 121.649 244.33C121.649 247.746 124.419 250.515 127.835 250.515H132.474C135.89 250.515 138.66 253.285 138.66 256.701C138.66 260.117 135.89 262.887 132.474 262.887H-0.000274658C-3.41644 262.887 -6.18582 260.117 -6.18582 256.701C-6.18582 253.285 -3.41644 250.515 -0.000274658 250.515H103.093L103.092 250.51C106.389 250.375 109.02 247.66 109.02 244.33C109.02 241 106.389 238.285 103.092 238.15L103.093 238.144H90.7214C87.3052 238.144 84.5358 235.375 84.5358 231.959C84.5358 228.543 87.3052 225.773 90.7214 225.773H171.134C174.55 225.773 177.319 228.543 177.319 231.959C177.319 235.375 174.55 238.144 171.134 238.144H127.835ZM-25.7732 231.959C-25.7732 228.543 -23.0038 225.773 -19.5876 225.773H60.8247C64.2409 225.773 67.0103 228.543 67.0103 231.959C67.0103 235.375 64.2409 238.144 60.8247 238.144H-19.5876C-23.0038 238.144 -25.7732 235.375 -25.7732 231.959Z" fill="#D89D6D"/>
</g>
<mask id="mask4_308_117" style="mask-type:luminance" maskUnits="userSpaceOnUse" x="0" y="0" width="300" height="300">
<circle cx="150" cy="150" r="150" fill="white"/>
</mask>
<g mask="url(#mask4_308_117)">
<path fill-rule="evenodd" clip-rule="evenodd" d="M91.2371 114.433C94.6533 114.433 97.4227 117.202 97.4227 120.619C97.4227 124.035 94.6533 126.804 91.2371 126.804H86.0825C82.6663 126.804 79.8969 129.574 79.8969 132.99C79.8969 136.406 82.6663 139.175 86.0825 139.175H131.959C135.375 139.175 138.144 136.406 138.144 132.99C138.144 129.574 135.375 126.804 131.959 126.804H126.804L126.804 126.799C123.507 126.663 120.876 123.948 120.876 120.619C120.876 117.289 123.507 114.574 126.804 114.438L126.804 114.433H160.309C163.725 114.433 166.495 111.664 166.495 108.247C166.495 104.831 163.725 102.062 160.309 102.062H57.732C54.3158 102.062 51.5464 104.831 51.5464 108.247C51.5464 111.664 54.3158 114.433 57.732 114.433H91.2371ZM67.5257 132.99C67.5257 129.573 64.7563 126.804 61.3401 126.804H29.3814C25.9652 126.804 23.1958 129.573 23.1958 132.99C23.1958 136.406 25.9652 139.175 29.3814 139.175H61.3401C64.7563 139.175 67.5257 136.406 67.5257 132.99ZM4.63906 126.804C8.05526 126.804 10.8246 129.573 10.8246 132.99C10.8246 136.406 8.05526 139.175 4.63906 139.175H-9.79393C-13.2101 139.175 -15.9795 136.406 -15.9795 132.99C-15.9795 129.573 -13.2101 126.804 -9.79393 126.804H4.63906ZM249.485 132.99C249.485 129.573 246.715 126.804 243.299 126.804H156.701C153.285 126.804 150.516 129.573 150.516 132.99C150.516 136.406 153.285 139.175 156.701 139.175H243.299C246.715 139.175 249.485 136.406 249.485 132.99ZM282.474 126.804C285.89 126.804 288.66 129.573 288.66 132.99C288.66 136.406 285.89 139.175 282.474 139.175H268.041C264.625 139.175 261.855 136.406 261.855 132.99C261.855 129.573 264.625 126.804 268.041 126.804H282.474ZM264.433 108.247C264.433 104.831 261.664 102.062 258.247 102.062H185.052C181.635 102.062 178.866 104.831 178.866 108.247C178.866 111.664 181.635 114.433 185.052 114.433H258.247C261.664 114.433 264.433 111.664 264.433 108.247ZM308.763 102.062C312.179 102.062 314.948 104.831 314.948 108.247C314.948 111.664 312.179 114.433 308.763 114.433H282.99C279.574 114.433 276.804 111.664 276.804 108.247C276.804 104.831 279.574 102.062 282.99 102.062H308.763ZM26.8041 108.247C26.8041 104.831 24.0347 102.062 20.6186 102.062H6.18557C2.76937 102.062 0 104.831 0 108.247C0 111.664 2.76937 114.433 6.18557 114.433H20.6186C24.0347 114.433 26.8041 111.664 26.8041 108.247Z" fill="#D89D6D"/>
</g>
<mask id="mask5_308_117" style="mask-type:luminance" maskUnits="userSpaceOnUse" x="0" y="0" width="300" height="300">
<circle cx="150" cy="150" r="150" fill="white"/>
</mask>
<g mask="url(#mask5_308_117)">
<rect opacity="0.0775757" x="150" width="150.515" height="300" fill="black"/>
</g>
</svg>
