<svg width="300" height="300" viewBox="0 0 300 300" fill="none" xmlns="http://www.w3.org/2000/svg">
<circle cx="150" cy="150" r="150" fill="#FF6A45"/>
<mask id="mask0_308_91" style="mask-type:luminance" maskUnits="userSpaceOnUse" x="0" y="0" width="300" height="300">
<circle cx="150" cy="150" r="150" fill="white"/>
</mask>
<g mask="url(#mask0_308_91)">
<path fill-rule="evenodd" clip-rule="evenodd" d="M80.3574 21.4286C86.2747 21.4286 91.0716 26.2255 91.0716 32.1429C91.0716 38.0602 86.2747 42.8571 80.3574 42.8571H36.6074C30.69 42.8571 25.8931 47.6541 25.8931 53.5714C25.8931 59.4888 30.69 64.2857 36.6074 64.2857H150C155.918 64.2857 160.714 59.4888 160.714 53.5714C160.714 47.6541 155.918 42.8571 150 42.8571H138.393L138.392 42.848C132.682 42.6133 128.125 37.9103 128.125 32.1429C128.125 26.3754 132.682 21.6724 138.392 21.4377L138.393 21.4286H188.393C194.31 21.4286 199.107 16.6316 199.107 10.7143C199.107 4.79695 194.31 0 188.393 0H49.1074C43.19 0 38.3931 4.79695 38.3931 10.7143C38.3931 16.6316 43.19 21.4286 49.1074 21.4286H80.3574ZM255.357 53.5714C255.357 47.6541 250.56 42.8571 244.643 42.8571H240.179C234.261 42.8571 229.464 47.6541 229.464 53.5714C229.464 59.4888 234.261 64.2857 240.179 64.2857H244.643C250.56 64.2857 255.357 59.4888 255.357 53.5714Z" fill="#FF9B6B"/>
</g>
<mask id="mask1_308_91" style="mask-type:luminance" maskUnits="userSpaceOnUse" x="0" y="0" width="300" height="300">
<circle cx="150" cy="150" r="150" fill="white"/>
</mask>
<g mask="url(#mask1_308_91)">
<path fill-rule="evenodd" clip-rule="evenodd" d="M175.893 278.571C181.81 278.571 186.607 283.368 186.607 289.286C186.607 295.203 181.81 300 175.893 300H132.143C126.226 300 121.429 304.797 121.429 310.714C121.429 316.632 126.226 321.429 132.143 321.429H245.536C251.453 321.429 256.25 316.632 256.25 310.714C256.25 304.797 251.453 300 245.536 300H233.929L233.928 299.991C228.218 299.756 223.661 295.053 223.661 289.286C223.661 283.518 228.218 278.815 233.928 278.581L233.929 278.571H283.929C289.846 278.571 294.643 273.774 294.643 267.857C294.643 261.94 289.846 257.143 283.929 257.143H144.643C138.726 257.143 133.929 261.94 133.929 267.857C133.929 273.774 138.726 278.571 144.643 278.571H175.893ZM350.893 310.714C350.893 304.797 346.096 300 340.179 300H335.714C329.797 300 325 304.797 325 310.714C325 316.632 329.797 321.429 335.714 321.429H340.179C346.096 321.429 350.893 316.632 350.893 310.714Z" fill="#FF9B6B"/>
</g>
<mask id="mask2_308_91" style="mask-type:luminance" maskUnits="userSpaceOnUse" x="0" y="0" width="300" height="300">
<circle cx="150" cy="150" r="150" fill="white"/>
</mask>
<g mask="url(#mask2_308_91)">
<path fill-rule="evenodd" clip-rule="evenodd" d="M124.107 64.2858C130.024 64.2858 134.821 69.0827 134.821 75.0001C134.821 80.9174 130.024 85.7143 124.107 85.7143H88.3929C82.4755 85.7143 77.6786 80.9174 77.6786 75.0001C77.6786 69.0827 82.4755 64.2858 88.3929 64.2858H124.107ZM234.821 150C240.739 150 245.536 154.797 245.536 160.714C245.536 166.632 240.739 171.429 234.821 171.429H99.9999L99.999 171.438C94.2893 171.672 89.7323 176.375 89.7323 182.143C89.7323 187.91 94.2893 192.613 99.999 192.848L99.9999 192.857H116.964C122.882 192.857 127.678 197.654 127.678 203.571C127.678 209.489 122.882 214.286 116.964 214.286H9.82136C3.90402 214.286 -0.892927 209.489 -0.892927 203.571C-0.892927 197.654 3.90402 192.857 9.82136 192.857H38.3928C44.3101 192.857 49.1071 188.06 49.1071 182.143C49.1071 176.226 44.3101 171.429 38.3928 171.429H-18.7501C-24.6674 171.429 -29.4644 166.632 -29.4644 160.714C-29.4644 154.797 -24.6674 150 -18.7501 150H234.821ZM100 246.429C100 240.511 95.2031 235.714 89.2858 235.714H71.4286C65.5113 235.714 60.7144 240.511 60.7144 246.429C60.7144 252.346 65.5113 257.143 71.4286 257.143H89.2858C95.2031 257.143 100 252.346 100 246.429ZM204.464 246.429C204.464 240.511 199.667 235.714 193.75 235.714H138.393C132.476 235.714 127.679 240.511 127.679 246.429C127.679 252.346 132.476 257.143 138.393 257.143H193.75C199.667 257.143 204.464 252.346 204.464 246.429ZM199.107 203.571C199.107 197.654 194.31 192.857 188.393 192.857H170.536C164.618 192.857 159.821 197.654 159.821 203.571C159.821 209.489 164.618 214.286 170.536 214.286H188.393C194.31 214.286 199.107 209.489 199.107 203.571ZM321.429 75.0001C321.429 69.0827 316.632 64.2858 310.714 64.2858H275C269.083 64.2858 264.286 69.0827 264.286 75.0001C264.286 80.9174 269.083 85.7143 275 85.7143H310.714C316.632 85.7143 321.429 80.9174 321.429 75.0001Z" fill="#D04237"/>
</g>
<mask id="mask3_308_91" style="mask-type:luminance" maskUnits="userSpaceOnUse" x="0" y="0" width="300" height="300">
<circle cx="150" cy="150" r="150" fill="white"/>
</mask>
<g mask="url(#mask3_308_91)">
<rect opacity="0.0775757" x="150.893" y="-14.2858" width="164.286" height="328.571" fill="black"/>
</g>
</svg>
