<svg width="300" height="300" viewBox="0 0 300 300" fill="none" xmlns="http://www.w3.org/2000/svg">
<circle cx="150" cy="150" r="150" fill="#DEF4FC"/>
<mask id="mask0_308_2" style="mask-type:luminance" maskUnits="userSpaceOnUse" x="0" y="0" width="300" height="300">
<circle cx="150" cy="150" r="150" fill="white"/>
</mask>
<g mask="url(#mask0_308_2)">
<path fill-rule="evenodd" clip-rule="evenodd" d="M265.862 25.862C265.862 19.0061 260.304 13.4482 253.448 13.4482H193.448C186.592 13.4482 181.034 19.0061 181.034 25.862C181.034 32.718 186.592 38.2758 193.448 38.2758H253.448C260.304 38.2758 265.862 32.718 265.862 25.862ZM75.5173 137.586C82.3733 137.586 87.9311 143.144 87.9311 150C87.9311 156.856 82.3733 162.414 75.5173 162.414H72.4139C65.5579 162.414 60.0001 167.972 60.0001 174.828C60.0001 181.684 65.5579 187.241 72.4139 187.241H200.69C207.546 187.241 213.104 181.684 213.104 174.828C213.104 167.972 207.546 162.414 200.69 162.414H146.897L146.896 162.403C140.28 162.131 135 156.682 135 150C135 143.318 140.28 137.869 146.896 137.597L146.897 137.586H148.966C155.822 137.586 161.379 132.028 161.379 125.172C161.379 118.316 155.822 112.759 148.966 112.759H102.414L102.414 112.748C95.798 112.477 90.5173 107.028 90.5173 100.345C90.5173 93.662 95.798 88.2126 102.414 87.9416L102.414 87.931H123.104C129.959 87.931 135.517 82.3732 135.517 75.5172C135.517 68.6613 129.959 63.1034 123.104 63.1034H47.5863C40.7304 63.1034 35.1725 68.6613 35.1725 75.5172C35.1725 82.3732 40.7304 87.931 47.5863 87.931H52.7587C59.6147 87.931 65.1725 93.4889 65.1725 100.345C65.1725 107.201 59.6147 112.759 52.7587 112.759H2.06907C-4.78688 112.759 -10.3447 118.316 -10.3447 125.172C-10.3447 132.028 -4.78688 137.586 2.06907 137.586H75.5173ZM134.483 212.069C141.339 212.069 146.896 217.627 146.896 224.483C146.896 231.339 141.339 236.897 134.483 236.897C127.627 236.897 122.069 231.339 122.069 224.483C122.069 217.627 127.627 212.069 134.483 212.069ZM260.69 224.483C260.69 217.627 255.132 212.069 248.276 212.069H184.138C177.282 212.069 171.724 217.627 171.724 224.483C171.724 231.339 177.282 236.897 184.138 236.897H248.276C255.132 236.897 260.69 231.339 260.69 224.483ZM171.724 274.138C171.724 267.282 166.166 261.724 159.31 261.724H138.621C131.765 261.724 126.207 267.282 126.207 274.138C126.207 280.994 131.765 286.552 138.621 286.552H159.31C166.166 286.552 171.724 280.994 171.724 274.138ZM253.448 162.414C260.304 162.414 265.862 167.972 265.862 174.828C265.862 181.684 260.304 187.241 253.448 187.241C246.592 187.241 241.034 181.684 241.034 174.828C241.034 167.972 246.592 162.414 253.448 162.414ZM35.1725 174.828C35.1725 167.972 29.6147 162.414 22.7587 162.414H2.06907C-4.78688 162.414 -10.3447 167.972 -10.3447 174.828C-10.3447 181.684 -4.78688 187.241 2.06907 187.241H22.7587C29.6147 187.241 35.1725 181.684 35.1725 174.828ZM228.621 63.1034C235.477 63.1034 241.035 68.6613 241.035 75.5172C241.035 82.3732 235.477 87.931 228.621 87.931H207.931C201.075 87.931 195.517 82.3732 195.517 75.5172C195.517 68.6613 201.075 63.1034 207.931 63.1034H228.621Z" fill="#B1D5E2"/>
</g>
<mask id="mask1_308_2" style="mask-type:luminance" maskUnits="userSpaceOnUse" x="0" y="0" width="300" height="300">
<circle cx="150" cy="150" r="150" fill="white"/>
</mask>
<g mask="url(#mask1_308_2)">
<rect opacity="0.0775757" x="151.034" width="150" height="300" fill="black"/>
</g>
</svg>
