<svg width="300" height="300" viewBox="0 0 300 300" fill="none" xmlns="http://www.w3.org/2000/svg">
<circle cx="150" cy="150" r="150" fill="#497EFA"/>
<mask id="mask0_308_241" style="mask-type:luminance" maskUnits="userSpaceOnUse" x="0" y="0" width="300" height="300">
<circle cx="150" cy="150" r="150" fill="white"/>
</mask>
<g mask="url(#mask0_308_241)">
<path fill-rule="evenodd" clip-rule="evenodd" d="M10.1172 110.667C14.5355 110.667 18.1172 114.248 18.1172 118.667C18.1172 123.085 14.5355 126.667 10.1172 126.667H-93.8828C-98.3011 126.667 -101.883 123.085 -101.883 118.667C-101.883 114.248 -98.3011 110.667 -93.8828 110.667H10.1172ZM156.784 110.667C161.202 110.667 164.784 114.248 164.784 118.667C164.784 123.085 161.202 126.667 156.784 126.667H104.784L104.784 126.673C100.52 126.848 97.1172 130.36 97.1172 134.667C97.1172 138.973 100.52 142.485 104.784 142.66L104.784 142.667H211.451C215.869 142.667 219.451 146.248 219.451 150.667C219.451 155.085 215.869 158.667 211.451 158.667H40.1172C35.6989 158.667 32.1172 155.085 32.1172 150.667C32.1172 146.248 35.6989 142.667 40.1172 142.667H72.7839C77.2021 142.667 80.7838 139.085 80.7838 134.667C80.7838 130.248 77.2021 126.667 72.7839 126.667H52.7839C48.3656 126.667 44.7839 123.085 44.7839 118.667C44.7839 114.248 48.3656 110.667 52.7839 110.667H156.784ZM20.1169 174.667C24.5351 174.667 28.1169 178.248 28.1169 182.667C28.1169 187.085 24.5351 190.667 20.1169 190.667H-28.5498C-32.9681 190.667 -36.5498 187.085 -36.5498 182.667C-36.5498 178.248 -32.9681 174.667 -28.5498 174.667H20.1169ZM211.451 174.667C215.869 174.667 219.451 178.248 219.451 182.667C219.451 187.085 215.869 190.667 211.451 190.667H162.784C158.366 190.667 154.784 187.085 154.784 182.667C154.784 178.248 158.366 174.667 162.784 174.667H211.451ZM387.451 182.667C387.451 178.248 383.869 174.667 379.451 174.667H268.784C264.366 174.667 260.784 178.248 260.784 182.667C260.784 187.085 264.366 190.667 268.784 190.667H379.451C383.869 190.667 387.451 187.085 387.451 182.667ZM260.784 126.667C265.202 126.667 268.784 130.248 268.784 134.667C268.784 139.085 265.202 142.667 260.784 142.667H254.784C250.366 142.667 246.784 146.248 246.784 150.667C246.784 155.085 250.366 158.667 254.784 158.667H426.117C430.536 158.667 434.117 155.085 434.117 150.667C434.117 146.248 430.536 142.667 426.117 142.667H292.784L292.784 142.66C288.521 142.485 285.117 138.973 285.117 134.667C285.117 130.36 288.521 126.848 292.784 126.673L292.784 126.667H308.784C313.202 126.667 316.784 123.085 316.784 118.667C316.784 114.248 313.202 110.667 308.784 110.667H204.784C200.366 110.667 196.784 114.248 196.784 118.667C196.784 123.085 200.366 126.667 204.784 126.667H260.784ZM459.45 118.667C459.45 114.248 455.868 110.667 451.45 110.667H347.45C343.032 110.667 339.45 114.248 339.45 118.667C339.45 123.085 343.032 126.667 347.45 126.667H451.45C455.868 126.667 459.45 123.085 459.45 118.667Z" fill="#356CEE"/>
</g>
<mask id="mask1_308_241" style="mask-type:luminance" maskUnits="userSpaceOnUse" x="0" y="0" width="300" height="300">
<circle cx="150" cy="150" r="150" fill="white"/>
</mask>
<g mask="url(#mask1_308_241)">
<path opacity="0.4" fill-rule="evenodd" clip-rule="evenodd" d="M10.1172 14.6666C14.5355 14.6666 18.1172 18.2483 18.1172 22.6666C18.1172 27.0849 14.5355 30.6666 10.1172 30.6666H-93.8828C-98.3011 30.6666 -101.883 27.0849 -101.883 22.6666C-101.883 18.2483 -98.3011 14.6666 -93.8828 14.6666H10.1172ZM156.784 14.6666C161.202 14.6666 164.784 18.2483 164.784 22.6666C164.784 27.0849 161.202 30.6666 156.784 30.6666H104.784L104.784 30.6734C100.52 30.8481 97.1172 34.3599 97.1172 38.6666C97.1172 42.9733 100.52 46.4852 104.784 46.6598L104.784 46.6666H211.451C215.869 46.6666 219.451 50.2483 219.451 54.6666C219.451 59.0849 215.869 62.6666 211.451 62.6666H40.1172C35.6989 62.6666 32.1172 59.0849 32.1172 54.6666C32.1172 50.2483 35.6989 46.6666 40.1172 46.6666H72.7839C77.2021 46.6666 80.7838 43.0849 80.7838 38.6666C80.7838 34.2483 77.2021 30.6666 72.7839 30.6666H52.7839C48.3656 30.6666 44.7839 27.0849 44.7839 22.6666C44.7839 18.2483 48.3656 14.6666 52.7839 14.6666H156.784ZM20.1169 78.6667C24.5351 78.6667 28.1169 82.2484 28.1169 86.6667C28.1169 91.0849 24.5351 94.6667 20.1169 94.6667H-28.5498C-32.9681 94.6667 -36.5498 91.0849 -36.5498 86.6667C-36.5498 82.2484 -32.9681 78.6667 -28.5498 78.6667H20.1169ZM211.451 78.6667C215.869 78.6667 219.451 82.2484 219.451 86.6667C219.451 91.0849 215.869 94.6667 211.451 94.6667H162.784C158.366 94.6667 154.784 91.0849 154.784 86.6667C154.784 82.2484 158.366 78.6667 162.784 78.6667H211.451ZM387.451 86.6667C387.451 82.2484 383.869 78.6667 379.451 78.6667H268.784C264.366 78.6667 260.784 82.2484 260.784 86.6667C260.784 91.0849 264.366 94.6667 268.784 94.6667H379.451C383.869 94.6667 387.451 91.0849 387.451 86.6667ZM260.784 30.6667C265.202 30.6667 268.784 34.2484 268.784 38.6667C268.784 43.0849 265.202 46.6667 260.784 46.6667H254.784C250.366 46.6667 246.784 50.2484 246.784 54.6667C246.784 59.0849 250.366 62.6667 254.784 62.6667H426.117C430.536 62.6667 434.117 59.0849 434.117 54.6667C434.117 50.2484 430.536 46.6667 426.117 46.6667H292.784L292.784 46.6599C288.521 46.4852 285.117 42.9734 285.117 38.6667C285.117 34.36 288.521 30.8481 292.784 30.6735L292.784 30.6667H308.784C313.202 30.6667 316.784 27.0849 316.784 22.6667C316.784 18.2484 313.202 14.6667 308.784 14.6667H204.784C200.366 14.6667 196.784 18.2484 196.784 22.6667C196.784 27.0849 200.366 30.6667 204.784 30.6667H260.784ZM459.45 22.6667C459.45 18.2484 455.868 14.6667 451.45 14.6667H347.45C343.032 14.6667 339.45 18.2484 339.45 22.6667C339.45 27.0849 343.032 30.6667 347.45 30.6667H451.45C455.868 30.6667 459.45 27.0849 459.45 22.6667Z" fill="#356CEE"/>
</g>
<mask id="mask2_308_241" style="mask-type:luminance" maskUnits="userSpaceOnUse" x="0" y="0" width="300" height="300">
<circle cx="150" cy="150" r="150" fill="white"/>
</mask>
<g mask="url(#mask2_308_241)">
<path opacity="0.4" fill-rule="evenodd" clip-rule="evenodd" d="M10.1172 222.667C14.5355 222.667 18.1172 226.248 18.1172 230.667C18.1172 235.085 14.5355 238.667 10.1172 238.667H-93.8828C-98.3011 238.667 -101.883 235.085 -101.883 230.667C-101.883 226.248 -98.3011 222.667 -93.8828 222.667H10.1172ZM156.784 222.667C161.202 222.667 164.784 226.248 164.784 230.667C164.784 235.085 161.202 238.667 156.784 238.667H104.784L104.784 238.673C100.52 238.848 97.1172 242.36 97.1172 246.667C97.1172 250.973 100.52 254.485 104.784 254.66L104.784 254.667H211.451C215.869 254.667 219.451 258.248 219.451 262.667C219.451 267.085 215.869 270.667 211.451 270.667H40.1172C35.6989 270.667 32.1172 267.085 32.1172 262.667C32.1172 258.248 35.6989 254.667 40.1172 254.667H72.7839C77.2021 254.667 80.7838 251.085 80.7838 246.667C80.7838 242.248 77.2021 238.667 72.7839 238.667H52.7839C48.3656 238.667 44.7839 235.085 44.7839 230.667C44.7839 226.248 48.3656 222.667 52.7839 222.667H156.784ZM20.1169 286.667C24.5351 286.667 28.1169 290.248 28.1169 294.667C28.1169 299.085 24.5351 302.667 20.1169 302.667H-28.5498C-32.9681 302.667 -36.5498 299.085 -36.5498 294.667C-36.5498 290.248 -32.9681 286.667 -28.5498 286.667H20.1169ZM211.451 286.667C215.869 286.667 219.451 290.248 219.451 294.667C219.451 299.085 215.869 302.667 211.451 302.667H162.784C158.366 302.667 154.784 299.085 154.784 294.667C154.784 290.248 158.366 286.667 162.784 286.667H211.451ZM387.451 294.667C387.451 290.248 383.869 286.667 379.451 286.667H268.784C264.366 286.667 260.784 290.248 260.784 294.667C260.784 299.085 264.366 302.667 268.784 302.667H379.451C383.869 302.667 387.451 299.085 387.451 294.667ZM260.784 238.667C265.202 238.667 268.784 242.248 268.784 246.667C268.784 251.085 265.202 254.667 260.784 254.667H254.784C250.366 254.667 246.784 258.248 246.784 262.667C246.784 267.085 250.366 270.667 254.784 270.667H426.117C430.536 270.667 434.117 267.085 434.117 262.667C434.117 258.248 430.536 254.667 426.117 254.667H292.784L292.784 254.66C288.521 254.485 285.117 250.973 285.117 246.667C285.117 242.36 288.521 238.848 292.784 238.673L292.784 238.667H308.784C313.202 238.667 316.784 235.085 316.784 230.667C316.784 226.248 313.202 222.667 308.784 222.667H204.784C200.366 222.667 196.784 226.248 196.784 230.667C196.784 235.085 200.366 238.667 204.784 238.667H260.784ZM459.45 230.667C459.45 226.248 455.868 222.667 451.45 222.667H347.45C343.032 222.667 339.45 226.248 339.45 230.667C339.45 235.085 343.032 238.667 347.45 238.667H451.45C455.868 238.667 459.45 235.085 459.45 230.667Z" fill="#356CEE"/>
</g>
<mask id="mask3_308_241" style="mask-type:luminance" maskUnits="userSpaceOnUse" x="0" y="0" width="300" height="300">
<circle cx="150" cy="150" r="150" fill="white"/>
</mask>
<g mask="url(#mask3_308_241)">
<path d="M98.7848 182.667C98.7848 178.248 95.2031 174.667 90.7848 174.667H78.1182C73.6999 174.667 70.1182 171.085 70.1182 166.667C70.1182 162.248 73.6999 158.667 78.1182 158.667H130.785C135.203 158.667 138.785 162.248 138.785 166.667C138.785 171.085 135.203 174.667 130.785 174.667H128.785L128.785 174.673C124.521 174.848 121.118 178.36 121.118 182.667C121.118 186.973 124.521 190.485 128.785 190.66L128.785 190.667H130.785C135.203 190.667 138.785 194.248 138.785 198.667C138.785 203.085 135.203 206.667 130.785 206.667H90.1182C85.6999 206.667 82.1182 203.085 82.1182 198.667C82.1182 194.248 85.6999 190.667 90.1182 190.667H90.7848C95.2031 190.667 98.7848 187.085 98.7848 182.667Z" fill="#2255CA"/>
</g>
<mask id="mask4_308_241" style="mask-type:luminance" maskUnits="userSpaceOnUse" x="0" y="0" width="300" height="300">
<circle cx="150" cy="150" r="150" fill="white"/>
</mask>
<g mask="url(#mask4_308_241)">
<rect opacity="0.0775757" x="150" y="7.33337" width="143.57" height="285.333" fill="black"/>
</g>
</svg>
