<svg width="601" height="601" viewBox="0 0 601 601" fill="none" xmlns="http://www.w3.org/2000/svg">
<path fill-rule="evenodd" clip-rule="evenodd" d="M50.3347 300.328C50.331 300.216 50.3291 300.105 50.3291 299.993C50.3291 272.564 162.258 250.328 300.329 250.328C438.4 250.328 550.329 272.564 550.329 299.993C550.329 300.105 550.327 300.216 550.324 300.328L509.782 300.328C509.786 300.216 509.789 300.105 509.789 299.993C509.789 277.012 416.01 258.382 300.329 258.382C184.648 258.382 90.8696 277.012 90.8696 299.993C90.8696 300.105 90.8718 300.216 90.8763 300.328L50.3347 300.328ZM100.707 300.328C100.708 278.459 189.94 260.731 300.014 260.731C410.087 260.731 499.32 278.459 499.321 300.328L484.054 300.328C484.059 300.216 484.062 300.105 484.062 299.993C484.062 279.792 401.802 263.416 300.329 263.416C198.856 263.416 116.596 279.792 116.596 299.993C116.596 300.105 116.599 300.216 116.604 300.328L100.707 300.328Z" fill="#B87D43"/>
<circle cx="303.685" cy="295.233" r="150" transform="rotate(-45 303.685 295.233)" fill="#FCCB6B"/>
<mask id="mask0_308_168" style="mask-type:luminance" maskUnits="userSpaceOnUse" x="153" y="145" width="301" height="301">
<circle cx="303.685" cy="295.233" r="150" transform="rotate(-45 303.685 295.233)" fill="white"/>
</mask>
<g mask="url(#mask0_308_168)">
<path fill-rule="evenodd" clip-rule="evenodd" d="M352.492 292.226C347.712 292.226 343.838 296.101 343.838 300.88C343.838 305.659 347.712 309.534 352.492 309.534H408.742L408.742 309.541C413.354 309.73 417.035 313.529 417.035 318.188C417.035 322.846 413.354 326.645 408.742 326.834L408.742 326.841H293.357C288.578 326.841 284.703 330.716 284.703 335.495C284.703 340.275 288.578 344.149 293.357 344.149H478.694C483.473 344.149 487.348 340.275 487.348 335.495C487.348 330.716 483.473 326.841 478.694 326.841H443.357C438.578 326.841 434.703 322.967 434.703 318.188C434.703 313.408 438.578 309.534 443.357 309.534H464.992C469.771 309.534 473.646 305.659 473.646 300.88C473.646 296.101 469.771 292.226 464.992 292.226L352.492 292.226ZM500.329 361.457C495.55 361.457 491.676 365.331 491.676 370.11C491.676 374.89 495.55 378.764 500.329 378.764H552.974C557.753 378.764 561.627 374.89 561.627 370.11C561.627 365.331 557.753 361.457 552.974 361.457H500.329ZM293.358 361.457C288.579 361.457 284.704 365.331 284.704 370.111C284.704 374.89 288.579 378.764 293.358 378.764H346.002C350.782 378.764 354.656 374.89 354.656 370.111C354.656 365.331 350.782 361.457 346.002 361.457H293.358ZM102.973 370.111C102.973 365.332 106.848 361.457 111.627 361.457H231.339C236.118 361.457 239.992 365.332 239.992 370.111C239.992 374.89 236.118 378.765 231.339 378.765H111.627C106.848 378.765 102.973 374.89 102.973 370.111ZM239.993 309.534C235.213 309.534 231.339 313.408 231.339 318.188C231.339 322.967 235.213 326.842 239.993 326.842H246.483C251.262 326.842 255.137 330.716 255.137 335.496C255.137 340.275 251.262 344.149 246.483 344.149H61.1465C56.3671 344.149 52.4927 340.275 52.4927 335.496C52.4927 330.716 56.3671 326.842 61.1465 326.842H205.377L205.377 326.834C209.989 326.645 213.671 322.847 213.671 318.188C213.671 313.529 209.989 309.73 205.377 309.541L205.377 309.534H188.07C183.29 309.534 179.416 305.66 179.416 300.88C179.416 296.101 183.29 292.226 188.07 292.226L300.57 292.226C305.349 292.226 309.223 296.101 309.223 300.88C309.223 305.66 305.349 309.534 300.57 309.534H239.993ZM511.146 292.226C506.367 292.226 502.492 296.101 502.492 300.88C502.492 305.659 506.367 309.534 511.146 309.534H623.646C628.425 309.534 632.3 305.659 632.3 300.88C632.3 296.101 628.425 292.226 623.646 292.226L511.146 292.226ZM25.0886 300.88C25.0886 296.101 28.9631 292.226 33.7424 292.226L146.242 292.226C151.022 292.226 154.896 296.101 154.896 300.88C154.896 305.66 151.022 309.534 146.242 309.534H33.7424C28.9631 309.534 25.0886 305.66 25.0886 300.88Z" fill="#ECB55A"/>
</g>
<mask id="mask1_308_168" style="mask-type:luminance" maskUnits="userSpaceOnUse" x="153" y="145" width="301" height="301">
<circle cx="303.685" cy="295.233" r="150" transform="rotate(-45 303.685 295.233)" fill="white"/>
</mask>
<g mask="url(#mask1_308_168)">
<rect opacity="0.0775757" x="197.619" y="189.168" width="150.785" height="300" transform="rotate(-45 197.619 189.168)" fill="black"/>
</g>
<path fill-rule="evenodd" clip-rule="evenodd" d="M50.3352 300.33C50.3314 300.442 50.3296 300.553 50.3296 300.665C50.3296 328.094 162.258 350.33 300.33 350.33C438.401 350.33 550.33 328.094 550.33 300.665C550.33 300.553 550.328 300.442 550.324 300.33L509.783 300.33C509.787 300.441 509.79 300.553 509.79 300.665C509.79 323.646 416.011 342.276 300.33 342.276C184.649 342.276 90.8706 323.646 90.8706 300.665C90.8706 300.553 90.8728 300.441 90.8772 300.33L50.3352 300.33ZM100.708 300.33C100.71 322.199 189.942 339.927 300.015 339.927C410.089 339.927 499.321 322.199 499.323 300.33L484.055 300.33C484.06 300.441 484.063 300.553 484.063 300.665C484.063 320.866 401.803 337.242 300.33 337.242C198.857 337.242 116.597 320.866 116.597 300.665C116.597 300.553 116.6 300.441 116.605 300.33L100.708 300.33Z" fill="#B87D43"/>
</svg>
