<svg width="1693" height="418" viewBox="0 0 1693 418" fill="none" xmlns="http://www.w3.org/2000/svg">
<g clip-path="url(#clip0_23_379)">
<rect width="1693" height="418" fill="white" fill-opacity="0.08"/>
<circle cx="27" cy="325" r="0.8" fill="white"/>
<circle cx="27" cy="325" r="2" fill="white" fill-opacity="0.45"/>
<circle cx="654" cy="148" r="0.8" fill="white"/>
<circle cx="654" cy="148" r="2" fill="white" fill-opacity="0.45"/>
<circle cx="671.5" cy="156.5" r="0.6" fill="white"/>
<circle cx="671.5" cy="156.5" r="1.5" fill="white" fill-opacity="0.45"/>
<circle cx="671.5" cy="156.5" r="0.6" fill="white"/>
<circle cx="671.5" cy="156.5" r="1.5" fill="white" fill-opacity="0.45"/>
<circle cx="668" cy="141" r="0.4" fill="white"/>
<circle cx="668" cy="141" r="1" fill="white" fill-opacity="0.45"/>
<circle cx="640" cy="170" r="0.4" fill="white"/>
<circle cx="640" cy="170" r="1" fill="white" fill-opacity="0.45"/>
<circle cx="679" cy="172" r="0.4" fill="white"/>
<circle cx="679" cy="172" r="1" fill="white" fill-opacity="0.45"/>
<circle cx="608" cy="147" r="0.4" fill="white"/>
<circle cx="608" cy="147" r="1" fill="white" fill-opacity="0.45"/>
<circle cx="598" cy="176" r="0.4" fill="white"/>
<circle cx="598" cy="176" r="1" fill="white" fill-opacity="0.45"/>
<circle cx="679" cy="224" r="0.4" fill="white"/>
<circle cx="679" cy="224" r="1" fill="white" fill-opacity="0.45"/>
<circle cx="849.5" cy="141.5" r="1.4" fill="white"/>
<circle cx="849.5" cy="141.5" r="3.5" fill="white" fill-opacity="0.45"/>
<circle cx="1257.5" cy="152.5" r="1" fill="white"/>
<circle cx="1257.5" cy="152.5" r="2.5" fill="white" fill-opacity="0.45"/>
<circle cx="1143.5" cy="149.5" r="1" fill="white"/>
<circle cx="1143.5" cy="149.5" r="2.5" fill="white" fill-opacity="0.45"/>
<circle cx="1140" cy="121" r="0.4" fill="white"/>
<circle cx="1140" cy="121" r="1" fill="white" fill-opacity="0.45"/>
<circle cx="1091" cy="100" r="0.4" fill="white"/>
<circle cx="1091" cy="100" r="1" fill="white" fill-opacity="0.45"/>
<circle cx="1082" cy="146" r="0.4" fill="white"/>
<circle cx="1082" cy="146" r="1" fill="white" fill-opacity="0.45"/>
<circle cx="1143" cy="187" r="0.4" fill="white"/>
<circle cx="1143" cy="187" r="1" fill="white" fill-opacity="0.45"/>
<circle cx="1199" cy="125" r="0.4" fill="white"/>
<circle cx="1199" cy="125" r="1" fill="white" fill-opacity="0.45"/>
<circle cx="1188" cy="105" r="0.4" fill="white"/>
<circle cx="1188" cy="105" r="1" fill="white" fill-opacity="0.45"/>
<circle cx="1031" cy="208" r="0.4" fill="white"/>
<circle cx="1031" cy="208" r="1" fill="white" fill-opacity="0.45"/>
<circle cx="1009" cy="159" r="0.4" fill="white"/>
<circle cx="1009" cy="159" r="1" fill="white" fill-opacity="0.45"/>
<circle cx="1138" cy="220" r="0.4" fill="white"/>
<circle cx="1138" cy="220" r="1" fill="white" fill-opacity="0.45"/>
<circle cx="1171" cy="170" r="0.4" fill="white"/>
<circle cx="1171" cy="170" r="1" fill="white" fill-opacity="0.45"/>
<circle cx="1228" cy="166" r="0.4" fill="white"/>
<circle cx="1228" cy="166" r="1" fill="white" fill-opacity="0.45"/>
<circle cx="940" cy="145" r="0.4" fill="white"/>
<circle cx="940" cy="145" r="1" fill="white" fill-opacity="0.45"/>
<circle cx="938" cy="181" r="0.4" fill="white"/>
<circle cx="938" cy="181" r="1" fill="white" fill-opacity="0.45"/>
<circle cx="1041.5" cy="131.5" r="1" fill="white"/>
<circle cx="1041.5" cy="131.5" r="2.5" fill="white" fill-opacity="0.45"/>
<circle cx="883.5" cy="198.5" r="1" fill="white"/>
<circle cx="883.5" cy="198.5" r="2.5" fill="white" fill-opacity="0.45"/>
<circle cx="981" cy="169" r="0.8" fill="white"/>
<circle cx="981" cy="169" r="2" fill="white" fill-opacity="0.45"/>
<circle cx="957" cy="119" r="0.8" fill="white"/>
<circle cx="957" cy="119" r="2" fill="white" fill-opacity="0.45"/>
<circle cx="1107" cy="139" r="2.4" fill="white"/>
<circle cx="1107" cy="139" r="6" fill="white" fill-opacity="0.45"/>
<circle cx="1624" cy="158" r="1.6" fill="white"/>
<circle cx="1624" cy="158" r="4" fill="white" fill-opacity="0.45"/>
<circle cx="784" cy="146" r="0.4" fill="white"/>
<circle cx="784" cy="146" r="1" fill="white" fill-opacity="0.45"/>
<circle cx="333" cy="234" r="0.4" fill="white"/>
<circle cx="333" cy="234" r="1" fill="white" fill-opacity="0.45"/>
<circle cx="511" cy="75" r="0.4" fill="white"/>
<circle cx="511" cy="75" r="1" fill="white" fill-opacity="0.45"/>
<circle cx="431" cy="114" r="0.4" fill="white"/>
<circle cx="431" cy="114" r="1" fill="white" fill-opacity="0.45"/>
<circle cx="397" cy="92" r="0.4" fill="white"/>
<circle cx="397" cy="92" r="1" fill="white" fill-opacity="0.45"/>
<circle cx="433" cy="67" r="0.4" fill="white"/>
<circle cx="433" cy="67" r="1" fill="white" fill-opacity="0.45"/>
<circle cx="371" cy="129" r="0.4" fill="white"/>
<circle cx="371" cy="129" r="1" fill="white" fill-opacity="0.45"/>
<circle cx="423" cy="145" r="0.4" fill="white"/>
<circle cx="423" cy="145" r="1" fill="white" fill-opacity="0.45"/>
<circle cx="1509" cy="148" r="0.8" fill="white"/>
<circle cx="1509" cy="148" r="2" fill="white" fill-opacity="0.45"/>
<circle cx="101" cy="230" r="1.2" fill="white"/>
<circle cx="101" cy="230" r="3" fill="white" fill-opacity="0.45"/>
<circle cx="419" cy="92" r="1.2" fill="white"/>
<circle cx="419" cy="92" r="3" fill="white" fill-opacity="0.45"/>
<circle cx="87.4999" cy="40.5" r="0.6" fill="white"/>
<circle cx="87.5" cy="40.5" r="1.5" fill="white" fill-opacity="0.45"/>
<circle cx="41.4999" cy="81.5" r="0.6" fill="white"/>
<circle cx="41.5" cy="81.5" r="1.5" fill="white" fill-opacity="0.45"/>
<circle cx="117.5" cy="104.5" r="0.6" fill="white"/>
<circle cx="117.5" cy="104.5" r="1.5" fill="white" fill-opacity="0.45"/>
<circle cx="150.5" cy="41.5" r="0.6" fill="white"/>
<circle cx="150.5" cy="41.5" r="1.5" fill="white" fill-opacity="0.45"/>
<circle cx="35.4999" cy="18.5" r="0.6" fill="white"/>
<circle cx="35.5" cy="18.5" r="1.5" fill="white" fill-opacity="0.45"/>
<circle cx="246.5" cy="143.5" r="0.6" fill="white"/>
<circle cx="246.5" cy="143.5" r="1.5" fill="white" fill-opacity="0.45"/>
<circle cx="284.5" cy="42.5" r="0.6" fill="white"/>
<circle cx="284.5" cy="42.5" r="1.5" fill="white" fill-opacity="0.45"/>
<circle cx="323.5" cy="105.5" r="0.6" fill="white"/>
<circle cx="323.5" cy="105.5" r="1.5" fill="white" fill-opacity="0.45"/>
<circle cx="237.5" cy="75.5" r="0.6" fill="white"/>
<circle cx="237.5" cy="75.5" r="1.5" fill="white" fill-opacity="0.45"/>
<circle cx="131" cy="251" r="0.8" fill="white"/>
<circle cx="131" cy="251" r="2" fill="white" fill-opacity="0.45"/>
<circle cx="43" cy="234" r="0.8" fill="white"/>
<circle cx="43" cy="234" r="2" fill="white" fill-opacity="0.45"/>
<ellipse cx="312.5" cy="216" rx="1" ry="1.6" fill="white"/>
<ellipse cx="312.5" cy="216" rx="2.5" ry="4" fill="white" fill-opacity="0.45"/>
<ellipse cx="297" cy="229" rx="0.8" ry="1.2" fill="white"/>
<ellipse cx="297" cy="229" rx="2" ry="3" fill="white" fill-opacity="0.45"/>
<circle cx="249" cy="302" r="0.4" fill="white"/>
<circle cx="249" cy="302" r="1" fill="white" fill-opacity="0.45"/>
<circle cx="323" cy="342" r="1.2" fill="white"/>
<circle cx="323" cy="342" r="3" fill="white" fill-opacity="0.45"/>
<circle cx="821" cy="177" r="1.2" fill="white"/>
<circle cx="821" cy="177" r="3" fill="white" fill-opacity="0.45"/>
<circle cx="678" cy="300" r="0.4" fill="white"/>
<circle cx="678" cy="300" r="1" fill="white" fill-opacity="0.45"/>
<circle cx="1477" cy="300" r="1.2" fill="white"/>
<circle cx="1477" cy="300" r="3" fill="white" fill-opacity="0.45"/>
<circle cx="1335" cy="368" r="0.8" fill="white"/>
<circle cx="1335" cy="368" r="2" fill="white" fill-opacity="0.45"/>
<circle cx="1600" cy="184" r="1.6" fill="white"/>
<circle cx="1600" cy="184" r="4" fill="white" fill-opacity="0.45"/>
<circle cx="1115" cy="315" r="1.6" fill="white"/>
<circle cx="1115" cy="315" r="4" fill="white" fill-opacity="0.45"/>
<circle cx="1028" cy="413" r="1.6" fill="white"/>
<circle cx="1028" cy="413" r="4" fill="white" fill-opacity="0.45"/>
<circle cx="1097.5" cy="400.5" r="0.6" fill="white"/>
<circle cx="1097.5" cy="400.5" r="1.5" fill="white" fill-opacity="0.45"/>
<circle cx="1365" cy="392" r="0.8" fill="white"/>
<circle cx="1365" cy="392" r="2" fill="white" fill-opacity="0.45"/>
<circle cx="1334" cy="399" r="0.4" fill="white"/>
<circle cx="1334" cy="399" r="1" fill="white" fill-opacity="0.45"/>
<circle cx="1198" cy="381" r="0.4" fill="white"/>
<circle cx="1198" cy="381" r="1" fill="white" fill-opacity="0.45"/>
<circle cx="1245" cy="332" r="0.4" fill="white"/>
<circle cx="1245" cy="332" r="1" fill="white" fill-opacity="0.45"/>
<circle cx="1103" cy="337" r="0.4" fill="white"/>
<circle cx="1103" cy="337" r="1" fill="white" fill-opacity="0.45"/>
<circle cx="1332" cy="313" r="0.4" fill="white"/>
<circle cx="1332" cy="313" r="1" fill="white" fill-opacity="0.45"/>
<circle cx="1052" cy="306" r="0.4" fill="white"/>
<circle cx="1052" cy="306" r="1" fill="white" fill-opacity="0.45"/>
<circle cx="989" cy="373" r="0.4" fill="white"/>
<circle cx="989" cy="373" r="1" fill="white" fill-opacity="0.45"/>
<circle cx="618" cy="244" r="0.4" fill="white"/>
<circle cx="618" cy="244" r="1" fill="white" fill-opacity="0.45"/>
<circle cx="91" cy="331" r="0.8" fill="white"/>
<circle cx="91" cy="331" r="2" fill="white" fill-opacity="0.45"/>
<circle cx="108.5" cy="339.5" r="0.6" fill="white"/>
<circle cx="108.5" cy="339.5" r="1.5" fill="white" fill-opacity="0.45"/>
<circle cx="108.5" cy="339.5" r="0.6" fill="white"/>
<circle cx="108.5" cy="339.5" r="1.5" fill="white" fill-opacity="0.45"/>
<circle cx="105" cy="324" r="0.4" fill="white"/>
<circle cx="105" cy="324" r="1" fill="white" fill-opacity="0.45"/>
<circle cx="76.9999" cy="353" r="0.4" fill="white"/>
<circle cx="77" cy="353" r="1" fill="white" fill-opacity="0.45"/>
<circle cx="116" cy="355" r="0.4" fill="white"/>
<circle cx="116" cy="355" r="1" fill="white" fill-opacity="0.45"/>
<circle cx="44.9999" cy="330" r="0.4" fill="white"/>
<circle cx="45" cy="330" r="1" fill="white" fill-opacity="0.45"/>
<circle cx="116" cy="407" r="0.4" fill="white"/>
<circle cx="116" cy="407" r="1" fill="white" fill-opacity="0.45"/>
<circle cx="286.5" cy="324.5" r="1.4" fill="white"/>
<circle cx="286.5" cy="324.5" r="3.5" fill="white" fill-opacity="0.45"/>
<circle cx="377" cy="328" r="0.4" fill="white"/>
<circle cx="377" cy="328" r="1" fill="white" fill-opacity="0.45"/>
<circle cx="375" cy="364" r="0.4" fill="white"/>
<circle cx="375" cy="364" r="1" fill="white" fill-opacity="0.45"/>
<circle cx="320.5" cy="381.5" r="1" fill="white"/>
<circle cx="320.5" cy="381.5" r="2.5" fill="white" fill-opacity="0.45"/>
<circle cx="418" cy="352" r="0.8" fill="white"/>
<circle cx="418" cy="352" r="2" fill="white" fill-opacity="0.45"/>
<circle cx="221" cy="329" r="0.4" fill="white"/>
<circle cx="221" cy="329" r="1" fill="white" fill-opacity="0.45"/>
<circle cx="258" cy="360" r="1.2" fill="white"/>
<circle cx="258" cy="360" r="3" fill="white" fill-opacity="0.45"/>
<circle cx="460" cy="353" r="0.4" fill="white"/>
<circle cx="460" cy="353" r="1" fill="white" fill-opacity="0.45"/>
<circle cx="530" cy="262" r="0.4" fill="white"/>
<circle cx="530" cy="262" r="1" fill="white" fill-opacity="0.45"/>
<circle cx="532" cy="178" r="0.4" fill="white"/>
<circle cx="532" cy="178" r="1" fill="white" fill-opacity="0.45"/>
<circle cx="257" cy="237" r="0.4" fill="white"/>
<circle cx="257" cy="237" r="1" fill="white" fill-opacity="0.45"/>
<circle cx="247" cy="266" r="0.4" fill="white"/>
<circle cx="247" cy="266" r="1" fill="white" fill-opacity="0.45"/>
<circle cx="160" cy="165" r="0.4" fill="white"/>
<circle cx="160" cy="165" r="1" fill="white" fill-opacity="0.45"/>
<circle cx="80.0001" cy="204" r="0.4" fill="white"/>
<circle cx="80" cy="204" r="1" fill="white" fill-opacity="0.45"/>
<circle cx="46.0001" cy="182" r="0.4" fill="white"/>
<circle cx="46" cy="182" r="1" fill="white" fill-opacity="0.45"/>
<circle cx="20.0001" cy="219" r="0.4" fill="white"/>
<circle cx="20" cy="219" r="1" fill="white" fill-opacity="0.45"/>
<circle cx="72.0001" cy="235" r="0.4" fill="white"/>
<circle cx="72" cy="235" r="1" fill="white" fill-opacity="0.45"/>
<circle cx="68" cy="182" r="1.2" fill="white"/>
<circle cx="68" cy="182" r="3" fill="white" fill-opacity="0.45"/>
<circle cx="181" cy="268" r="0.4" fill="white"/>
<circle cx="181" cy="268" r="1" fill="white" fill-opacity="0.45"/>
<circle cx="1013" cy="319" r="0.4" fill="white"/>
<circle cx="1013" cy="319" r="1" fill="white" fill-opacity="0.45"/>
<ellipse cx="813" cy="355.5" rx="2" ry="1.8" fill="white"/>
<ellipse cx="813" cy="355.5" rx="5" ry="4.5" fill="white" fill-opacity="0.45"/>
<circle cx="655.5" cy="359.5" r="1" fill="white"/>
<circle cx="655.5" cy="359.5" r="2.5" fill="white" fill-opacity="0.45"/>
<ellipse cx="3.00005" cy="363" rx="1.2" ry="1.6" fill="white"/>
<ellipse cx="3" cy="363" rx="3" ry="4" fill="white" fill-opacity="0.45"/>
</g>
<defs>
<clipPath id="clip0_23_379">
<rect width="1693" height="418" fill="white"/>
</clipPath>
</defs>
</svg>
