<svg width="300" height="300" viewBox="0 0 300 300" fill="none" xmlns="http://www.w3.org/2000/svg">
<circle cx="150" cy="150" r="150" fill="#65F0D5"/>
<mask id="mask0_308_204" style="mask-type:luminance" maskUnits="userSpaceOnUse" x="0" y="0" width="300" height="300">
<circle cx="150" cy="150" r="150" fill="white"/>
</mask>
<g mask="url(#mask0_308_204)">
<path fill-rule="evenodd" clip-rule="evenodd" d="M291.563 -98.2532C291.563 -93.9121 288.044 -90.3929 283.703 -90.3929C279.362 -90.3929 275.843 -93.9121 275.843 -98.2532V-200.437C275.843 -204.778 279.362 -208.297 283.703 -208.297C288.044 -208.297 291.563 -204.778 291.563 -200.437V-98.2532ZM291.563 45.8515C291.563 50.1926 288.044 53.7118 283.703 53.7118C279.362 53.7118 275.843 50.1926 275.843 45.8515V-5.24017L275.836 -5.23993C275.665 -9.42926 272.214 -12.7729 267.983 -12.7729C263.751 -12.7729 260.301 -9.42926 260.129 -5.23993L260.122 -5.24017V99.5633C260.122 103.904 256.603 107.424 252.262 107.424C247.921 107.424 244.402 103.904 244.402 99.5633L244.402 -68.7773C244.402 -73.1184 247.921 -76.6376 252.262 -76.6376C256.603 -76.6376 260.122 -73.1184 260.122 -68.7773V-36.6812C260.122 -32.3401 263.642 -28.821 267.983 -28.821C272.324 -28.821 275.843 -32.3401 275.843 -36.6812V-56.3319C275.843 -60.673 279.362 -64.1921 283.703 -64.1921C288.044 -64.1921 291.563 -60.673 291.563 -56.3319V45.8515ZM228.681 -88.4279C228.681 -84.0868 225.162 -80.5677 220.821 -80.5677C216.48 -80.5677 212.961 -84.0868 212.961 -88.4279V-136.245C212.961 -140.586 216.48 -144.105 220.821 -144.105C225.162 -144.105 228.681 -140.586 228.681 -136.245V-88.4279ZM228.681 99.5633C228.681 103.904 225.162 107.424 220.821 107.424C216.48 107.424 212.961 103.904 212.961 99.5633V51.7467C212.961 47.4056 216.48 43.8865 220.821 43.8865C225.162 43.8865 228.681 47.4056 228.681 51.7467L228.681 99.5633ZM220.821 272.489C225.162 272.489 228.681 268.97 228.681 264.629V155.895C228.681 151.554 225.162 148.035 220.821 148.035C216.48 148.035 212.961 151.554 212.961 155.895V264.629C212.961 268.97 216.48 272.489 220.821 272.489ZM275.843 148.035C275.843 152.376 272.324 155.895 267.983 155.895C263.642 155.895 260.122 152.376 260.122 148.035V142.14C260.122 137.799 256.603 134.279 252.262 134.279C247.921 134.279 244.402 137.799 244.402 142.14V310.48C244.402 314.821 247.921 318.341 252.262 318.341C256.603 318.341 260.122 314.821 260.122 310.48L260.122 179.476L260.129 179.476C260.301 175.287 263.751 171.943 267.983 171.943C272.214 171.943 275.665 175.287 275.836 179.476L275.843 179.476V195.197C275.843 199.538 279.362 203.057 283.703 203.057C288.044 203.057 291.563 199.538 291.563 195.197V93.0131C291.563 88.672 288.044 85.1528 283.703 85.1528C279.362 85.1528 275.843 88.672 275.843 93.0131V148.035ZM283.703 343.231C288.044 343.231 291.563 339.712 291.563 335.371L291.563 233.188C291.563 228.847 288.044 225.328 283.703 225.328C279.362 225.328 275.843 228.847 275.843 233.188L275.843 335.371C275.843 339.712 279.362 343.231 283.703 343.231Z" fill="#49CBC2"/>
</g>
<mask id="mask1_308_204" style="mask-type:luminance" maskUnits="userSpaceOnUse" x="0" y="0" width="300" height="300">
<circle cx="150" cy="150" r="150" fill="white"/>
</mask>
<g mask="url(#mask1_308_204)">
<path fill-rule="evenodd" clip-rule="evenodd" d="M118.638 -144.105C118.638 -139.764 122.157 -136.245 126.498 -136.245C130.839 -136.245 134.358 -139.764 134.358 -144.105V-246.288C134.358 -250.629 130.839 -254.148 126.498 -254.148C122.157 -254.148 118.638 -250.629 118.638 -246.288V-144.105ZM118.638 0C118.638 4.34109 122.157 7.86026 126.498 7.86026C130.839 7.86026 134.358 4.34109 134.358 0L134.358 -51.0917L134.365 -51.0915C134.536 -55.2808 137.987 -58.6245 142.218 -58.6245C146.45 -58.6245 149.9 -55.2808 150.072 -51.0915L150.079 -51.0917L150.079 53.7118C150.079 58.0529 153.598 61.5721 157.939 61.5721C162.28 61.5721 165.799 58.0529 165.799 53.7118L165.799 -114.629C165.799 -118.97 162.28 -122.489 157.939 -122.489C153.598 -122.489 150.079 -118.97 150.079 -114.629V-82.5328C150.079 -78.1917 146.56 -74.6725 142.218 -74.6725C137.877 -74.6725 134.358 -78.1917 134.358 -82.5328V-102.183C134.358 -106.525 130.839 -110.044 126.498 -110.044C122.157 -110.044 118.638 -106.525 118.638 -102.183V0ZM181.52 -134.279C181.52 -129.938 185.039 -126.419 189.38 -126.419C193.721 -126.419 197.24 -129.938 197.24 -134.279V-182.096C197.24 -186.437 193.721 -189.956 189.38 -189.956C185.039 -189.956 181.52 -186.437 181.52 -182.096V-134.279ZM181.52 53.7118C181.52 58.0529 185.039 61.5721 189.38 61.5721C193.721 61.5721 197.24 58.0529 197.24 53.7118V5.8952C197.24 1.55409 193.721 -1.96507 189.38 -1.96507C185.039 -1.96507 181.52 1.55409 181.52 5.8952L181.52 53.7118ZM189.38 226.638C185.039 226.638 181.52 223.118 181.52 218.777V110.044C181.52 105.703 185.039 102.183 189.38 102.183C193.721 102.183 197.24 105.703 197.24 110.044V218.777C197.24 223.118 193.721 226.638 189.38 226.638ZM134.358 102.183C134.358 106.525 137.877 110.044 142.218 110.044C146.56 110.044 150.079 106.525 150.079 102.183V96.2882C150.079 91.9471 153.598 88.4279 157.939 88.4279C162.28 88.4279 165.799 91.9471 165.799 96.2882V264.629C165.799 268.97 162.28 272.489 157.939 272.489C153.598 272.489 150.079 268.97 150.079 264.629V133.624L150.072 133.625C149.9 129.435 146.45 126.092 142.218 126.092C137.987 126.092 134.536 129.435 134.365 133.625L134.358 133.624V149.345C134.358 153.686 130.839 157.205 126.498 157.205C122.157 157.205 118.638 153.686 118.638 149.345L118.638 47.1616C118.638 42.8205 122.157 39.3013 126.498 39.3013C130.839 39.3013 134.358 42.8205 134.358 47.1616V102.183ZM126.498 297.38C122.157 297.38 118.638 293.861 118.638 289.52V187.336C118.638 182.995 122.157 179.476 126.498 179.476C130.839 179.476 134.358 182.995 134.358 187.336V289.52C134.358 293.861 130.839 297.38 126.498 297.38Z" fill="#50DECD"/>
</g>
<mask id="mask2_308_204" style="mask-type:luminance" maskUnits="userSpaceOnUse" x="0" y="0" width="300" height="300">
<circle cx="150" cy="150" r="150" fill="white"/>
</mask>
<g mask="url(#mask2_308_204)">
<path fill-rule="evenodd" clip-rule="evenodd" d="M102.917 -165.72C102.917 -161.379 99.3978 -157.86 95.0567 -157.86C90.7156 -157.86 87.1965 -161.379 87.1965 -165.72V-267.904C87.1965 -272.245 90.7156 -275.764 95.0567 -275.764C99.3978 -275.764 102.917 -272.245 102.917 -267.904V-165.72ZM102.917 -21.6157C102.917 -17.2746 99.3978 -13.7555 95.0567 -13.7555C90.7156 -13.7555 87.1965 -17.2746 87.1965 -21.6157V-72.7074L87.1898 -72.7072C87.0182 -76.8965 83.5677 -80.2402 79.3362 -80.2402C75.1047 -80.2402 71.6542 -76.8965 71.4826 -72.7072L71.4759 -72.7074V32.0961C71.4759 36.4372 67.9568 39.9563 63.6157 39.9563C59.2746 39.9563 55.7554 36.4372 55.7554 32.0961L55.7554 -136.245C55.7554 -140.586 59.2746 -144.105 63.6157 -144.105C67.9568 -144.105 71.4759 -140.586 71.4759 -136.245L71.4759 -104.148C71.4759 -99.8074 74.9951 -96.2882 79.3362 -96.2882C83.6773 -96.2882 87.1965 -99.8074 87.1965 -104.148V-123.799C87.1965 -128.14 90.7156 -131.659 95.0567 -131.659C99.3978 -131.659 102.917 -128.14 102.917 -123.799V-21.6157ZM40.0352 -155.895C40.0352 -151.554 36.516 -148.035 32.1749 -148.035C27.8338 -148.035 24.3146 -151.554 24.3146 -155.895L24.3146 -203.712C24.3146 -208.053 27.8338 -211.572 32.1749 -211.572C36.516 -211.572 40.0352 -208.053 40.0352 -203.712V-155.895ZM40.0352 32.0961C40.0352 36.4372 36.516 39.9563 32.1749 39.9563C27.8338 39.9563 24.3146 36.4372 24.3146 32.0961V-15.7205C24.3146 -20.0616 27.8338 -23.5808 32.1749 -23.5808C36.516 -23.5808 40.0352 -20.0616 40.0352 -15.7205L40.0352 32.0961ZM32.1749 205.022C36.516 205.022 40.0352 201.503 40.0352 197.162L40.0352 88.4279C40.0352 84.0869 36.516 80.5677 32.1749 80.5677C27.8338 80.5677 24.3146 84.0869 24.3146 88.4279V197.162C24.3146 201.503 27.8338 205.022 32.1749 205.022ZM87.1965 80.5677C87.1965 84.9088 83.6773 88.4279 79.3362 88.4279C74.9951 88.4279 71.4759 84.9088 71.4759 80.5677V74.6725C71.4759 70.3314 67.9568 66.8122 63.6157 66.8122C59.2746 66.8122 55.7554 70.3314 55.7554 74.6725L55.7554 243.013C55.7554 247.354 59.2746 250.873 63.6157 250.873C67.9568 250.873 71.4759 247.354 71.4759 243.013V112.009L71.4826 112.009C71.6542 107.82 75.1047 104.476 79.3362 104.476C83.5677 104.476 87.0182 107.82 87.1898 112.009L87.1965 112.009V127.729C87.1965 132.07 90.7156 135.59 95.0567 135.59C99.3978 135.59 102.917 132.07 102.917 127.729L102.917 25.5458C102.917 21.2047 99.3978 17.6856 95.0567 17.6856C90.7156 17.6856 87.1965 21.2047 87.1965 25.5458L87.1965 80.5677ZM95.0567 275.764C99.3978 275.764 102.917 272.245 102.917 267.904V165.721C102.917 161.379 99.3978 157.86 95.0567 157.86C90.7156 157.86 87.1965 161.379 87.1965 165.721V267.904C87.1965 272.245 90.7156 275.764 95.0567 275.764Z" fill="#77FFF5"/>
</g>
<mask id="mask3_308_204" style="mask-type:luminance" maskUnits="userSpaceOnUse" x="0" y="0" width="300" height="300">
<circle cx="150" cy="150" r="150" fill="white"/>
</mask>
<g mask="url(#mask3_308_204)">
<rect opacity="0.0775757" x="150" width="150" height="300" fill="black"/>
</g>
</svg>
