<svg width="300" height="300" viewBox="0 0 300 300" fill="none" xmlns="http://www.w3.org/2000/svg">
<circle cx="150" cy="150" r="150" fill="#F7CC7F"/>
<mask id="mask0_308_20" style="mask-type:luminance" maskUnits="userSpaceOnUse" x="0" y="0" width="300" height="300">
<circle cx="150" cy="150" r="150" fill="white"/>
</mask>
<g mask="url(#mask0_308_20)">
<path fill-rule="evenodd" clip-rule="evenodd" d="M231.75 26.25C231.75 21.2794 227.721 17.25 222.75 17.25H30C25.0294 17.25 21 21.2794 21 26.25C21 31.2206 25.0294 35.25 30 35.25H120C124.971 35.25 129 39.2794 129 44.25C129 49.2206 124.971 53.25 120 53.25H117C112.029 53.25 108 57.2794 108 62.25C108 67.2206 112.029 71.25 117 71.25H174C178.971 71.25 183 67.2206 183 62.25C183 57.2794 178.971 53.25 174 53.25H171.75L171.749 53.2423C166.953 53.0452 163.125 49.0946 163.125 44.25C163.125 39.4054 166.953 35.4548 171.749 35.2577L171.75 35.25H222.75C227.721 35.25 231.75 31.2206 231.75 26.25ZM217.5 98.25C217.5 93.2794 213.471 89.25 208.5 89.25H162C157.029 89.25 153 93.2794 153 98.25C153 103.221 157.029 107.25 162 107.25H208.5C213.471 107.25 217.5 103.221 217.5 98.25ZM-7.125 125.25C-2.15444 125.25 1.875 129.279 1.875 134.25C1.875 139.221 -2.15444 143.25 -7.125 143.25H-40.125C-45.0956 143.25 -49.125 139.221 -49.125 134.25C-49.125 129.279 -45.0956 125.25 -40.125 125.25H-7.125ZM226.5 134.25C226.5 129.279 222.471 125.25 217.5 125.25H44.25C39.2794 125.25 35.25 129.279 35.25 134.25C35.25 139.221 39.2794 143.25 44.25 143.25H96.75C101.721 143.25 105.75 147.279 105.75 152.25C105.75 157.221 101.721 161.25 96.75 161.25H90C85.0294 161.25 81 165.279 81 170.25C81 175.221 85.0294 179.25 90 179.25H196.5C201.471 179.25 205.5 183.279 205.5 188.25C205.5 193.221 201.471 197.25 196.5 197.25H192C187.029 197.25 183 201.279 183 206.25C183 211.221 187.029 215.25 192 215.25H249C253.971 215.25 258 211.221 258 206.25C258 201.279 253.971 197.25 249 197.25H248.25L248.249 197.242C243.453 197.045 239.625 193.095 239.625 188.25C239.625 183.405 243.453 179.455 248.249 179.258L248.25 179.25H263.25C268.221 179.25 272.25 175.221 272.25 170.25C272.25 165.279 268.221 161.25 263.25 161.25H203.25L203.25 161.242C198.453 161.046 194.625 157.095 194.625 152.25C194.625 147.405 198.453 143.454 203.25 143.258L203.25 143.25H217.5C222.471 143.25 226.5 139.221 226.5 134.25ZM241.5 242.25C241.5 237.279 237.471 233.25 232.5 233.25H59.25C54.2794 233.25 50.25 237.279 50.25 242.25C50.25 247.221 54.2794 251.25 59.25 251.25H90C94.9706 251.25 99 255.279 99 260.25C99 265.221 94.9706 269.25 90 269.25H87C82.0294 269.25 78 273.279 78 278.25C78 283.221 82.0294 287.25 87 287.25H144C148.971 287.25 153 283.221 153 278.25C153 273.279 148.971 269.25 144 269.25H141.75L141.749 269.242C136.953 269.045 133.125 265.095 133.125 260.25C133.125 255.405 136.953 251.455 141.749 251.258L141.75 251.25H232.5C237.471 251.25 241.5 247.221 241.5 242.25ZM87.75 197.25C92.7206 197.25 96.75 201.279 96.75 206.25C96.75 211.221 92.7206 215.25 87.75 215.25H30.75C25.7794 215.25 21.75 211.221 21.75 206.25C21.75 201.279 25.7794 197.25 30.75 197.25H87.75ZM341.25 170.25C341.25 165.279 337.221 161.25 332.25 161.25H301.5C296.529 161.25 292.5 165.279 292.5 170.25C292.5 175.221 296.529 179.25 301.5 179.25H332.25C337.221 179.25 341.25 175.221 341.25 170.25ZM104.25 89.25C109.221 89.25 113.25 93.2794 113.25 98.25C113.25 103.221 109.221 107.25 104.25 107.25H89.25C84.2794 107.25 80.25 103.221 80.25 98.25C80.25 93.2794 84.2794 89.25 89.25 89.25H104.25ZM225 53.25C229.971 53.25 234 57.2794 234 62.25C234 67.2206 229.971 71.25 225 71.25H210C205.029 71.25 201 67.2206 201 62.25C201 57.2794 205.029 53.25 210 53.25H225ZM90 62.25C90 57.2794 85.9706 53.25 81 53.25H66C61.0294 53.25 57 57.2794 57 62.25C57 67.2206 61.0294 71.25 66 71.25H81C85.9706 71.25 90 67.2206 90 62.25Z" fill="#FFE6AE"/>
</g>
<mask id="mask1_308_20" style="mask-type:luminance" maskUnits="userSpaceOnUse" x="0" y="0" width="300" height="300">
<circle cx="150" cy="150" r="150" fill="white"/>
</mask>
<g mask="url(#mask1_308_20)">
<path fill-rule="evenodd" clip-rule="evenodd" d="M65.25 143.25C70.2206 143.25 74.25 147.279 74.25 152.25C74.25 157.221 70.2206 161.25 65.25 161.25H62.25C57.2794 161.25 53.25 165.279 53.25 170.25C53.25 175.221 57.2794 179.25 62.25 179.25H119.25C124.221 179.25 128.25 175.221 128.25 170.25C128.25 165.279 124.221 161.25 119.25 161.25H117L116.999 161.242C112.203 161.045 108.375 157.095 108.375 152.25C108.375 147.405 112.203 143.455 116.999 143.258L117 143.25H168C172.971 143.25 177 139.221 177 134.25C177 129.279 172.971 125.25 168 125.25H48L48.0003 125.242C43.2035 125.046 39.375 121.095 39.375 116.25C39.375 111.405 43.2035 107.454 48.0003 107.258L48 107.25H106.5C111.471 107.25 115.5 103.221 115.5 98.25C115.5 93.2794 111.471 89.25 106.5 89.25H-10.5C-15.4706 89.25 -19.5 93.2794 -19.5 98.25C-19.5 103.221 -15.4706 107.25 -10.5 107.25H12C16.9706 107.25 21 111.279 21 116.25C21 121.221 16.9706 125.25 12 125.25H1.5C-3.47056 125.25 -7.5 129.279 -7.5 134.25C-7.5 139.221 -3.47056 143.25 1.5 143.25H65.25ZM162.75 206.25C162.75 201.279 158.721 197.25 153.75 197.25H107.25C102.279 197.25 98.25 201.279 98.25 206.25C98.25 211.221 102.279 215.25 107.25 215.25H153.75C158.721 215.25 162.75 211.221 162.75 206.25ZM170.25 161.25C175.221 161.25 179.25 165.279 179.25 170.25C179.25 175.221 175.221 179.25 170.25 179.25H155.25C150.279 179.25 146.25 175.221 146.25 170.25C146.25 165.279 150.279 161.25 155.25 161.25H170.25ZM311.25 170.25C311.25 165.279 307.221 161.25 302.25 161.25H226.5C221.529 161.25 217.5 165.279 217.5 170.25C217.5 175.221 221.529 179.25 226.5 179.25H302.25C307.221 179.25 311.25 175.221 311.25 170.25ZM26.25 161.25C31.2206 161.25 35.25 165.279 35.25 170.25C35.25 175.221 31.2206 179.25 26.25 179.25H11.25C6.27944 179.25 2.25 175.221 2.25 170.25C2.25 165.279 6.27944 161.25 11.25 161.25H26.25ZM270 134.25C270 129.279 265.971 125.25 261 125.25H246C241.029 125.25 237 129.279 237 134.25C237 139.221 241.029 143.25 246 143.25H261C265.971 143.25 270 139.221 270 134.25Z" fill="#E29F58"/>
</g>
<mask id="mask2_308_20" style="mask-type:luminance" maskUnits="userSpaceOnUse" x="0" y="0" width="300" height="300">
<circle cx="150" cy="150" r="150" fill="white"/>
</mask>
<g mask="url(#mask2_308_20)">
<rect opacity="0.0775757" x="150.75" y="-18.75" width="168.75" height="337.5" fill="black"/>
</g>
</svg>
