<svg width="425" height="425" viewBox="0 0 425 425" fill="none" xmlns="http://www.w3.org/2000/svg">
<path fill-rule="evenodd" clip-rule="evenodd" d="M35.3604 35.3593C35.4367 35.2777 35.5144 35.1974 35.5934 35.1184C54.9888 15.723 149.857 79.1456 247.489 176.777C345.12 274.408 408.542 369.276 389.147 388.672C389.068 388.751 388.987 388.829 388.906 388.905L360.239 360.238C360.321 360.162 360.401 360.084 360.48 360.005C376.73 343.755 323.593 264.271 241.794 182.472C159.995 100.673 80.51 47.5348 64.2598 63.7849C64.1808 63.864 64.1034 63.9445 64.0276 64.0265L35.3604 35.3593ZM70.9787 70.9776C86.4433 55.5148 162.076 106.076 239.91 183.91C317.743 261.743 368.305 337.376 352.842 352.841L342.046 342.045C342.129 341.97 342.21 341.893 342.289 341.814C356.573 327.53 309.986 257.783 238.234 186.031C166.482 114.279 96.7355 67.6921 82.4511 81.9765C82.3721 82.0555 82.295 82.1362 82.2197 82.2186L70.9787 70.9776Z" fill="#B87D43"/>
<circle cx="218.109" cy="210.903" r="150" fill="#FCCB6B"/>
<mask id="mask0_312_455" style="mask-type:luminance" maskUnits="userSpaceOnUse" x="68" y="60" width="301" height="301">
<circle cx="218.109" cy="210.903" r="150" fill="white"/>
</mask>
<g mask="url(#mask0_312_455)">
<path fill-rule="evenodd" clip-rule="evenodd" d="M254.747 243.288C251.367 239.909 245.888 239.909 242.509 243.288C239.129 246.668 239.129 252.147 242.509 255.527L282.283 295.301L282.278 295.306C285.406 298.701 285.323 303.991 282.028 307.285C278.734 310.579 273.445 310.662 270.05 307.534L270.045 307.54L188.456 225.95C185.076 222.571 179.597 222.571 176.217 225.95C172.838 229.33 172.838 234.809 176.217 238.189L307.27 369.242C310.65 372.621 316.129 372.621 319.508 369.242C322.888 365.862 322.888 360.383 319.508 357.003L294.522 332.016C291.142 328.637 291.142 323.158 294.522 319.778C297.901 316.399 303.381 316.399 306.76 319.778L322.058 335.076C325.438 338.456 330.917 338.456 334.296 335.076C337.676 331.697 337.676 326.217 334.296 322.838L254.747 243.288ZM310.33 396.779C306.951 393.399 301.472 393.399 298.092 396.779C294.713 400.158 294.713 405.637 298.092 409.017L335.317 446.242C338.697 449.622 344.176 449.622 347.556 446.242C350.935 442.862 350.935 437.383 347.556 434.004L310.33 396.779ZM163.98 250.428C160.6 247.048 155.121 247.048 151.741 250.428C148.362 253.807 148.362 259.287 151.741 262.666L188.966 299.891C192.346 303.271 197.825 303.271 201.205 299.891C204.584 296.512 204.584 291.032 201.205 287.653L163.98 250.428ZM23.2377 121.925C26.6172 118.545 32.0965 118.545 35.4761 121.925L120.125 206.574C123.504 209.953 123.504 215.433 120.125 218.812C116.745 222.192 111.266 222.192 107.887 218.812L23.2377 134.163C19.8581 130.784 19.8581 125.304 23.2377 121.925ZM162.959 175.978C159.58 172.598 154.101 172.598 150.721 175.978C147.342 179.357 147.342 184.837 150.721 188.216L155.31 192.806C158.69 196.185 158.69 201.664 155.31 205.044C151.931 208.424 146.452 208.424 143.072 205.044L12.0194 73.9913C8.6398 70.6118 8.63981 65.1325 12.0193 61.7529C15.3989 58.3734 20.8782 58.3734 24.2578 61.7529L126.244 163.739L126.249 163.734C129.644 166.862 134.934 166.779 138.228 163.485C141.522 160.19 141.605 154.901 138.477 151.506L138.483 151.501L126.244 139.263C122.865 135.883 122.865 130.404 126.244 127.024C129.624 123.645 135.103 123.645 138.483 127.024L218.032 206.574C221.412 209.953 221.412 215.433 218.032 218.812C214.653 222.192 209.173 222.192 205.794 218.812L162.959 175.978ZM366.932 355.474C363.553 352.094 358.073 352.094 354.694 355.474C351.314 358.853 351.314 364.333 354.694 367.712L434.243 447.262C437.623 450.641 443.102 450.641 446.482 447.262C449.861 443.882 449.861 438.403 446.482 435.023L366.932 355.474ZM17.1185 17.8986C20.498 14.519 25.9774 14.519 29.3569 17.8985L108.906 97.4481C112.286 100.828 112.286 106.307 108.906 109.686C105.527 113.066 100.048 113.066 96.668 109.686L17.1185 30.1369C13.739 26.7574 13.739 21.2781 17.1185 17.8986Z" fill="#ECB55A"/>
</g>
<mask id="mask1_312_455" style="mask-type:luminance" maskUnits="userSpaceOnUse" x="68" y="60" width="301" height="301">
<circle cx="218.109" cy="210.903" r="150" fill="white"/>
</mask>
<g mask="url(#mask1_312_455)">
<rect opacity="0.0775757" x="218.108" y="60.903" width="150.785" height="300" fill="black"/>
</g>
<path fill-rule="evenodd" clip-rule="evenodd" d="M222 356C299.32 356 362 291.081 362 211C362 130.919 299.32 66 222 66V356Z" fill="#9C4925"/>
<mask id="mask2_312_455" style="mask-type:luminance" maskUnits="userSpaceOnUse" x="222" y="66" width="140" height="290">
<path fill-rule="evenodd" clip-rule="evenodd" d="M222 356C299.32 356 362 291.081 362 211C362 130.919 299.32 66 222 66V356Z" fill="white"/>
</mask>
<g mask="url(#mask2_312_455)">
<ellipse cx="222.693" cy="211" rx="79.0099" ry="81.8317" fill="#E09B7F"/>
<ellipse cx="222.346" cy="211.359" rx="23.9109" ry="24.7649" fill="#FFEECC"/>
</g>
<path fill-rule="evenodd" clip-rule="evenodd" d="M35.3594 35.3611C35.2778 35.4374 35.1975 35.5151 35.1185 35.5942C15.7231 54.9895 79.1457 149.858 176.777 247.489C274.408 345.12 369.277 408.543 388.672 389.148C388.751 389.069 388.829 388.988 388.905 388.907L360.238 360.24C360.162 360.322 360.085 360.402 360.006 360.481C343.756 376.731 264.271 323.594 182.472 241.794C100.673 159.995 47.5354 80.5109 63.7855 64.2608C63.8645 64.1818 63.945 64.1044 64.027 64.0287L35.3594 35.3611ZM70.9784 70.9801C55.5161 86.4451 106.077 162.077 183.911 239.911C261.744 317.744 337.377 368.306 352.842 352.843L342.046 342.048C341.971 342.13 341.893 342.211 341.814 342.29C327.53 356.574 257.784 309.987 186.031 238.235C114.279 166.483 67.6925 96.7367 81.9769 82.4522C82.0559 82.3732 82.1367 82.2961 82.2191 82.2208L70.9784 70.9801Z" fill="#B87D43"/>
</svg>
