<svg width="308" height="60" viewBox="0 0 308 60" fill="none" xmlns="http://www.w3.org/2000/svg">
<circle cx="30" cy="30" r="30" fill="#545BFE"/>
<mask id="mask0_318_499" style="mask-type:luminance" maskUnits="userSpaceOnUse" x="0" y="0" width="60" height="60">
<circle cx="30" cy="30" r="30" fill="white"/>
</mask>
<g mask="url(#mask0_318_499)">
<path fill-rule="evenodd" clip-rule="evenodd" d="M25.0665 3.6C25.0665 2.71634 24.3502 2 23.4665 2H-3.8668C-4.75045 2 -5.4668 2.71634 -5.4668 3.6C-5.4668 4.48366 -4.75045 5.2 -3.8668 5.2H2.5332C3.41686 5.2 4.1332 5.91634 4.1332 6.8C4.1332 7.68366 3.41686 8.4 2.5332 8.4H1.7332C0.849548 8.4 0.133204 9.11634 0.133204 10C0.133204 10.8837 0.849548 11.6 1.7332 11.6H1.19987C2.08353 11.6 2.79987 12.3163 2.79987 13.2C2.79987 14.0837 2.08353 14.8 1.19987 14.8H-0.133463C-1.01712 14.8 -1.73346 15.5163 -1.73346 16.4C-1.73346 17.2837 -1.01712 18 -0.133463 18H15.7332C16.6169 18 17.3332 17.2837 17.3332 16.4C17.3332 15.5163 16.6169 14.8 15.7332 14.8H15.0665L15.0665 14.7986C14.2138 14.7637 13.5332 14.0613 13.5332 13.2C13.5332 12.3387 14.2138 11.6363 15.0665 11.6014L15.0665 11.6H24.2665C25.1502 11.6 25.8665 10.8837 25.8665 10C25.8665 9.11634 25.1502 8.4 24.2665 8.4H23.3332L23.3332 8.39864C22.4805 8.36367 21.7999 7.66131 21.7999 6.8C21.7999 5.93869 22.4805 5.23633 23.3332 5.20137L23.3332 5.2H23.4665C24.3502 5.2 25.0665 4.48366 25.0665 3.6ZM13.0668 21.2C13.9505 21.2 14.6668 21.9163 14.6668 22.8C14.6668 23.6837 13.9505 24.4 13.0668 24.4C12.1831 24.4 11.4668 23.6837 11.4668 22.8C11.4668 21.9163 12.1831 21.2 13.0668 21.2ZM8.13327 26C8.13327 25.1163 7.41692 24.4 6.53327 24.4H1.8666C0.982946 24.4 0.266602 25.1163 0.266602 26C0.266602 26.8837 0.982946 27.6 1.8666 27.6H6.53327C7.41692 27.6 8.13327 26.8837 8.13327 26ZM19.4661 45.2C19.4661 46.0837 18.7498 46.8 17.8661 46.8H18.5328C17.6492 46.8 16.9328 47.5163 16.9328 48.4C16.9328 49.2837 17.6492 50 18.5328 50H22.3995C23.2831 50 23.9995 49.2837 23.9995 48.4C23.9995 47.5163 23.2831 46.8 22.3995 46.8H22.9328V46.7986C22.0801 46.7637 21.3995 46.0613 21.3995 45.2C21.3995 44.3387 22.0801 43.6363 22.9328 43.6014V43.6H26.5328C27.4165 43.6 28.1328 42.8837 28.1328 42C28.1328 41.1163 27.4165 40.4 26.5328 40.4L26.5328 40.3986C25.6801 40.3637 24.9995 39.6613 24.9995 38.8C24.9995 37.9387 25.6801 37.2363 26.5328 37.2014L26.5328 37.2H27.3328C28.2165 37.2 28.9328 36.4837 28.9328 35.6C28.9328 34.7163 28.2165 34 27.3328 34H20.5328V33.9986C19.6801 33.9637 18.9995 33.2613 18.9995 32.4C18.9995 31.5387 19.6801 30.8363 20.5328 30.8014V30.8H20.2661C21.1498 30.8 21.8661 30.0837 21.8661 29.2C21.8661 28.3163 21.1498 27.6 20.2661 27.6H13.7328C12.8492 27.6 12.1328 28.3163 12.1328 29.2C12.1328 30.0837 12.8492 30.8 13.7328 30.8C14.6165 30.8 15.3328 31.5163 15.3328 32.4C15.3328 33.2837 14.6165 34 13.7328 34C12.8492 34 12.1328 34.7163 12.1328 35.6C12.1328 36.4837 12.8492 37.2 13.7328 37.2H15.0661C15.9498 37.2 16.6661 37.9163 16.6661 38.8C16.6661 39.6837 15.9498 40.4 15.0661 40.4H15.3328C14.4492 40.4 13.7328 41.1163 13.7328 42C13.7328 42.8837 14.4492 43.6 15.3328 43.6H17.8661C18.7498 43.6 19.4661 44.3163 19.4661 45.2Z" fill="#4FCDF9"/>
</g>
<mask id="mask1_318_499" style="mask-type:luminance" maskUnits="userSpaceOnUse" x="0" y="0" width="60" height="60">
<circle cx="30" cy="30" r="30" fill="white"/>
</mask>
<g mask="url(#mask1_318_499)">
<path fill-rule="evenodd" clip-rule="evenodd" d="M56.2672 6.79995C56.2672 5.9163 55.5508 5.19995 54.6672 5.19995H51.4672C50.5835 5.19995 49.8672 5.9163 49.8672 6.79995C49.8672 7.68361 50.5835 8.39995 51.4672 8.39995H54.6672C55.5508 8.39995 56.2672 7.68361 56.2672 6.79995ZM87.9999 8.39995C88.8836 8.39995 89.5999 9.1163 89.5999 9.99995C89.5999 10.8836 88.8836 11.6 87.9999 11.6H87.0666V11.6013C86.2139 11.6363 85.5333 12.3386 85.5333 13.2C85.5333 14.0613 86.2139 14.7636 87.0666 14.7986V14.8H89.1999C90.0836 14.8 90.7999 15.5163 90.7999 16.4C90.7999 17.2836 90.0836 18 89.1999 18H65.9999C65.1163 18 64.3999 17.2836 64.3999 16.4C64.3999 15.5163 65.1163 14.8 65.9999 14.8H65.3333C66.2169 14.8 66.9333 14.0836 66.9333 13.2C66.9333 12.3163 66.2169 11.6 65.3333 11.6H59.8666C58.9829 11.6 58.2666 10.8836 58.2666 9.99995C58.2666 9.1163 58.9829 8.39995 59.8666 8.39995H87.9999ZM52.0001 43.5999C52.8838 43.5999 53.6001 42.8836 53.6001 42C53.6001 41.1163 52.8838 40.3999 52.0001 40.3999C51.1165 40.3999 50.4001 39.6836 50.4001 38.8C50.4001 37.9163 51.1165 37.1999 52.0001 37.1999H51.6001C52.4838 37.1999 53.2001 36.4836 53.2001 35.5999C53.2001 34.7163 52.4838 34 51.6001 34H45.6001C44.7165 34 44.0001 33.2836 44.0001 32.4C44.0001 31.5163 44.7165 30.8 45.6001 30.8C46.4838 30.8 47.2001 30.0836 47.2001 29.2C47.2001 28.3163 46.4838 27.5999 45.6001 27.5999H41.0668C40.1831 27.5999 39.4668 26.8836 39.4668 26C39.4668 25.1163 40.1831 24.4 41.0668 24.4H44.5335C45.4171 24.4 46.1335 23.6836 46.1335 22.8C46.1335 21.9163 45.4171 21.2 44.5335 21.2C43.6498 21.2 42.9335 20.4836 42.9335 19.6C42.9335 18.7163 43.6498 18 44.5335 18H52.0001C52.8838 18 53.6001 18.7163 53.6001 19.6C53.6001 20.4836 52.8838 21.2 52.0001 21.2L52 21.2013C51.1473 21.2364 50.4668 21.9387 50.4668 22.8C50.4668 23.6612 51.1473 24.3635 52 24.3986L52.0001 24.4H64.1335C65.0171 24.4 65.7335 25.1163 65.7335 26C65.7335 26.8836 65.0171 27.5999 64.1335 27.5999H61.4668L61.4668 27.6013C60.6141 27.6363 59.9335 28.3386 59.9335 29.2C59.9335 30.0613 60.6141 30.7636 61.4668 30.7986L61.4668 30.8H62.8001C63.6838 30.8 64.4001 31.5163 64.4001 32.4C64.4001 33.2836 63.6838 34 62.8001 34H60.8001L60.8 34.0013C59.9473 34.0364 59.2668 34.7387 59.2668 35.5999C59.2668 36.4612 59.9473 37.1635 60.8 37.1986L60.8001 37.1999H60.5335C61.4171 37.1999 62.1335 37.9163 62.1335 38.8C62.1335 39.6836 61.4171 40.3999 60.5335 40.3999H57.8668L57.8668 40.4013C57.0141 40.4363 56.3335 41.1386 56.3335 42C56.3335 42.8613 57.0141 43.5636 57.8668 43.5986L57.8668 43.5999H57.3335C58.2171 43.5999 58.9335 44.3163 58.9335 45.1999C58.9335 46.0836 58.2171 46.8 57.3335 46.8H52.5335C51.6498 46.8 50.9335 46.0836 50.9335 45.1999C50.9335 44.3163 51.6498 43.5999 52.5335 43.5999H52.0001ZM64.0004 40.4C64.884 40.4 65.6004 41.1163 65.6004 42C65.6004 42.8836 64.884 43.6 64.0004 43.6C63.1167 43.6 62.4004 42.8836 62.4004 42C62.4004 41.1163 63.1167 40.4 64.0004 40.4ZM63.2005 19.6C63.2005 18.7163 62.4841 18 61.6005 18H59.7338C58.8501 18 58.1338 18.7163 58.1338 19.6C58.1338 20.4836 58.8501 21.2 59.7338 21.2H61.6005C62.4841 21.2 63.2005 20.4836 63.2005 19.6ZM49.4664 13.2C49.4664 12.3163 48.7501 11.6 47.8664 11.6H44.6664C43.7828 11.6 43.0664 12.3163 43.0664 13.2C43.0664 14.0836 43.7828 14.8 44.6664 14.8H47.8664C48.7501 14.8 49.4664 14.0836 49.4664 13.2ZM52.9336 11.6C53.8172 11.6 54.5336 12.3163 54.5336 13.2C54.5336 14.0836 53.8172 14.8 52.9336 14.8H52.5336C51.6499 14.8 50.9336 14.0836 50.9336 13.2C50.9336 12.3163 51.6499 11.6 52.5336 11.6H52.9336Z" fill="#4FCDF9"/>
</g>
<mask id="mask2_318_499" style="mask-type:luminance" maskUnits="userSpaceOnUse" x="0" y="0" width="60" height="60">
<circle cx="30" cy="30" r="30" fill="white"/>
</mask>
<g mask="url(#mask2_318_499)">
<path fill-rule="evenodd" clip-rule="evenodd" d="M40.9334 6.79998C40.9334 5.91632 40.2171 5.19998 39.3334 5.19998H23.3334C22.4497 5.19998 21.7334 4.48363 21.7334 3.59998C21.7334 2.71632 22.4497 1.99998 23.3334 1.99998H29.8667C30.7504 1.99998 31.4667 1.28363 31.4667 0.399976C31.4667 -0.48368 30.7504 -1.20002 29.8667 -1.20002H27.7334C26.8497 -1.20002 26.1334 -1.91637 26.1334 -2.80002C26.1334 -3.68368 26.8497 -4.40002 27.7334 -4.40002H36.0001C36.8837 -4.40002 37.6001 -3.68368 37.6001 -2.80002C37.6001 -1.91637 36.8837 -1.20002 36.0001 -1.20002H36.2667L36.2668 -1.19866C35.414 -1.16374 34.7334 -0.461365 34.7334 0.399976C34.7334 1.26132 35.414 1.96369 36.2668 1.99861L36.2667 1.99998H57.6001C58.4837 1.99998 59.2001 2.71632 59.2001 3.59998C59.2001 4.48363 58.4837 5.19998 57.6001 5.19998H48.5334L48.5333 5.20135C47.6806 5.23638 47.0001 5.93871 47.0001 6.79998C47.0001 7.66124 47.6806 8.36357 48.5333 8.39861L48.5334 8.39998H48.9334C49.8171 8.39998 50.5334 9.11632 50.5334 9.99998C50.5334 10.8836 49.8171 11.6 48.9334 11.6H38.8001C37.9164 11.6 37.2001 10.8836 37.2001 9.99998C37.2001 9.11632 37.9164 8.39998 38.8001 8.39998H39.3334C40.2171 8.39998 40.9334 7.68363 40.9334 6.79998ZM55.0669 14.8C55.9505 14.8 56.6669 15.5163 56.6669 16.4C56.6669 17.2837 55.9505 18 55.0669 18H46.8002C45.9165 18 45.2002 17.2837 45.2002 16.4C45.2002 15.5163 45.9165 14.8 46.8002 14.8H55.0669ZM59.6001 10C59.6001 9.11634 58.8837 8.4 58.0001 8.4H55.3334C54.4497 8.4 53.7334 9.11634 53.7334 10C53.7334 10.8837 54.4497 11.6 55.3334 11.6H58.0001C58.8837 11.6 59.6001 10.8837 59.6001 10ZM32.3995 8.4C33.2831 8.4 33.9995 9.11634 33.9995 10C33.9995 10.8837 33.2831 11.6 32.3995 11.6H29.7328C28.8492 11.6 28.1328 10.8837 28.1328 10C28.1328 9.11634 28.8492 8.4 29.7328 8.4H32.3995ZM64.8 -2.80002C64.8 -3.68368 64.0837 -4.40002 63.2 -4.40002H42.4C41.5163 -4.40002 40.8 -3.68368 40.8 -2.80002C40.8 -1.91637 41.5163 -1.20002 42.4 -1.20002H63.2C64.0837 -1.20002 64.8 -1.91637 64.8 -2.80002Z" fill="white"/>
</g>
<mask id="mask3_318_499" style="mask-type:luminance" maskUnits="userSpaceOnUse" x="0" y="0" width="60" height="60">
<circle cx="30" cy="30" r="30" fill="white"/>
</mask>
<g mask="url(#mask3_318_499)">
<path fill-rule="evenodd" clip-rule="evenodd" d="M11.3337 46.8C12.2173 46.8 12.9337 47.5163 12.9337 48.4C12.9337 49.2836 12.2173 50 11.3337 50H10.8003C9.91667 50 9.20033 50.7163 9.20033 51.6C9.20033 52.4836 9.91667 53.2 10.8003 53.2H20.9337C21.8173 53.2 22.5337 52.4836 22.5337 51.6C22.5337 50.7163 21.8173 50 20.9337 50H20.5337L20.5335 49.9986C19.6809 49.9635 19.0004 49.2612 19.0004 48.4C19.0004 47.5387 19.6809 46.8364 20.5335 46.8013L20.5337 46.8H24.0003C24.884 46.8 25.6003 46.0836 25.6003 45.2C25.6003 44.3163 24.884 43.6 24.0003 43.6H22.1337L22.1337 43.5986C21.2809 43.5637 20.6003 42.8613 20.6003 42C20.6003 41.1386 21.2809 40.4362 22.1337 40.4013L22.1337 40.4H28.4003C29.284 40.4 30.0003 39.6836 30.0003 38.8C30.0003 37.9163 29.284 37.2 28.4003 37.2H12.667C11.7833 37.2 11.067 37.9163 11.067 38.8C11.067 39.6836 11.7833 40.4 12.667 40.4H15.7337C16.6173 40.4 17.3337 41.1163 17.3337 42C17.3337 42.8836 16.6173 43.6 15.7337 43.6H2.26699C1.38334 43.6 0.666992 44.3163 0.666992 45.2C0.666992 46.0836 1.38334 46.8 2.26699 46.8H11.3337ZM34.6665 45.2C34.6665 44.3163 33.9501 43.6 33.0665 43.6H30.3998C29.5161 43.6 28.7998 44.3163 28.7998 45.2C28.7998 46.0837 29.5161 46.8 30.3998 46.8H33.0665C33.9501 46.8 34.6665 46.0837 34.6665 45.2Z" fill="white"/>
</g>
<mask id="mask4_318_499" style="mask-type:luminance" maskUnits="userSpaceOnUse" x="0" y="0" width="60" height="60">
<circle cx="30" cy="30" r="30" fill="white"/>
</mask>
<g mask="url(#mask4_318_499)">
<path fill-rule="evenodd" clip-rule="evenodd" d="M44.9333 59.6C45.8169 59.6 46.5333 60.3163 46.5333 61.2C46.5333 62.0837 45.8169 62.8 44.9333 62.8H44.3999C43.5163 62.8 42.7999 63.5163 42.7999 64.4C42.7999 65.2837 43.5163 66 44.3999 66H54.5333C55.4169 66 56.1333 65.2837 56.1333 64.4C56.1333 63.5163 55.4169 62.8 54.5333 62.8H54.1333L54.1331 62.7986C53.2805 62.7636 52.6 62.0613 52.6 61.2C52.6 60.3387 53.2805 59.6364 54.1331 59.6014L54.1333 59.6H57.5999C58.4836 59.6 59.1999 58.8837 59.1999 58C59.1999 57.1163 58.4836 56.4 57.5999 56.4H55.7333L55.7333 56.3986C54.8806 56.3637 54.1999 55.6613 54.1999 54.8C54.1999 53.9387 54.8806 53.2363 55.7333 53.2014L55.7333 53.2H61.9999C62.8836 53.2 63.5999 52.4837 63.5999 51.6C63.5999 50.7163 62.8836 50 61.9999 50H46.2666C45.3829 50 44.6666 50.7163 44.6666 51.6C44.6666 52.4837 45.3829 53.2 46.2666 53.2H49.3333C50.2169 53.2 50.9333 53.9163 50.9333 54.8C50.9333 55.6837 50.2169 56.4 49.3333 56.4H35.8666C34.9829 56.4 34.2666 57.1163 34.2666 58C34.2666 58.8837 34.9829 59.6 35.8666 59.6H44.9333ZM68.2671 58C68.2671 57.1163 67.5507 56.4 66.6671 56.4H64.0004C63.1167 56.4 62.4004 57.1163 62.4004 58C62.4004 58.8837 63.1167 59.6 64.0004 59.6H66.6671C67.5507 59.6 68.2671 58.8837 68.2671 58Z" fill="white"/>
</g>
<mask id="mask5_318_499" style="mask-type:luminance" maskUnits="userSpaceOnUse" x="0" y="0" width="60" height="60">
<circle cx="30" cy="30" r="30" fill="white"/>
</mask>
<g mask="url(#mask5_318_499)">
<rect opacity="0.0775757" x="30.0645" y="-3.33337" width="33.3978" height="66.6667" fill="black"/>
</g>
<path d="M69.3145 46V15.0625H75.5371C76.7676 15.0625 77.7637 15.2676 78.5254 15.6777C79.2988 16.0879 79.8906 16.6797 80.3008 17.4531C80.7109 18.2266 80.9863 19.1582 81.127 20.248C81.2793 21.3379 81.3555 22.5625 81.3555 23.9219V24.3965C81.3555 26.4707 81.1914 28.2109 80.8633 29.6172C80.5469 31.0234 79.9668 32.084 79.123 32.7988C78.291 33.502 77.0957 33.8535 75.5371 33.8535H72.9531V46H69.3145ZM72.9531 30.8301H75.168C75.8828 30.8301 76.4219 30.6309 76.7852 30.2324C77.1484 29.8223 77.3945 29.1484 77.5234 28.2109C77.6641 27.2734 77.7344 26.002 77.7344 24.3965V23.7988C77.7344 21.8066 77.582 20.3359 77.2773 19.3867C76.9727 18.4258 76.2988 17.9453 75.2559 17.9453H72.9531V30.8301ZM85.0293 46V15.0625H88.668V42.9941H94.3809V46H85.0293ZM95.6113 46L100.305 15.0625H104.682L109.797 46H106.369L105.49 40.0938H99.8828L99.0742 46H95.6113ZM100.287 37.1406H105.033L102.59 20.793H102.537L100.287 37.1406ZM113.225 46V15.0625H115.967L123.139 36.1211L122.77 27.1738V15.0625H125.986V46H123.314L116.371 24.7656L116.582 32.5703V46H113.225ZM131.049 46V15.0625H140.295V18.0859H134.688V28.668H139.996V31.6914H134.688V42.9766H140.365V46H131.049ZM145.639 46V18.0859H142.229V15.0625H152.441V18.0859H149.26V46H145.639ZM161.213 46.3516C159.666 46.3516 158.441 46.0117 157.539 45.332C156.648 44.6523 156.01 43.627 155.623 42.2559C155.248 40.8848 155.061 39.168 155.061 37.1055V23.4648C155.061 21.6836 155.236 20.1367 155.588 18.8242C155.939 17.5117 156.566 16.4922 157.469 15.7656C158.371 15.0391 159.648 14.6758 161.301 14.6758C162.543 14.6758 163.557 14.8867 164.342 15.3086C165.127 15.7187 165.73 16.3105 166.152 17.084C166.586 17.8457 166.885 18.7656 167.049 19.8438C167.213 20.9219 167.295 22.1289 167.295 23.4648V37.1055C167.295 39.168 167.107 40.8848 166.732 42.2559C166.369 43.627 165.742 44.6523 164.852 45.332C163.973 46.0117 162.76 46.3516 161.213 46.3516ZM161.213 43.2227C161.881 43.2227 162.391 43.0352 162.742 42.6602C163.094 42.2734 163.334 41.6348 163.463 40.7441C163.592 39.8535 163.656 38.6523 163.656 37.1406V23.2539C163.656 21.4023 163.51 20.0312 163.217 19.1406C162.924 18.25 162.285 17.8047 161.301 17.8047C160.281 17.8047 159.59 18.25 159.227 19.1406C158.875 20.0195 158.699 21.3848 158.699 23.2363V37.1406C158.699 38.6641 158.764 39.8711 158.893 40.7617C159.021 41.6406 159.268 42.2734 159.631 42.6602C159.994 43.0352 160.521 43.2227 161.213 43.2227ZM172.006 46V15.0625H175.645V46H172.006ZM180.725 46V15.0625H186.543C188.16 15.0625 189.42 15.4023 190.322 16.082C191.225 16.75 191.857 17.7109 192.221 18.9648C192.584 20.2188 192.766 21.7188 192.766 23.4648L192.783 37.0527C192.783 39.1387 192.572 40.8438 192.15 42.168C191.74 43.4805 191.066 44.4473 190.129 45.0684C189.203 45.6895 187.967 46 186.42 46H180.725ZM184.346 43.0645H186.209C186.865 43.0645 187.41 42.9238 187.844 42.6426C188.277 42.3496 188.6 41.8105 188.811 41.0254C189.033 40.2402 189.145 39.1035 189.145 37.6152V23.377C189.145 21.4316 188.916 20.043 188.459 19.2109C188.002 18.3672 187.252 17.9453 186.209 17.9453H184.346V43.0645ZM197.494 46V15.0625H206.811V18.1035H201.115V27.877H206.459V30.9531H201.115V46H197.494ZM208.287 46L212.98 15.0625H217.357L222.473 46H219.045L218.166 40.0938H212.559L211.75 46H208.287ZM212.963 37.1406H217.709L215.266 20.793H215.213L212.963 37.1406ZM231.631 46.3691C230.131 46.3691 228.936 46.0059 228.045 45.2793C227.154 44.541 226.516 43.4629 226.129 42.0449C225.742 40.627 225.549 38.9043 225.549 36.877V23.9922C225.549 22.6328 225.637 21.3906 225.812 20.2656C225.988 19.1289 226.299 18.1504 226.744 17.3301C227.201 16.498 227.834 15.8594 228.643 15.4141C229.451 14.957 230.488 14.7285 231.754 14.7285C232.961 14.7285 233.945 14.9453 234.707 15.3789C235.469 15.8008 236.061 16.4102 236.482 17.207C236.904 17.9922 237.191 18.9297 237.344 20.0195C237.508 21.0977 237.59 22.293 237.59 23.6055V27.0332H234.021V23.5879C234.021 21.666 233.881 20.2305 233.6 19.2812C233.33 18.3203 232.715 17.8398 231.754 17.8398C230.734 17.8398 230.049 18.332 229.697 19.3164C229.357 20.2891 229.188 21.707 229.188 23.5703V36.9648C229.188 38.4648 229.252 39.6836 229.381 40.6211C229.51 41.5469 229.75 42.2207 230.102 42.6426C230.465 43.0645 230.98 43.2754 231.648 43.2754C232.621 43.2754 233.26 42.7832 233.564 41.7988C233.869 40.8145 234.021 39.1973 234.021 36.9473V33.5195H237.625V36.9121C237.625 38.9746 237.443 40.709 237.08 42.1152C236.729 43.5215 236.119 44.582 235.252 45.2969C234.385 46.0117 233.178 46.3691 231.631 46.3691ZM243.338 46V18.0859H239.928V15.0625H250.141V18.0859H246.959V46H243.338ZM258.912 46.3516C257.365 46.3516 256.141 46.0117 255.238 45.332C254.348 44.6523 253.709 43.627 253.322 42.2559C252.947 40.8848 252.76 39.168 252.76 37.1055V23.4648C252.76 21.6836 252.936 20.1367 253.287 18.8242C253.639 17.5117 254.266 16.4922 255.168 15.7656C256.07 15.0391 257.348 14.6758 259 14.6758C260.242 14.6758 261.256 14.8867 262.041 15.3086C262.826 15.7187 263.43 16.3105 263.852 17.084C264.285 17.8457 264.584 18.7656 264.748 19.8438C264.912 20.9219 264.994 22.1289 264.994 23.4648V37.1055C264.994 39.168 264.807 40.8848 264.432 42.2559C264.068 43.627 263.441 44.6523 262.551 45.332C261.672 46.0117 260.459 46.3516 258.912 46.3516ZM258.912 43.2227C259.58 43.2227 260.09 43.0352 260.441 42.6602C260.793 42.2734 261.033 41.6348 261.162 40.7441C261.291 39.8535 261.355 38.6523 261.355 37.1406V23.2539C261.355 21.4023 261.209 20.0312 260.916 19.1406C260.623 18.25 259.984 17.8047 259 17.8047C257.98 17.8047 257.289 18.25 256.926 19.1406C256.574 20.0195 256.398 21.3848 256.398 23.2363V37.1406C256.398 38.6641 256.463 39.8711 256.592 40.7617C256.721 41.6406 256.967 42.2734 257.33 42.6602C257.693 43.0352 258.221 43.2227 258.912 43.2227ZM269.705 46V15.0625H273.344V46H269.705ZM278.424 46V15.0625H284.242C285.859 15.0625 287.119 15.4023 288.021 16.082C288.924 16.75 289.557 17.7109 289.92 18.9648C290.283 20.2188 290.465 21.7188 290.465 23.4648L290.482 37.0527C290.482 39.1387 290.271 40.8438 289.85 42.168C289.439 43.4805 288.766 44.4473 287.828 45.0684C286.902 45.6895 285.666 46 284.119 46H278.424ZM282.045 43.0645H283.908C284.564 43.0645 285.109 42.9238 285.543 42.6426C285.977 42.3496 286.299 41.8105 286.51 41.0254C286.732 40.2402 286.844 39.1035 286.844 37.6152V23.377C286.844 21.4316 286.615 20.043 286.158 19.2109C285.701 18.3672 284.951 17.9453 283.908 17.9453H282.045V43.0645ZM300.186 46.3516C298.932 46.3516 297.912 46.1289 297.127 45.6836C296.342 45.2266 295.738 44.582 295.316 43.75C294.895 42.918 294.602 41.9395 294.438 40.8145C294.285 39.6777 294.209 38.4238 294.209 37.0527V34.0469H297.742V37.1934C297.742 39.3613 297.895 40.9141 298.199 41.8516C298.516 42.7773 299.189 43.2402 300.221 43.2402C300.936 43.2402 301.457 43.0762 301.785 42.748C302.125 42.4082 302.342 41.8691 302.436 41.1309C302.529 40.3926 302.576 39.4199 302.576 38.2129C302.576 36.8301 302.33 35.6406 301.838 34.6445C301.357 33.6484 300.66 32.6934 299.746 31.7793L297.725 29.7578C297.139 29.1602 296.564 28.5098 296.002 27.8066C295.439 27.0918 294.971 26.2832 294.596 25.3809C294.232 24.4785 294.051 23.4473 294.051 22.2871C294.051 20.7285 294.215 19.3809 294.543 18.2441C294.871 17.1074 295.469 16.2285 296.336 15.6074C297.203 14.9863 298.434 14.6758 300.027 14.6758C301.281 14.6758 302.283 14.8926 303.033 15.3262C303.795 15.7598 304.363 16.3809 304.738 17.1895C305.125 17.9863 305.377 18.9355 305.494 20.0371C305.623 21.1387 305.688 22.3574 305.688 23.6934V25.5215H302.207V23.4473C302.207 22.1934 302.154 21.1504 302.049 20.3184C301.955 19.4746 301.756 18.8418 301.451 18.4199C301.146 17.998 300.672 17.7871 300.027 17.7871C299.441 17.7871 298.961 17.9336 298.586 18.2266C298.223 18.5078 297.959 18.9473 297.795 19.5449C297.631 20.1426 297.549 20.9102 297.549 21.8477C297.549 22.668 297.648 23.3477 297.848 23.8867C298.047 24.4141 298.346 24.9062 298.744 25.3633C299.154 25.8203 299.652 26.3594 300.238 26.9805L302.348 29.2129C303.461 30.373 304.369 31.6738 305.072 33.1152C305.787 34.5449 306.145 36.209 306.145 38.1074C306.145 39.8184 305.975 41.2891 305.635 42.5195C305.307 43.75 304.715 44.6992 303.859 45.3672C303.004 46.0234 301.779 46.3516 300.186 46.3516Z" fill="white"/>
</svg>
